<?xml version="1.0" encoding="UTF-8"?>
<svg width="306px" height="512px" viewBox="0 0 306 512" version="1.1" xmlns="http://www.w3.org/2000/svg" xmlns:xlink="http://www.w3.org/1999/xlink">
    <!-- Generator: Sketch 52.4 (67378) - http://www.bohemiancoding.com/sketch -->
    <title>467282</title>
    <desc>Created with Sketch.</desc>
    <g id="Page-1" stroke="none" stroke-width="1" fill="none" fill-rule="evenodd">
        <g id="467282" fill="#FFFFFF" fill-rule="nonzero">
            <path d="M291.8,222.851 L83.065,14.116 C64.244,-4.705 31.737,-4.705 14.627,14.116 C-4.193,32.937 -4.193,63.733 14.627,82.554 L187.433,257.07 L14.628,429.875 C-4.192,448.696 -4.192,479.493 14.628,498.313 C23.183,506.868 36.87,512 48.846,512 C60.822,512 74.511,506.868 83.065,498.312 L291.8,291.288 C300.355,282.733 305.488,269.046 305.488,257.069 C305.488,245.093 300.355,231.406 291.8,222.851 Z M267.847,267.335 L60.823,474.36 C55.69,479.492 45.425,479.492 40.292,474.36 C35.159,469.228 35.159,458.961 40.292,453.829 L225.074,269.047 C231.918,262.203 231.918,251.938 225.074,245.094 L38.581,60.312 C33.448,53.468 33.448,44.913 38.581,39.781 C42.003,36.359 45.425,34.649 48.847,34.649 C52.269,34.649 55.691,36.359 59.113,39.781 L267.848,248.516 C271.27,251.938 272.98,255.36 272.98,258.782 C271.269,260.491 269.558,265.625 267.847,267.335 Z" id="Shape"></path>
        </g>
    </g>
</svg>