<?xml version="1.0" encoding="UTF-8"?>
<svg width="259px" height="36px" viewBox="0 0 259 36" version="1.1" xmlns="http://www.w3.org/2000/svg" xmlns:xlink="http://www.w3.org/1999/xlink">
    <!-- Generator: Sketch 51.3 (57544) - http://www.bohemiancoding.com/sketch -->
    <title> brand</title>
    <desc>Created with Sketch.</desc>
    <defs>
        <linearGradient x1="0%" y1="0%" x2="100%" y2="100%" id="linearGradient-1">
            <stop stop-color="#FED666" offset="0%"></stop>
            <stop stop-color="#FF48A4" offset="100%"></stop>
        </linearGradient>
    </defs>
    <g id="Page-1" stroke="none" stroke-width="1" fill="none" fill-rule="evenodd">
        <g id="-brand">
            <path d="M138.546468,29 C138.246591,29 137.98761,28.8901384 137.769517,28.670412 C137.551424,28.4506855 137.442379,28.1897643 137.442379,27.8876404 L137.442379,21.2546816 L131.104089,21.2546816 C130.804212,21.2546816 130.54523,21.1448201 130.327138,20.9250936 C130.109045,20.7053672 130,20.444446 130,20.1423221 L130,15.6516854 C130,15.3495615 130.109045,15.0886403 130.327138,14.8689139 C130.54523,14.6491874 130.804212,14.5393258 131.104089,14.5393258 L137.442379,14.5393258 L137.442379,8.11235955 C137.442379,7.81023569 137.551424,7.54931446 137.769517,7.32958801 C137.98761,7.10986157 138.246591,7 138.546468,7 L143.535316,7 C143.835194,7 144.094175,7.10986157 144.312268,7.32958801 C144.53036,7.54931446 144.639405,7.81023569 144.639405,8.11235955 L144.639405,14.5393258 L150.895911,14.5393258 C151.195788,14.5393258 151.45477,14.6491874 151.672862,14.8689139 C151.890955,15.0886403 152,15.3495615 152,15.6516854 L152,20.1423221 C152,20.444446 151.890955,20.7053672 151.672862,20.9250936 C151.45477,21.1448201 151.195788,21.2546816 150.895911,21.2546816 L144.639405,21.2546816 L144.639405,27.8876404 C144.639405,28.1897643 144.53036,28.4506855 144.312268,28.670412 C144.094175,28.8901384 143.835194,29 143.535316,29 L138.546468,29 Z" id="+" fill="url(#linearGradient-1)"></path>
            <g id="Group-2" transform="translate(168.000000, 0.000000)" fill="#102B3F">
                <path d="M1.08,28.4 C0.7866652,28.4 0.5333344,28.2933344 0.32,28.08 C0.1066656,27.8666656 0,27.6133348 0,27.32 L0,1.48 C0,1.1866652 0.1066656,0.9333344 0.32,0.72 C0.5333344,0.5066656 0.7866652,0.4 1.08,0.4 L14.36,0.4 C18.1466856,0.4 20.939991,1.0933264 22.74,2.48 C24.540009,3.8666736 25.44,5.9733192 25.44,8.8 C25.44,9.9466724 25.10667,10.9666622 24.44,11.86 C23.77333,12.7533378 23.040004,13.399998 22.24,13.8 C23.306672,14.2266688 24.206663,14.9799946 24.94,16.06 C25.673337,17.1400054 26.04,18.3199936 26.04,19.6 C26.04,22.5600148 25.0800096,24.7666594 23.16,26.22 C21.2399904,27.6733406 18.4400184,28.4 14.76,28.4 L1.08,28.4 Z M13.36,10.92 C13.893336,10.92 14.2999986,10.7400018 14.58,10.38 C14.8600014,10.0199982 15,9.6000024 15,9.12 C15,8.6399976 14.8600014,8.2133352 14.58,7.84 C14.2999986,7.4666648 13.893336,7.28 13.36,7.28 L10,7.28 L10,10.92 L13.36,10.92 Z M13.72,21.52 C14.3333364,21.52 14.7933318,21.320002 15.1,20.92 C15.4066682,20.519998 15.56,20.0666692 15.56,19.56 C15.56,19.0533308 15.393335,18.600002 15.06,18.2 C14.726665,17.799998 14.2800028,17.6 13.72,17.6 L10,17.6 L10,21.52 L13.72,21.52 Z M40,28.8 C32.66663,28.8 28.800002,25.8266964 28.4,19.88 C28.3733332,19.479998 28.36,18.8533376 28.36,18 C28.36,17.1466624 28.3733332,16.520002 28.4,16.12 C28.5866676,13.2133188 29.6933232,11.0000076 31.72,9.48 C33.7466768,7.9599924 36.5066492,7.2 40,7.2 C43.4933508,7.2 46.2533232,7.9599924 48.28,9.48 C50.3066768,11.0000076 51.4133324,13.2133188 51.6,16.12 C51.6533336,16.920004 51.68,17.5466644 51.68,18 C51.68,18.4533356 51.6533336,19.079996 51.6,19.88 C51.199998,25.8266964 47.33337,28.8 40,28.8 Z M40,22.4 C40.7200036,22.4 41.1866656,22.2066686 41.4,21.82 C41.6133344,21.4333314 41.7466664,20.7200052 41.8,19.68 C41.8266668,19.413332 41.84,18.8533376 41.84,18 C41.84,17.1466624 41.8266668,16.586668 41.8,16.32 C41.7199996,15.3066616 41.5733344,14.600002 41.36,14.2 C41.1466656,13.799998 40.6933368,13.6 40,13.6 C39.3066632,13.6 38.8533344,13.799998 38.64,14.2 C38.4266656,14.600002 38.2800004,15.3066616 38.2,16.32 L38.16,18 L38.2,19.68 C38.2533336,20.7200052 38.3866656,21.4333314 38.6,21.82 C38.8133344,22.2066686 39.2799964,22.4 40,22.4 Z M55.72,28.4 C55.4266652,28.4 55.1733344,28.2933344 54.96,28.08 C54.7466656,27.8666656 54.64,27.6133348 54.64,27.32 L54.64,1.08 C54.64,0.7866652 54.7466656,0.5333344 54.96,0.32 C55.1733344,0.1066656 55.4266652,0 55.72,0 L62.88,0 C63.1733348,0 63.4266656,0.1066656 63.64,0.32 C63.8533344,0.5333344 63.96,0.7866652 63.96,1.08 L63.96,27.32 C63.96,27.6133348 63.8533344,27.8666656 63.64,28.08 C63.4266656,28.2933344 63.1733348,28.4 62.88,28.4 L55.72,28.4 Z M75.52,28.8 C73.0399876,28.8 71.0400076,28.0533408 69.52,26.56 C67.9999924,25.0666592 67.173334,22.7333492 67.04,19.56 L67,17.96 L67.04,16.4 C67.1466672,13.3866516 67.9799922,11.1000078 69.54,9.54 C71.1000078,7.9799922 73.0933212,7.2 75.52,7.2 C77.6800108,7.2 79.4533264,7.8266604 80.84,9.08 L80.84,1.08 C80.84,0.7866652 80.9466656,0.5333344 81.16,0.32 C81.3733344,0.1066656 81.6266652,0 81.92,0 L89.32,0 C89.6133348,0 89.8666656,0.1066656 90.08,0.32 C90.2933344,0.5333344 90.4,0.7866652 90.4,1.08 L90.4,27.32 C90.4,27.6133348 90.2933344,27.8666656 90.08,28.08 C89.8666656,28.2933344 89.6133348,28.4 89.32,28.4 L82.52,28.4 C82.2266652,28.4 81.9733344,28.2933344 81.76,28.08 C81.5466656,27.8666656 81.44,27.6133348 81.44,27.32 L81.44,26.4 C80.0266596,28.000008 78.053346,28.8 75.52,28.8 Z M78.84,21.64 C79.5333368,21.64 80.0266652,21.4466686 80.32,21.06 C80.6133348,20.6733314 80.7866664,20.0933372 80.84,19.32 C80.8933336,18.519996 80.92,18.0266676 80.92,17.84 C80.92,17.6533324 80.8933336,17.160004 80.84,16.36 C80.7866664,15.69333 80.6066682,15.193335 80.3,14.86 C79.9933318,14.526665 79.50667,14.36 78.84,14.36 C78.1466632,14.36 77.6600014,14.5466648 77.38,14.92 C77.0999986,15.2933352 76.9200004,15.879996 76.84,16.68 C76.8133332,16.946668 76.8,17.3866636 76.8,18 C76.8,18.6133364 76.8133332,19.053332 76.84,19.32 C76.9200004,20.120004 77.0999986,20.7066648 77.38,21.08 C77.6600014,21.4533352 78.1466632,21.64 78.84,21.64 Z" id="Bold"></path>
            </g>
            <g id="Group" fill="#102B3F">
                <path d="M0.92,28.4 C0.653332,28.4 0.4333342,28.3133342 0.26,28.14 C0.0866658,27.9666658 0,27.746668 0,27.48 L0,1.36 C0,1.0666652 0.0866658,0.8333342 0.26,0.66 C0.4333342,0.4866658 0.653332,0.4 0.92,0.4 L11.08,0.4 C14.0933484,0.4 16.466658,1.133326 18.2,2.6 C19.933342,4.066674 20.8,6.1866528 20.8,8.96 C20.8,11.7333472 19.9400086,13.8466594 18.22,15.3 C16.4999914,16.7533406 14.1200152,17.48 11.08,17.48 L4,17.48 L4,27.48 C4,27.746668 3.9066676,27.9666658 3.72,28.14 C3.5333324,28.3133342 3.306668,28.4 3.04,28.4 L0.92,28.4 Z M10.88,14.12 C12.8266764,14.12 14.299995,13.6800044 15.3,12.8 C16.300005,11.9199956 16.8,10.6400084 16.8,8.96 C16.8,7.2799916 16.3066716,5.9933378 15.32,5.1 C14.3333284,4.2066622 12.8533432,3.76 10.88,3.76 L3.96,3.76 L3.96,14.12 L10.88,14.12 Z M32.92,28.8 C30.386654,28.8 28.4266736,27.9800082 27.04,26.34 C25.6533264,24.6999918 24.96,22.5200136 24.96,19.8 L24.96,8.52 C24.96,8.253332 25.0466658,8.0333342 25.22,7.86 C25.3933342,7.6866658 25.613332,7.6 25.88,7.6 L27.88,7.6 C28.146668,7.6 28.3666658,7.6866658 28.54,7.86 C28.7133342,8.0333342 28.8,8.253332 28.8,8.52 L28.8,19.6 C28.8,23.5733532 30.533316,25.56 34,25.56 C35.6800084,25.56 37.0133284,25.0333386 38,23.98 C38.9866716,22.9266614 39.48,21.466676 39.48,19.6 L39.48,8.52 C39.48,8.253332 39.5666658,8.0333342 39.74,7.86 C39.9133342,7.6866658 40.133332,7.6 40.4,7.6 L42.4,7.6 C42.666668,7.6 42.8799992,7.6866658 43.04,7.86 C43.2000008,8.0333342 43.28,8.253332 43.28,8.52 L43.28,27.48 C43.28,27.746668 43.2000008,27.9666658 43.04,28.14 C42.8799992,28.3133342 42.666668,28.4 42.4,28.4 L40.52,28.4 C40.253332,28.4 40.0333342,28.3133342 39.86,28.14 C39.6866658,27.9666658 39.6,27.746668 39.6,27.48 L39.6,25.72 C38.8533296,26.7333384 37.946672,27.4999974 36.88,28.02 C35.813328,28.5400026 34.4933412,28.8 32.92,28.8 Z M50.16,28.4 C49.893332,28.4 49.6733342,28.3133342 49.5,28.14 C49.3266658,27.9666658 49.24,27.746668 49.24,27.48 L49.24,8.56 C49.24,8.293332 49.3266658,8.0666676 49.5,7.88 C49.6733342,7.6933324 49.893332,7.6 50.16,7.6 L52,7.6 C52.266668,7.6 52.4933324,7.6933324 52.68,7.88 C52.8666676,8.0666676 52.96,8.293332 52.96,8.56 L52.96,10.32 C54.0533388,8.5066576 55.9199868,7.6 58.56,7.6 L60.12,7.6 C60.386668,7.6 60.6066658,7.6866658 60.78,7.86 C60.9533342,8.0333342 61.04,8.253332 61.04,8.52 L61.04,10.16 C61.04,10.426668 60.9533342,10.6399992 60.78,10.8 C60.6066658,10.9600008 60.386668,11.04 60.12,11.04 L57.72,11.04 C56.2799928,11.04 55.1466708,11.4599958 54.32,12.3 C53.4933292,13.1400042 53.08,14.2799928 53.08,15.72 L53.08,27.48 C53.08,27.746668 52.9866676,27.9666658 52.8,28.14 C52.6133324,28.3133342 52.386668,28.4 52.12,28.4 L50.16,28.4 Z M65.4,36 C65.133332,36 64.9133342,35.9133342 64.74,35.74 C64.5666658,35.5666658 64.48,35.346668 64.48,35.08 L64.48,8.52 C64.48,8.253332 64.5666658,8.0333342 64.74,7.86 C64.9133342,7.6866658 65.133332,7.6 65.4,7.6 L67.24,7.6 C67.506668,7.6 67.7266658,7.6866658 67.9,7.86 C68.0733342,8.0333342 68.16,8.253332 68.16,8.52 L68.16,10.28 C69.6533408,8.2266564 71.8399856,7.2 74.72,7.2 C77.520014,7.2 79.619993,8.0799912 81.02,9.84 C82.420007,11.6000088 83.1733328,13.8666528 83.28,16.64 C83.3066668,16.9333348 83.32,17.3866636 83.32,18 C83.32,18.6133364 83.3066668,19.0666652 83.28,19.36 C83.1733328,22.1066804 82.4133404,24.3666578 81,26.14 C79.5866596,27.9133422 77.4933472,28.8 74.72,28.8 C71.9466528,28.8 69.7866744,27.80001 68.24,25.8 L68.24,35.08 C68.24,35.346668 68.1600008,35.5666658 68,35.74 C67.8399992,35.9133342 67.626668,36 67.36,36 L65.4,36 Z M73.88,25.56 C75.7733428,25.56 77.153329,24.9733392 78.02,23.8 C78.886671,22.6266608 79.3599996,21.0800096 79.44,19.16 C79.4666668,18.893332 79.48,18.5066692 79.48,18 C79.48,12.9599748 77.613352,10.44 73.88,10.44 C72.0399908,10.44 70.6600046,11.0466606 69.74,12.26 C68.8199954,13.4733394 68.3200004,14.9199916 68.24,16.6 L68.2,18.12 L68.24,19.68 C68.2933336,21.2533412 68.7999952,22.6266608 69.76,23.8 C70.7200048,24.9733392 72.0933244,25.56 73.88,25.56 Z M89.24,28.4 C88.973332,28.4 88.7533342,28.3133342 88.58,28.14 C88.4066658,27.9666658 88.32,27.746668 88.32,27.48 L88.32,0.92 C88.32,0.653332 88.4066658,0.4333342 88.58,0.26 C88.7533342,0.0866658 88.973332,0 89.24,0 L91.12,0 C91.386668,0 91.6066658,0.0866658 91.78,0.26 C91.9533342,0.4333342 92.04,0.653332 92.04,0.92 L92.04,27.48 C92.04,27.746668 91.9533342,27.9666658 91.78,28.14 C91.6066658,28.3133342 91.386668,28.4 91.12,28.4 L89.24,28.4 Z M106.32,28.8 C103.57332,28.8 101.380008,27.9533418 99.74,26.26 C98.0999918,24.5666582 97.2000008,22.253348 97.04,19.32 L97,17.96 L97.04,16.64 C97.2266676,13.7599856 98.1399918,11.4666752 99.78,9.76 C101.420008,8.0533248 103.586653,7.2 106.28,7.2 C109.240015,7.2 111.533325,8.1399906 113.16,10.02 C114.786675,11.9000094 115.6,14.439984 115.6,17.64 L115.6,18.32 C115.6,18.586668 115.513334,18.8066658 115.34,18.98 C115.166666,19.1533342 114.946668,19.24 114.68,19.24 L100.84,19.24 L100.84,19.6 C100.92,21.333342 101.446662,22.8066606 102.42,24.02 C103.393338,25.2333394 104.679992,25.84 106.28,25.84 C107.506673,25.84 108.513329,25.5933358 109.3,25.1 C110.086671,24.6066642 110.666665,24.093336 111.04,23.56 C111.280001,23.2399984 111.459999,23.046667 111.58,22.98 C111.700001,22.913333 111.919998,22.88 112.24,22.88 L114.2,22.88 C114.440001,22.88 114.639999,22.946666 114.8,23.08 C114.960001,23.213334 115.04,23.3999988 115.04,23.64 C115.04,24.2266696 114.673337,24.9333292 113.94,25.76 C113.206663,26.5866708 112.180007,27.299997 110.86,27.9 C109.539993,28.500003 108.026675,28.8 106.32,28.8 Z M111.8,16.48 L111.8,16.36 C111.8,14.5199908 111.300005,13.0200058 110.3,11.86 C109.299995,10.6999942 107.960008,10.12 106.28,10.12 C104.599992,10.12 103.273338,10.6999942 102.3,11.86 C101.326662,13.0200058 100.84,14.5199908 100.84,16.36 L100.84,16.48 L111.8,16.48 Z" id="Purple"></path>
            </g>
        </g>
    </g>
</svg>