<?xml version="1.0" encoding="UTF-8"?>
<svg width="288px" height="101px" viewBox="0 0 288 101" version="1.1" xmlns="http://www.w3.org/2000/svg" xmlns:xlink="http://www.w3.org/1999/xlink">
    <!-- Generator: Sketch 51.3 (57544) - http://www.bohemiancoding.com/sketch -->
    <title>Blue</title>
    <desc>Created with Sketch.</desc>
    <defs>
        <linearGradient x1="100%" y1="50%" x2="0%" y2="50%" id="linearGradient-1">
            <stop stop-color="#646EEB" offset="0%"></stop>
            <stop stop-color="#9DECE1" offset="100%"></stop>
        </linearGradient>
    </defs>
    <g id="Page-1" stroke="none" stroke-width="1" fill="none" fill-rule="evenodd">
        <g id="Desktop-HD" transform="translate(-303.000000, -4098.000000)">
            <g id="Group-29" transform="translate(0.000000, 2477.000000)">
                <g id="Group-62" transform="translate(281.000000, 102.000000)">
                    <g id="marketing" transform="translate(22.000000, 1387.000000)">
                        <g id="Group-23">
                            <g id="Group-26" transform="translate(0.000000, 48.000000)">
                                <g id="Group-25" transform="translate(0.000000, 65.000000)">
                                    <g id="Blue" transform="translate(0.000000, 19.000000)">
                                        <path d="M2.3723229,50.7439614 C26.0955519,50.7439614 29.416804,1.46376812 50.2932455,1.46376812 C71.169687,1.46376812 69.2718287,26.3478261 97.7397035,26.3478261 C126.207578,26.3478261 123.360791,50.7439614 144.711697,50.7439614 C166.062603,50.7439614 177.449753,25.8599034 192.632619,25.8599034 C207.815486,25.8599034 212.085667,50.2560386 239.604613,50.2560386 C267.123558,50.2560386 257.159802,99.5362319 287.525535,99.5362319" id="Lineage" stroke="url(#linearGradient-1)" stroke-width="2"></path>
                                        <path d="M1.42339374,52.2077295 C0.637275084,52.2077295 0,51.5523782 0,50.7439614 C0,49.9355445 0.637275084,49.2801932 1.42339374,49.2801932 C2.2095124,49.2801932 2.84678748,49.9355445 2.84678748,50.7439614 C2.84678748,51.5523782 2.2095124,52.2077295 1.42339374,52.2077295 Z M48.8698517,2.92753623 C48.0837331,2.92753623 47.446458,2.27218492 47.446458,1.46376812 C47.446458,0.655351308 48.0837331,0 48.8698517,0 C49.6559704,0 50.2932455,0.655351308 50.2932455,1.46376812 C50.2932455,2.27218492 49.6559704,2.92753623 48.8698517,2.92753623 Z M96.3163097,27.8115942 C95.5301911,27.8115942 94.892916,27.1562429 94.892916,26.3478261 C94.892916,25.5394093 95.5301911,24.884058 96.3163097,24.884058 C97.1024284,24.884058 97.7397035,25.5394093 97.7397035,26.3478261 C97.7397035,27.1562429 97.1024284,27.8115942 96.3163097,27.8115942 Z M143.762768,52.2077295 C142.976649,52.2077295 142.339374,51.5523782 142.339374,50.7439614 C142.339374,49.9355445 142.976649,49.2801932 143.762768,49.2801932 C144.548886,49.2801932 145.186161,49.9355445 145.186161,50.7439614 C145.186161,51.5523782 144.548886,52.2077295 143.762768,52.2077295 Z M191.209226,27.3236715 C190.423107,27.3236715 189.785832,26.6683202 189.785832,25.8599034 C189.785832,25.0514866 190.423107,24.3961353 191.209226,24.3961353 C191.995344,24.3961353 192.632619,25.0514866 192.632619,25.8599034 C192.632619,26.6683202 191.995344,27.3236715 191.209226,27.3236715 Z M238.655684,51.7198068 C237.869565,51.7198068 237.23229,51.0644555 237.23229,50.2560386 C237.23229,49.4476218 237.869565,48.7922705 238.655684,48.7922705 C239.441802,48.7922705 240.079077,49.4476218 240.079077,50.2560386 C240.079077,51.0644555 239.441802,51.7198068 238.655684,51.7198068 Z M286.576606,101 C285.790488,101 285.153213,100.344649 285.153213,99.5362319 C285.153213,98.7278151 285.790488,98.0724638 286.576606,98.0724638 C287.362725,98.0724638 288,98.7278151 288,99.5362319 C288,100.344649 287.362725,101 286.576606,101 Z" id="Dots" fill="url(#linearGradient-1)"></path>
                                    </g>
                                </g>
                            </g>
                        </g>
                    </g>
                </g>
            </g>
        </g>
    </g>
</svg>