<?xml version="1.0" encoding="UTF-8"?>
<svg width="287px" height="126px" viewBox="0 0 287 126" version="1.1" xmlns="http://www.w3.org/2000/svg" xmlns:xlink="http://www.w3.org/1999/xlink">
    <!-- Generator: Sketch 51.3 (57544) - http://www.bohemiancoding.com/sketch -->
    <title>Pink</title>
    <desc>Created with Sketch.</desc>
    <defs>
        <linearGradient x1="0%" y1="50%" x2="100%" y2="50%" id="linearGradient-1">
            <stop stop-color="#FFC75E" offset="0%"></stop>
            <stop stop-color="#F03DA2" offset="100%"></stop>
        </linearGradient>
        <linearGradient x1="0%" y1="52.2282362%" x2="100%" y2="52.2282362%" id="linearGradient-2">
            <stop stop-color="#FFC75E" offset="0%"></stop>
            <stop stop-color="#F03DA2" offset="100%"></stop>
        </linearGradient>
    </defs>
    <g id="Page-1" stroke="none" stroke-width="1" fill="none" fill-rule="evenodd">
        <g id="Desktop-HD" transform="translate(-303.000000, -4077.000000)">
            <g id="Group-29" transform="translate(0.000000, 2477.000000)">
                <g id="Group-62" transform="translate(281.000000, 102.000000)">
                    <g id="marketing" transform="translate(22.000000, 1387.000000)">
                        <g id="Group-23">
                            <g id="Group-26" transform="translate(0.000000, 48.000000)">
                                <g id="Group-25" transform="translate(0.000000, 63.000000)">
                                    <g id="Pink">
                                        <path d="M1.89438944,124.529183 C30.310231,125.019455 26.0478548,75.0116732 49.2541254,75.0116732 C72.460396,75.0116732 62.9884488,100.015564 96.6138614,100.505837 C130.239274,100.996109 118.39934,50.4980545 143.973597,50.4980545 C169.547855,50.4980545 170.968647,1.47081712 191.333333,1.47081712 C211.69802,1.47081712 203.173267,25.9844358 238.693069,26.4747082 C274.212871,26.9649805 259.531353,75.5019455 285.579208,75.5019455" id="Lineage" stroke="url(#linearGradient-1)" stroke-width="2" stroke-linecap="round"></path>
                                        <path d="M1.42079208,126 C0.636110281,126 0,125.341493 0,124.529183 C0,123.716873 0.636110281,123.058366 1.42079208,123.058366 C2.20547388,123.058366 2.84158416,123.716873 2.84158416,124.529183 C2.84158416,125.341493 2.20547388,126 1.42079208,126 Z M48.7805281,76.4824903 C47.9958463,76.4824903 47.359736,75.823983 47.359736,75.0116732 C47.359736,74.1993633 47.9958463,73.540856 48.7805281,73.540856 C49.5652099,73.540856 50.2013201,74.1993633 50.2013201,75.0116732 C50.2013201,75.823983 49.5652099,76.4824903 48.7805281,76.4824903 Z M96.140264,101.976654 C95.3555822,101.976654 94.7194719,101.318146 94.7194719,100.505837 C94.7194719,99.6935267 95.3555822,99.0350195 96.140264,99.0350195 C96.9249458,99.0350195 97.5610561,99.6935267 97.5610561,100.505837 C97.5610561,101.318146 96.9249458,101.976654 96.140264,101.976654 Z M143.5,51.9688716 C142.715318,51.9688716 142.079208,51.3103643 142.079208,50.4980545 C142.079208,49.6857446 142.715318,49.0272374 143.5,49.0272374 C144.284682,49.0272374 144.920792,49.6857446 144.920792,50.4980545 C144.920792,51.3103643 144.284682,51.9688716 143.5,51.9688716 Z M190.859736,2.94163424 C190.075054,2.94163424 189.438944,2.28312699 189.438944,1.47081712 C189.438944,0.658507255 190.075054,0 190.859736,0 C191.644418,0 192.280528,0.658507255 192.280528,1.47081712 C192.280528,2.28312699 191.644418,2.94163424 190.859736,2.94163424 Z M238.219472,27.9455253 C237.43479,27.9455253 236.79868,27.287018 236.79868,26.4747082 C236.79868,25.6623983 237.43479,25.0038911 238.219472,25.0038911 C239.004154,25.0038911 239.640264,25.6623983 239.640264,26.4747082 C239.640264,27.287018 239.004154,27.9455253 238.219472,27.9455253 Z M285.579208,76.9727626 C284.794526,76.9727626 284.158416,76.3142554 284.158416,75.5019455 C284.158416,74.6896357 284.794526,74.0311284 285.579208,74.0311284 C286.36389,74.0311284 287,74.6896357 287,75.5019455 C287,76.3142554 286.36389,76.9727626 285.579208,76.9727626 Z" id="Dots" fill="url(#linearGradient-2)"></path>
                                    </g>
                                </g>
                            </g>
                        </g>
                    </g>
                </g>
            </g>
        </g>
    </g>
</svg>