<?xml version="1.0" encoding="UTF-8"?>
<svg width="1334px" height="187px" viewBox="0 0 1334 187" version="1.1" xmlns="http://www.w3.org/2000/svg" xmlns:xlink="http://www.w3.org/1999/xlink">
    <!-- Generator: Sketch 52.6 (67491) - http://www.bohemiancoding.com/sketch -->
    <title> brand</title>
    <desc>Created with Sketch.</desc>
    <defs>
        <linearGradient x1="0%" y1="0%" x2="100%" y2="100%" id="linearGradient-1">
            <stop stop-color="#AF25CD" offset="0%"></stop>
            <stop stop-color="#FF48A4" offset="100%"></stop>
        </linearGradient>
    </defs>
    <g id="Page-1" stroke="none" stroke-width="1" fill="none" fill-rule="evenodd">
        <g id="-brand">
            <path d="M714.89777,149 C713.357489,149 712.027267,148.425724 710.907063,147.277154 C709.786859,146.128584 709.226766,144.764677 709.226766,143.185393 L709.226766,108.513109 L676.671004,108.513109 C675.130723,108.513109 673.800501,107.938832 672.680297,106.790262 C671.560094,105.641692 671,104.277786 671,102.698502 L671,79.2247191 C671,77.6454353 671.560094,76.2815288 672.680297,75.1329588 C673.800501,73.9843888 675.130723,73.4101124 676.671004,73.4101124 L709.226766,73.4101124 L709.226766,39.8146067 C709.226766,38.2353229 709.786859,36.8714165 710.907063,35.7228464 C712.027267,34.5742764 713.357489,34 714.89777,34 L740.522305,34 C742.062585,34 743.392807,34.5742764 744.513011,35.7228464 C745.633215,36.8714165 746.193309,38.2353229 746.193309,39.8146067 L746.193309,73.4101124 L778.328996,73.4101124 C779.869277,73.4101124 781.199499,73.9843888 782.319703,75.1329588 C783.439906,76.2815288 784,77.6454353 784,79.2247191 L784,102.698502 C784,104.277786 783.439906,105.641692 782.319703,106.790262 C781.199499,107.938832 779.869277,108.513109 778.328996,108.513109 L746.193309,108.513109 L746.193309,143.185393 C746.193309,144.764677 745.633215,146.128584 744.513011,147.277154 C743.392807,148.425724 742.062585,149 740.522305,149 L714.89777,149 Z" id="+" fill="url(#linearGradient-1)"></path>
            <g id="Group-2" transform="translate(866.000000, 0.000000)" fill="#102B3F">
                <path d="M5.5830644,146.896552 C4.06666895,146.896552 2.75707435,146.344833 1.6542413,145.241379 C0.551408253,144.137926 0,142.827594 0,141.310345 L0,7.65517241 C0,6.13792345 0.551408253,4.82759172 1.6542413,3.72413793 C2.75707435,2.62068414 4.06666895,2.06896552 5.5830644,2.06896552 L74.2340785,2.06896552 C93.8093651,2.06896552 108.249369,5.65513655 117.554523,12.8275862 C126.859676,20.0000359 131.512184,30.8964786 131.512184,45.5172414 C131.512184,51.4483055 129.789033,56.7241148 126.342679,61.3448276 C122.896326,65.9655403 119.105394,69.3103345 114.969771,71.3793103 C120.483936,73.5862179 125.136443,77.4827307 128.927432,83.0689655 C132.71842,88.6552003 134.613886,94.7585876 134.613886,101.37931 C134.613886,116.689732 129.651212,128.103411 119.725714,135.62069 C109.800217,143.137969 95.3257502,146.896552 76.3018801,146.896552 L5.5830644,146.896552 Z M69.0645744,56.4827586 C71.821657,56.4827586 73.923901,55.5517334 75.3713694,53.6896552 C76.8188377,51.8275769 77.5425611,49.6551848 77.5425611,47.1724138 C77.5425611,44.6896428 76.8188377,42.4827683 75.3713694,40.5517241 C73.923901,38.62068 71.821657,37.6551724 69.0645744,37.6551724 L51.6950407,37.6551724 L51.6950407,56.4827586 L69.0645744,56.4827586 Z M70.9255959,111.310345 C74.0962409,111.310345 76.474189,110.275872 78.0595115,108.206897 C79.644834,106.137921 80.4374833,103.793117 80.4374833,101.172414 C80.4374833,98.551711 79.5759079,96.2069069 77.8527313,94.137931 C76.1295547,92.0689552 73.8205326,91.0344828 70.9255959,91.0344828 L51.6950407,91.0344828 L51.6950407,111.310345 L70.9255959,111.310345 Z M206.780163,148.965517 C168.870277,148.965517 148.881728,133.586361 146.813916,102.827586 C146.676061,100.75861 146.607135,97.5172634 146.607135,93.1034483 C146.607135,88.6896331 146.676061,85.4482862 146.813916,83.3793103 C147.778895,68.3447524 153.499755,56.896591 163.976669,49.0344828 C174.453583,41.1723745 188.721272,37.2413793 206.780163,37.2413793 C224.839054,37.2413793 239.106743,41.1723745 249.583657,49.0344828 C260.060571,56.896591 265.781431,68.3447524 266.74641,83.3793103 C267.022118,87.5172621 267.15997,90.758609 267.15997,93.1034483 C267.15997,95.4482876 267.022118,98.6896345 266.74641,102.827586 C264.678598,133.586361 244.690049,148.965517 206.780163,148.965517 Z M206.780163,115.862069 C210.502224,115.862069 212.914635,114.862079 214.017469,112.862069 C215.120302,110.862059 215.809562,107.172441 216.08527,101.793103 C216.223124,100.413786 216.29205,97.5172634 216.29205,93.1034483 C216.29205,88.6896331 216.223124,85.7931103 216.08527,84.4137931 C215.671708,79.1723876 214.913521,75.5172517 213.810688,73.4482759 C212.707855,71.3793 210.36437,70.3448276 206.780163,70.3448276 C203.195955,70.3448276 200.85247,71.3793 199.749637,73.4482759 C198.646804,75.5172517 197.888618,79.1723876 197.475056,84.4137931 L197.268275,93.1034483 L197.475056,101.793103 C197.750764,107.172441 198.440024,110.862059 199.542857,112.862069 C200.64569,114.862079 203.058101,115.862069 206.780163,115.862069 Z M288.044767,146.896552 C286.528371,146.896552 285.218777,146.344833 284.115944,145.241379 C283.013111,144.137926 282.461702,142.827594 282.461702,141.310345 L282.461702,5.5862069 C282.461702,4.06895793 283.013111,2.75862621 284.115944,1.65517241 C285.218777,0.551718621 286.528371,0 288.044767,0 L325.058416,0 C326.574811,0 327.884406,0.551718621 328.987239,1.65517241 C330.090072,2.75862621 330.64148,4.06895793 330.64148,5.5862069 L330.64148,141.310345 C330.64148,142.827594 330.090072,144.137926 328.987239,145.241379 C327.884406,146.344833 326.574811,146.896552 325.058416,146.896552 L288.044767,146.896552 Z M390.400947,148.965517 C377.580513,148.965517 367.241608,145.103487 359.383923,137.37931 C351.526238,129.655134 347.252824,117.586289 346.563553,101.172414 L346.356773,92.8965517 L346.563553,84.8275862 C347.114969,69.2413014 351.422846,57.4138334 359.487313,49.3448276 C367.55178,41.2758217 377.856222,37.2413793 390.400947,37.2413793 C401.567132,37.2413793 410.734294,40.4827262 417.902709,46.9655172 L417.902709,5.5862069 C417.902709,4.06895793 418.454117,2.75862621 419.55695,1.65517241 C420.659783,0.551718621 421.969378,0 423.485774,0 L461.740104,0 C463.256499,0 464.566094,0.551718621 465.668927,1.65517241 C466.77176,2.75862621 467.323168,4.06895793 467.323168,5.5862069 L467.323168,141.310345 C467.323168,142.827594 466.77176,144.137926 465.668927,145.241379 C464.566094,146.344833 463.256499,146.896552 461.740104,146.896552 L426.587476,146.896552 C425.071081,146.896552 423.761486,146.344833 422.658653,145.241379 C421.55582,144.137926 421.004412,142.827594 421.004412,141.310345 L421.004412,136.551724 C413.698143,144.827628 403.49709,148.965517 390.400947,148.965517 Z M407.563701,111.931034 C411.147908,111.931034 413.698172,110.931044 415.214567,108.931034 C416.730962,106.931024 417.627001,103.931054 417.902709,99.9310345 C418.178417,95.7930828 418.316269,93.2413841 418.316269,92.2758621 C418.316269,91.31034 418.178417,88.7586414 417.902709,84.6206897 C417.627001,81.1723966 416.696499,78.5862155 415.111177,76.862069 C413.525854,75.1379224 411.010054,74.2758621 407.563701,74.2758621 C403.979494,74.2758621 401.463693,75.2413697 400.016225,77.1724138 C398.568757,79.1034579 397.638255,82.1379103 397.224693,86.2758621 C397.086839,87.6551793 397.017913,89.9310186 397.017913,93.1034483 C397.017913,96.2758779 397.086839,98.5517172 397.224693,99.9310345 C397.638255,104.068986 398.568757,107.103439 400.016225,109.034483 C401.463693,110.965527 403.979494,111.931034 407.563701,111.931034 Z" id="Bold"></path>
            </g>
            <g id="Group" fill="#102B3F">
                <path d="M4.75030088,147.522222 C3.37339519,147.522222 2.23746503,147.072042 1.34247634,146.171667 C0.447487637,145.271292 0,144.128525 0,142.743333 L0,7.06444444 C0,5.54073312 0.447487637,4.32870821 1.34247634,3.42833333 C2.23746503,2.52795846 3.37339519,2.07777778 4.75030088,2.07777778 L57.2101454,2.07777778 C72.7691797,2.07777778 85.0234565,5.88699894 93.9733435,13.5055556 C102.92323,21.1241122 107.398107,32.1362243 107.398107,46.5422222 C107.398107,60.9482202 102.957653,71.925703 94.0766109,79.475 C85.1955692,87.024297 72.9068702,90.7988889 57.2101454,90.7988889 L20.6534821,90.7988889 L20.6534821,142.743333 C20.6534821,144.128525 20.1715723,145.271292 19.2077383,146.171667 C18.2439044,147.072042 17.0735521,147.522222 15.6966464,147.522222 L4.75030088,147.522222 Z M56.1774713,73.3455556 C66.2288828,73.3455556 73.8361726,71.0600229 78.999569,66.4888889 C84.1629653,61.9177549 86.7446247,55.2689325 86.7446247,46.5422222 C86.7446247,37.8155119 84.1973874,31.1320602 79.1028364,26.4916667 C74.0082853,21.8512731 66.3665734,19.5311111 56.1774713,19.5311111 L20.4469473,19.5311111 L20.4469473,73.3455556 L56.1774713,73.3455556 Z M169.978158,149.6 C156.897553,149.6 146.777448,145.340598 139.617539,136.821667 C132.457629,128.302735 128.877728,116.97896 128.877728,102.85 L128.877728,44.2566667 C128.877728,42.8714746 129.325216,41.7287082 130.220205,40.8283333 C131.115193,39.9279585 132.251123,39.4777778 133.628029,39.4777778 L143.95477,39.4777778 C145.331676,39.4777778 146.467606,39.9279585 147.362595,40.8283333 C148.257583,41.7287082 148.705071,42.8714746 148.705071,44.2566667 L148.705071,101.811111 C148.705071,122.450474 157.654824,132.77 175.554598,132.77 C184.229104,132.77 191.113529,130.034287 196.20808,124.562778 C201.302631,119.091269 203.849868,111.507456 203.849868,101.811111 L203.849868,44.2566667 C203.849868,42.8714746 204.297356,41.7287082 205.192344,40.8283333 C206.087333,39.9279585 207.223263,39.4777778 208.600169,39.4777778 L218.92691,39.4777778 C220.303816,39.4777778 221.405324,39.9279585 222.231467,40.8283333 C223.057611,41.7287082 223.470676,42.8714746 223.470676,44.2566667 L223.470676,142.743333 C223.470676,144.128525 223.057611,145.271292 222.231467,146.171667 C221.405324,147.072042 220.303816,147.522222 218.92691,147.522222 L209.219773,147.522222 C207.842868,147.522222 206.706938,147.072042 205.811949,146.171667 C204.91696,145.271292 204.469473,144.128525 204.469473,142.743333 L204.469473,133.601111 C200.614137,138.864841 195.932728,142.847209 190.425105,145.548333 C184.917482,148.249458 178.101901,149.6 169.978158,149.6 Z M258.994665,147.522222 C257.61776,147.522222 256.481829,147.072042 255.586841,146.171667 C254.691852,145.271292 254.244364,144.128525 254.244364,142.743333 L254.244364,44.4644444 C254.244364,43.0792523 254.691852,41.9018567 255.586841,40.9322222 C256.481829,39.9625877 257.61776,39.4777778 258.994665,39.4777778 L268.495267,39.4777778 C269.872173,39.4777778 271.042525,39.9625877 272.006359,40.9322222 C272.970193,41.9018567 273.452103,43.0792523 273.452103,44.4644444 L273.452103,53.6066667 C279.097416,44.1873603 288.735611,39.4777778 302.366978,39.4777778 L310.421836,39.4777778 C311.798741,39.4777778 312.934672,39.9279585 313.82966,40.8283333 C314.724649,41.7287082 315.172137,42.8714746 315.172137,44.2566667 L315.172137,52.7755556 C315.172137,54.1607477 314.724649,55.2688847 313.82966,56.1 C312.934672,56.9311153 311.798741,57.3466667 310.421836,57.3466667 L298.029746,57.3466667 C290.594456,57.3466667 284.742694,59.5283115 280.474287,63.8916667 C276.205879,68.2550218 274.071707,74.1766293 274.071707,81.6566667 L274.071707,142.743333 C274.071707,144.128525 273.589797,145.271292 272.625963,146.171667 C271.66213,147.072042 270.491777,147.522222 269.114872,147.522222 L258.994665,147.522222 Z M337.684432,187 C336.307526,187 335.171596,186.549819 334.276608,185.649444 C333.381619,184.74907 332.934131,183.606303 332.934131,182.221111 L332.934131,44.2566667 C332.934131,42.8714746 333.381619,41.7287082 334.276608,40.8283333 C335.171596,39.9279585 336.307526,39.4777778 337.684432,39.4777778 L347.185034,39.4777778 C348.561939,39.4777778 349.69787,39.9279585 350.592858,40.8283333 C351.487847,41.7287082 351.935335,42.8714746 351.935335,44.2566667 L351.935335,53.3988889 C359.646007,42.7329096 370.936464,37.4 385.807045,37.4 C400.264555,37.4 411.107525,41.9710654 418.33628,51.1133333 C425.565034,60.2556013 429.454735,72.0295576 430.005497,86.4355556 C430.143188,87.9592669 430.212032,90.3140581 430.212032,93.5 C430.212032,96.6859419 430.143188,99.0407331 430.005497,100.564444 C429.454735,114.831923 425.530612,126.57125 418.233012,135.782778 C410.935412,144.994305 400.126864,149.6 385.807045,149.6 C371.487226,149.6 360.334457,144.405608 352.348404,134.016667 L352.348404,182.221111 C352.348404,183.606303 351.935339,184.74907 351.109195,185.649444 C350.283052,186.549819 349.181544,187 347.804638,187 L337.684432,187 Z M381.469814,132.77 C391.245844,132.77 398.371225,129.722623 402.846168,123.627778 C407.321112,117.532932 409.765082,109.498939 410.178154,99.5255556 C410.315845,98.1403634 410.384689,96.131865 410.384689,93.5 C410.384689,67.3198691 400.746494,54.23 381.469814,54.23 C371.969165,54.23 364.843785,57.3812648 360.09346,63.6838889 C355.343135,69.986513 352.761476,77.5010675 352.348404,86.2277778 L352.14187,94.1233333 L352.348404,102.226667 C352.623785,110.3993 355.239867,117.532932 360.196728,123.627778 C365.153588,129.722623 372.244546,132.77 381.469814,132.77 Z M460.779185,147.522222 C459.40228,147.522222 458.266349,147.072042 457.371361,146.171667 C456.476372,145.271292 456.028884,144.128525 456.028884,142.743333 L456.028884,4.77888889 C456.028884,3.39369678 456.476372,2.25093043 457.371361,1.35055556 C458.266349,0.450180683 459.40228,0 460.779185,0 L470.486322,0 C471.863228,0 472.999158,0.450180683 473.894146,1.35055556 C474.789135,2.25093043 475.236623,3.39369678 475.236623,4.77888889 L475.236623,142.743333 C475.236623,144.128525 474.789135,145.271292 473.894146,146.171667 C472.999158,147.072042 471.863228,147.522222 470.486322,147.522222 L460.779185,147.522222 Z M548.969554,149.6 C534.787425,149.6 523.462546,145.202081 514.994576,136.406111 C506.526606,127.610141 501.879619,115.59378 501.053475,100.356667 L500.846941,93.2922222 L501.053475,86.4355556 C502.017309,71.4754808 506.733141,59.5630073 515.201111,50.6977778 C523.669081,41.8325483 534.856271,37.4 548.763019,37.4 C564.046672,37.4 575.887883,42.282729 584.287008,52.0483333 C592.686133,61.8139377 596.885632,75.0076947 596.885632,91.63 L596.885632,95.1622222 C596.885632,96.5474143 596.438145,97.6901807 595.543156,98.5905556 C594.648167,99.4909304 593.512237,99.9411111 592.135331,99.9411111 L520.674283,99.9411111 L520.674283,101.811111 C521.087355,110.81486 523.806703,118.467931 528.832409,124.770556 C533.858114,131.07318 540.501585,134.224444 548.763019,134.224444 C555.096785,134.224444 560.294526,132.943161 564.356398,130.380556 C568.41827,127.81795 571.412995,125.151495 573.340663,122.381111 C574.579878,120.718881 575.509275,119.714631 576.128883,119.368333 C576.74849,119.022035 577.88442,118.848889 579.536707,118.848889 L589.656913,118.848889 C590.896129,118.848889 591.928792,119.195182 592.754936,119.887778 C593.581079,120.580374 593.994145,121.549994 593.994145,122.796667 C593.994145,125.844089 592.100928,129.514793 588.314437,133.808889 C584.527946,138.102984 579.226939,141.808318 572.411256,144.925 C565.595573,148.041682 557.78175,149.6 548.969554,149.6 Z M577.264824,85.6044444 L577.264824,84.9811111 C577.264824,75.4232855 574.683165,67.6316968 569.519768,61.6061111 C564.356372,55.5805254 557.437525,52.5677778 548.763019,52.5677778 C540.088513,52.5677778 533.23851,55.5805254 528.212804,61.6061111 C523.187098,67.6316968 520.674283,75.4232855 520.674283,84.9811111 L520.674283,85.6044444 L577.264824,85.6044444 Z" id="Purple"></path>
            </g>
        </g>
    </g>
</svg>