<?xml version="1.0" encoding="UTF-8"?>
<svg width="495px" height="59px" viewBox="0 0 495 59" version="1.1" xmlns="http://www.w3.org/2000/svg" xmlns:xlink="http://www.w3.org/1999/xlink">
    <!-- Generator: Sketch 51.3 (57544) - http://www.bohemiancoding.com/sketch -->
    <title>Group 47</title>
    <desc>Created with Sketch.</desc>
    <defs>
        <linearGradient x1="0%" y1="0%" x2="101.999998%" y2="100.999999%" id="linearGradient-1">
            <stop stop-color="#3023AE" offset="0%"></stop>
            <stop stop-color="#C86DD7" offset="100%"></stop>
        </linearGradient>
    </defs>
    <g id="Page-1" stroke="none" stroke-width="1" fill="none" fill-rule="evenodd">
        <g id="Desktop-HD" transform="translate(-707.000000, -1933.000000)">
            <g id="Group-46" transform="translate(154.000000, 1785.000000)">
                <g id="Group-31" transform="translate(553.000000, 148.000000)">
                    <g id="Group-32">
                        <g id="Group-30">
                            <g id="landing_brand">
                                <g id="Group-47">
                                    <path d="M1.49016606,46.5444444 C1.05823171,46.5444444 0.701891213,46.4024088 0.421133886,46.1183333 C0.140376558,45.8342578 0,45.4737059 0,45.0366667 L0,2.22888889 C0,1.74814574 0.140376558,1.36574216 0.421133886,1.08166667 C0.701891213,0.797591172 1.05823171,0.655555556 1.49016606,0.655555556 L17.9467825,0.655555556 C22.8276407,0.655555556 26.6717987,1.85739539 29.479372,4.26111111 C32.2869453,6.66482683 33.6907108,10.1392365 33.6907108,14.6844444 C33.6907108,19.2296524 32.2977435,22.6931362 29.5117669,25.075 C26.7257903,27.4568638 22.8708341,28.6477778 17.9467825,28.6477778 L6.47898285,28.6477778 L6.47898285,45.0366667 C6.47898285,45.4737059 6.3278081,45.8342578 6.02545406,46.1183333 C5.72310001,46.4024088 5.35596132,46.5444444 4.92402697,46.5444444 L1.49016606,46.5444444 Z M17.6228334,23.1411111 C20.7759541,23.1411111 23.1623556,22.4200072 24.7821094,20.9777778 C26.4018632,19.5355483 27.211728,17.4377915 27.211728,14.6844444 C27.211728,11.9310973 26.4126614,9.82241473 24.8145043,8.35833333 C23.2163472,6.89425194 20.8191476,6.16222222 17.6228334,6.16222222 L6.41419303,6.16222222 L6.41419303,23.1411111 L17.6228334,23.1411111 Z M61.273508,47.2 C57.1701317,47.2 53.9954618,45.8561246 51.7494032,43.1683333 C49.5033446,40.4805421 48.3803321,36.9078001 48.3803321,32.45 L48.3803321,13.9633333 C48.3803321,13.5262941 48.5207087,13.1657422 48.801466,12.8816667 C49.0822233,12.5975912 49.4385638,12.4555556 49.8704982,12.4555556 L53.1099896,12.4555556 C53.5419239,12.4555556 53.8982644,12.5975912 54.1790218,12.8816667 C54.4597791,13.1657422 54.6001557,13.5262941 54.6001557,13.9633333 L54.6001557,32.1222222 C54.6001557,38.6341066 57.4076868,41.89 63.0228334,41.89 C65.7440198,41.89 67.9036591,41.0268605 69.5018162,39.3005556 C71.0999733,37.5742506 71.8990399,35.1814968 71.8990399,32.1222222 L71.8990399,13.9633333 C71.8990399,13.5262941 72.0394164,13.1657422 72.3201738,12.8816667 C72.6009311,12.5975912 72.9572716,12.4555556 73.3892059,12.4555556 L76.6286974,12.4555556 C77.0606317,12.4555556 77.406174,12.5975912 77.6653346,12.8816667 C77.9244952,13.1657422 78.0540736,13.5262941 78.0540736,13.9633333 L78.0540736,45.0366667 C78.0540736,45.4737059 77.9244952,45.8342578 77.6653346,46.1183333 C77.406174,46.4024088 77.0606317,46.5444444 76.6286974,46.5444444 L73.5835754,46.5444444 C73.1516411,46.5444444 72.7953006,46.4024088 72.5145432,46.1183333 C72.2337859,45.8342578 72.0934094,45.4737059 72.0934094,45.0366667 L72.0934094,42.1522222 C70.8839932,43.8129713 69.4154384,45.0694402 67.687701,45.9216667 C65.9599636,46.7738932 63.8219207,47.2 61.273508,47.2 Z M97.1494032,46.5444444 C96.7174688,46.5444444 96.3611284,46.4024088 96.080371,46.1183333 C95.7996137,45.8342578 95.6592371,45.4737059 95.6592371,45.0366667 L95.6592371,14.0288889 C95.6592371,13.5918497 95.7996137,13.2203719 96.080371,12.9144444 C96.3611284,12.608517 96.7174688,12.4555556 97.1494032,12.4555556 L100.129735,12.4555556 C100.56167,12.4555556 100.928808,12.608517 101.231162,12.9144444 C101.533516,13.2203719 101.684691,13.5918497 101.684691,14.0288889 L101.684691,16.9133333 C103.455622,13.9414666 106.479117,12.4555556 110.755267,12.4555556 L113.282071,12.4555556 C113.714005,12.4555556 114.070345,12.5975912 114.351103,12.8816667 C114.63186,13.1657422 114.772237,13.5262941 114.772237,13.9633333 L114.772237,16.6511111 C114.772237,17.0881503 114.63186,17.4377765 114.351103,17.7 C114.070345,17.9622235 113.714005,18.0933333 113.282071,18.0933333 L109.394681,18.0933333 C107.062235,18.0933333 105.226542,18.7816598 103.887545,20.1583333 C102.548549,21.5350069 101.879061,23.4033215 101.879061,25.7633333 L101.879061,45.0366667 C101.879061,45.4737059 101.727886,45.8342578 101.425532,46.1183333 C101.123178,46.4024088 100.756039,46.5444444 100.324105,46.5444444 L97.1494032,46.5444444 Z M129.785807,59 C129.353873,59 128.997532,58.8579644 128.716775,58.5738889 C128.436017,58.2898134 128.295641,57.9292614 128.295641,57.4922222 L128.295641,13.9633333 C128.295641,13.5262941 128.436017,13.1657422 128.716775,12.8816667 C128.997532,12.5975912 129.353873,12.4555556 129.785807,12.4555556 L132.766139,12.4555556 C133.198073,12.4555556 133.554414,12.5975912 133.835171,12.8816667 C134.115929,13.1657422 134.256305,13.5262941 134.256305,13.9633333 L134.256305,16.8477778 C136.675138,13.4825758 140.216946,11.8 144.881837,11.8 C149.417148,11.8 152.81858,13.2422078 155.086235,16.1266667 C157.35389,19.0111255 158.574087,22.7259032 158.74686,27.2711111 C158.790054,27.7518543 158.81165,28.4948098 158.81165,29.5 C158.81165,30.5051902 158.790054,31.2481457 158.74686,31.7288889 C158.574087,36.2303929 157.343092,39.9342447 155.05384,42.8405556 C152.764588,45.7468664 149.373954,47.2 144.881837,47.2 C140.38972,47.2 136.891104,45.5611275 134.385885,42.2833333 L134.385885,57.4922222 C134.385885,57.9292614 134.256306,58.2898134 133.997146,58.5738889 C133.737985,58.8579644 133.392443,59 132.960509,59 L129.785807,59 Z M143.521251,41.89 C146.587985,41.89 148.823211,40.9285281 150.226998,39.0055556 C151.630785,37.082583 152.397456,34.5477935 152.527037,31.4011111 C152.57023,30.9640719 152.591827,30.3303745 152.591827,29.5 C152.591827,21.2399587 149.568332,17.11 143.521251,17.11 C140.540904,17.11 138.305677,18.1042493 136.815503,20.0927778 C135.32533,22.0813062 134.515465,24.4522085 134.385885,27.2055556 L134.321095,29.6966667 L134.385885,32.2533333 C134.472272,34.8318647 135.292935,37.082583 136.847898,39.0055556 C138.402862,40.9285281 140.62729,41.89 143.521251,41.89 Z M176.352024,46.5444444 C175.92009,46.5444444 175.563749,46.4024088 175.282992,46.1183333 C175.002234,45.8342578 174.861858,45.4737059 174.861858,45.0366667 L174.861858,1.50777778 C174.861858,1.07073856 175.002234,0.710186606 175.282992,0.426111111 C175.563749,0.142035617 175.92009,0 176.352024,0 L179.397146,0 C179.82908,0 180.185421,0.142035617 180.466178,0.426111111 C180.746935,0.710186606 180.887312,1.07073856 180.887312,1.50777778 L180.887312,45.0366667 C180.887312,45.4737059 180.746935,45.8342578 180.466178,46.1183333 C180.185421,46.4024088 179.82908,46.5444444 179.397146,46.5444444 L176.352024,46.5444444 Z M211.96876,47.2 C207.519836,47.2 203.967229,45.8124213 201.310833,43.0372222 C198.654437,40.2620232 197.19668,36.4707648 196.93752,31.6633333 L196.87273,29.4344444 L196.93752,27.2711111 C197.239874,22.5510875 198.719227,18.7926066 201.375623,15.9955556 C204.032019,13.1985045 207.541433,11.8 211.90397,11.8 C216.698441,11.8 220.413021,13.3405401 223.04782,16.4216667 C225.68262,19.5027932 227,23.6655293 227,28.91 L227,30.0244444 C227,30.4614837 226.859623,30.8220356 226.578866,31.1061111 C226.298109,31.3901866 225.941768,31.5322222 225.509834,31.5322222 L203.092553,31.5322222 L203.092553,32.1222222 C203.222134,34.9629772 204.075191,37.3775826 205.651751,39.3661111 C207.228312,41.3546396 209.312364,42.3488889 211.90397,42.3488889 C213.890868,42.3488889 215.521396,41.9446337 216.795602,41.1361111 C218.069808,40.3275885 219.009251,39.4863007 219.61396,38.6122222 C220.0027,38.0877752 220.294252,37.7709265 220.488622,37.6616667 C220.682993,37.5524069 221.039333,37.4977778 221.557654,37.4977778 L224.732356,37.4977778 C225.121097,37.4977778 225.445043,37.6070359 225.704203,37.8255556 C225.963364,38.0440752 226.092942,38.349998 226.092942,38.7433333 C226.092942,39.7048196 225.499042,40.8629562 224.311222,42.2177778 C223.123403,43.5725994 221.46048,44.7416617 219.322405,45.725 C217.18433,46.7083382 214.73314,47.2 211.96876,47.2 Z M220.844966,27.0088889 L220.844966,26.8122222 C220.844966,23.7966516 220.035102,21.3383428 218.415348,19.4372222 C216.795594,17.5361016 214.625156,16.5855556 211.90397,16.5855556 C209.182784,16.5855556 207.033942,17.5361016 205.457382,19.4372222 C203.880822,21.3383428 203.092553,23.7966516 203.092553,26.8122222 L203.092553,27.0088889 L220.844966,27.0088889 Z" id="Purple" fill="#A3A3A3"></path>
                                    <path d="M349.756195,52.3472222 C349.279201,52.3472222 348.867258,52.1731499 348.520354,51.825 C348.17345,51.4768501 348,51.0634283 348,50.5847222 L348,8.41527778 C348,7.93657168 348.17345,7.52314989 348.520354,7.175 C348.867258,6.82685011 349.279201,6.65277778 349.756195,6.65277778 L371.350885,6.65277778 C377.508438,6.65277778 382.050649,7.78424794 384.977655,10.0472222 C387.904661,12.3101965 389.368142,15.7481251 389.368142,20.3611111 C389.368142,22.2324168 388.826112,23.8969835 387.742035,25.3548611 C386.657959,26.8127388 385.465493,27.8680523 384.164602,28.5208333 C385.899124,29.2171331 387.362605,30.446519 388.555088,32.2090278 C389.747572,33.9715366 390.343805,35.8972118 390.343805,37.9861111 C390.343805,42.8166908 388.782759,46.4178122 385.660619,48.7895833 C382.53848,51.1613545 377.985428,52.3472222 372.001327,52.3472222 L349.756195,52.3472222 Z M369.724779,23.8208333 C370.59204,23.8208333 371.253316,23.5270863 371.708628,22.9395833 C372.16394,22.3520804 372.391593,21.6666706 372.391593,20.8833333 C372.391593,20.0999961 372.16394,19.4037067 371.708628,18.7944444 C371.253316,18.1851821 370.59204,17.8805556 369.724779,17.8805556 L364.261062,17.8805556 L364.261062,23.8208333 L369.724779,23.8208333 Z M370.310177,41.1194444 C371.307527,41.1194444 372.055528,40.7930588 372.554204,40.1402778 C373.052879,39.4874967 373.302212,38.7476893 373.302212,37.9208333 C373.302212,37.0939773 373.031197,36.3541699 372.489159,35.7013889 C371.947121,35.0486078 371.220801,34.7222222 370.310177,34.7222222 L364.261062,34.7222222 L364.261062,41.1194444 L370.310177,41.1194444 Z M413.044248,53 C401.119409,53 394.831862,48.1477337 394.181416,38.4430556 C394.138053,37.7902745 394.116372,36.7675996 394.116372,35.375 C394.116372,33.9824004 394.138053,32.9597255 394.181416,32.3069444 C394.484957,27.5634022 396.284497,23.9514013 399.580088,21.4708333 C402.87568,18.9902654 407.363688,17.75 413.044248,17.75 C418.724807,17.75 423.212815,18.9902654 426.508407,21.4708333 C429.803999,23.9514013 431.603538,27.5634022 431.90708,32.3069444 C431.993806,33.6125065 432.037168,34.6351815 432.037168,35.375 C432.037168,36.1148185 431.993806,37.1374935 431.90708,38.4430556 C431.256634,48.1477337 424.969086,53 413.044248,53 Z M413.044248,42.5555556 C414.21505,42.5555556 414.973892,42.2400495 415.320796,41.6090278 C415.667701,40.9780061 415.884513,39.8138974 415.971239,38.1166667 C416.014602,37.6814793 416.036283,36.7675996 416.036283,35.375 C416.036283,33.9824004 416.014602,33.0685207 415.971239,32.6333333 C415.84115,30.9796214 415.602657,29.8263922 415.255752,29.1736111 C414.908848,28.5208301 414.171687,28.1944444 413.044248,28.1944444 C411.916809,28.1944444 411.179648,28.5208301 410.832743,29.1736111 C410.485839,29.8263922 410.247346,30.9796214 410.117257,32.6333333 L410.052212,35.375 L410.117257,38.1166667 C410.203983,39.8138974 410.420795,40.9780061 410.767699,41.6090278 C411.114604,42.2400495 411.873445,42.5555556 413.044248,42.5555556 Z M438.606637,52.3472222 C438.129644,52.3472222 437.717701,52.1731499 437.370796,51.825 C437.023892,51.4768501 436.850442,51.0634283 436.850442,50.5847222 L436.850442,7.7625 C436.850442,7.2837939 437.023892,6.87037211 437.370796,6.52222222 C437.717701,6.17407233 438.129644,6 438.606637,6 L450.249558,6 C450.726551,6 451.138494,6.17407233 451.485398,6.52222222 C451.832303,6.87037211 452.005752,7.2837939 452.005752,7.7625 L452.005752,50.5847222 C452.005752,51.0634283 451.832303,51.4768501 451.485398,51.825 C451.138494,52.1731499 450.726551,52.3472222 450.249558,52.3472222 L438.606637,52.3472222 Z M470.80354,53 C466.770776,53 463.518596,51.7814937 461.046903,49.3444444 C458.575209,46.9073952 457.230975,43.0995629 457.014159,37.9208333 L456.949115,35.3097222 L457.014159,32.7638889 C457.187611,27.8462717 458.542686,24.1145961 461.079425,21.56875 C463.616163,19.0229039 466.857502,17.75 470.80354,17.75 C474.315947,17.75 477.199546,18.772675 479.454425,20.8180556 L479.454425,7.7625 C479.454425,7.2837939 479.627874,6.87037211 479.974779,6.52222222 C480.321683,6.17407233 480.733626,6 481.210619,6 L493.243805,6 C493.720799,6 494.132742,6.17407233 494.479646,6.52222222 C494.82655,6.87037211 495,7.2837939 495,7.7625 L495,50.5847222 C495,51.0634283 494.82655,51.4768501 494.479646,51.825 C494.132742,52.1731499 493.720799,52.3472222 493.243805,52.3472222 L482.186283,52.3472222 C481.70929,52.3472222 481.297347,52.1731499 480.950442,51.825 C480.603538,51.4768501 480.430088,51.0634283 480.430088,50.5847222 L480.430088,49.0833333 C478.131847,51.6944575 474.923029,53 470.80354,53 Z M476.202212,41.3152778 C477.329652,41.3152778 478.131856,40.9997717 478.60885,40.36875 C479.085843,39.7377283 479.367699,38.79121 479.454425,37.5291667 C479.541151,36.2236046 479.584513,35.41852 479.584513,35.1138889 C479.584513,34.8092577 479.541151,34.0041732 479.454425,32.6986111 C479.367699,31.6106427 479.075002,30.7946786 478.576327,30.2506944 C478.077652,29.7067102 477.286289,29.4347222 476.202212,29.4347222 C475.074773,29.4347222 474.283409,29.7393488 473.828097,30.3486111 C473.372785,30.9578734 473.080089,31.9152712 472.95,33.2208333 C472.906637,33.6560207 472.884956,34.3740691 472.884956,35.375 C472.884956,36.3759309 472.906637,37.0939793 472.95,37.5291667 C473.080089,38.8347287 473.372785,39.7921266 473.828097,40.4013889 C474.283409,41.0106512 475.074773,41.3152778 476.202212,41.3152778 Z" id="Bold" fill="#A3A3A3"></path>
                                    <path d="M280.596654,47 C280.119576,47 279.707561,46.8252202 279.360595,46.4756554 C279.013629,46.1260906 278.840149,45.7109887 278.840149,45.2303371 L278.840149,34.6779026 L268.756506,34.6779026 C268.279428,34.6779026 267.867412,34.5031228 267.520446,34.1535581 C267.17348,33.8039933 267,33.3888913 267,32.9082397 L267,25.7640449 C267,25.2833934 267.17348,24.8682914 267.520446,24.5187266 C267.867412,24.1691618 268.279428,23.994382 268.756506,23.994382 L278.840149,23.994382 L278.840149,13.7696629 C278.840149,13.2890113 279.013629,12.8739094 279.360595,12.5243446 C279.707561,12.1747798 280.119576,12 280.596654,12 L288.533457,12 C289.010535,12 289.422551,12.1747798 289.769517,12.5243446 C290.116483,12.8739094 290.289963,13.2890113 290.289963,13.7696629 L290.289963,23.994382 L300.243494,23.994382 C300.720572,23.994382 301.132588,24.1691618 301.479554,24.5187266 C301.82652,24.8682914 302,25.2833934 302,25.7640449 L302,32.9082397 C302,33.3888913 301.82652,33.8039933 301.479554,34.1535581 C301.132588,34.5031228 300.720572,34.6779026 300.243494,34.6779026 L290.289963,34.6779026 L290.289963,45.2303371 C290.289963,45.7109887 290.116483,46.1260906 289.769517,46.4756554 C289.422551,46.8252202 289.010535,47 288.533457,47 L280.596654,47 Z" id="+" fill="url(#linearGradient-1)"></path>
                                </g>
                            </g>
                        </g>
                    </g>
                </g>
            </g>
        </g>
    </g>
</svg>