<?xml version="1.0" encoding="UTF-8"?>
<svg width="8357px" height="6116px" viewBox="0 0 8357 6116" version="1.1" xmlns="http://www.w3.org/2000/svg" xmlns:xlink="http://www.w3.org/1999/xlink">
    <!-- Generator: Sketch 52.6 (67491) - http://www.bohemiancoding.com/sketch -->
    <title>Group</title>
    <desc>Created with Sketch.</desc>
    <defs>
        <polygon id="path-1" points="0.0276124353 0.0199867741 976.200782 0.0199867741 976.200782 334.909759 0.0276124353 334.909759"></polygon>
        <polygon id="path-3" points="0.0276124353 0.481561533 976.200782 0.481561533 976.200782 335.391014 0.0276124353 335.391014"></polygon>
        <polygon id="path-5" points="0.0276124353 0.982495728 976.200782 0.982495728 976.200782 335.872268 0.0276124353 335.872268"></polygon>
        <linearGradient x1="0%" y1="50.0004983%" x2="100%" y2="50.0004983%" id="linearGradient-7">
            <stop stop-color="#BC56D1" offset="0%"></stop>
            <stop stop-color="#4F2EE6" offset="100%"></stop>
        </linearGradient>
        <path d="M20.9459828,17.1080871 L0.0812868778,1076.96294 L172.048032,1076.96294 L246.39079,140.920239 L300.517191,1076.96294 L490.833867,1076.96294 L455.155629,0.629987097 C310.419081,23.7032645 165.682532,29.3534613 20.9459828,17.1080871" id="path-8"></path>
        <linearGradient x1="49.9975684%" y1="91.2595841%" x2="49.9975684%" y2="12.3299378%" id="linearGradient-10">
            <stop stop-color="#F477B6" offset="0%"></stop>
            <stop stop-color="#FF8262" offset="100%"></stop>
        </linearGradient>
        <path d="M335.649237,0.00878923767 C304.25193,0.00878923767 273.051595,6.14945291 265.842427,13.8843274 L4.38204349,294.93778 C-9.36658899,309.718673 15.5503452,322 60.3811297,322 L802.90577,322 C823.469627,292.949937 847.69716,265.907399 870.900439,240.419709 C884.767255,225.186139 899.737112,211.035058 913.879689,196.077031 C916.538808,193.321605 918.961561,190.408726 921.561589,187.633619 C946.734587,140.063157 992.747202,92.1581076 1025.36573,53.1688296 C1041.6947,33.6840314 1059.77671,16.403574 1078.62691,0.00878923767 L335.649237,0.00878923767 Z" id="path-11"></path>
        <linearGradient x1="166.614148%" y1="49.9978588%" x2="15.8224086%" y2="49.9978588%" id="linearGradient-13">
            <stop stop-color="#FFFFFF" offset="0%"></stop>
            <stop stop-color="#FFFFFF" offset="100%"></stop>
        </linearGradient>
        <path d="M335.334583,0.00878923767 C303.925207,0.00878923767 272.732448,6.14945291 265.544723,13.8843274 L4.14782465,294.93778 C-9.59746952,309.718673 15.2937222,322 60.1136213,322 L1900.32888,322 C1945.14878,322 1970.07935,309.718673 1956.31437,294.93778 L1694.93716,13.8843274 C1687.74944,6.14945291 1656.55668,0.00878923767 1625.12761,0.00878923767 L335.334583,0.00878923767 Z" id="path-14"></path>
        <linearGradient x1="91.6296086%" y1="49.9984707%" x2="8.70096277%" y2="49.9984707%" id="linearGradient-16">
            <stop stop-color="#FFFFFF" offset="0%"></stop>
            <stop stop-color="#FFFFFF" offset="100%"></stop>
        </linearGradient>
        <path d="M78.785107,0.681529148 C35.2772275,0.681529148 0.00216536118,35.9313004 0.00216536118,79.4276682 L0.00216536118,244.241507 C0.00216536118,287.737874 35.2772275,322.987646 78.785107,322.987646 L1584.18925,322.987646 C1627.69713,322.987646 1662.97219,287.737874 1662.97219,244.241507 L1662.97219,79.4276682 C1662.97219,35.9313004 1627.69713,0.681529148 1584.18925,0.681529148 L78.785107,0.681529148 Z" id="path-17"></path>
        <linearGradient x1="49.9997567%" y1="99.9958183%" x2="49.9997567%" y2="0.00192476795%" id="linearGradient-19">
            <stop stop-color="#FFFFFF" offset="0%"></stop>
            <stop stop-color="#FFFFFF" offset="100%"></stop>
        </linearGradient>
        <path d="M79.4379899,0.504394619 C35.9721154,0.504394619 0.715149189,35.7541659 0.715149189,79.230852 L0.715149189,244.064372 C0.715149189,287.56074 35.9721154,322.79083 79.4379899,322.79083 L1584.08955,322.79083 C1627.57512,322.79083 1662.83208,287.56074 1662.83208,244.064372 L1662.83208,79.230852 C1662.83208,35.7541659 1627.57512,0.504394619 1584.08955,0.504394619 L79.4379899,0.504394619 Z" id="path-20"></path>
        <linearGradient x1="49.9999216%" y1="100.001163%" x2="49.9999216%" y2="0.00116274809%" id="linearGradient-22">
            <stop stop-color="#FFFFFF" offset="0%"></stop>
            <stop stop-color="#FFFFFF" offset="100%"></stop>
        </linearGradient>
    </defs>
    <g id="Page-1" stroke="none" stroke-width="1" fill="none" fill-rule="evenodd">
        <g id="Group">
            <g id="Group-54" transform="translate(0.000000, 713.000000)">
                <path d="M7691.22957,5047.95867 L75.4617295,5047.95867 C33.783545,5047.95867 0,5014.18828 0,4972.52631 C0,4930.88403 33.783545,4897.11363 75.4617295,4897.11363 L7691.22957,4897.11363 C7732.88807,4897.11363 7766.67161,4930.88403 7766.67161,4972.52631 C7766.67161,5014.18828 7732.88807,5047.95867 7691.22957,5047.95867" id="Fill-1" fill="#CFDDF4"></path>
                <path d="M7701.6501,1928.59928 L7686.90425,1588.94702 C7791.46393,1618.3682 7903.34731,1628.70005 8011.19478,1611.20478 C8007.41481,1635.60763 8002.49296,1659.75465 7996.94112,1683.78358 C7848.32109,1650.20998 7765.4569,1788.87328 7701.6501,1928.59928" id="Fill-3" fill="#4836F6"></path>
                <path d="M7996.94112,1683.77571 C7974.10376,1782.58758 7936.46149,1877.79806 7884.25056,1965.78608 L7715.62814,2250.15801 L7701.6501,1928.59141 C7765.4569,1788.86541 7848.32109,1650.20211 7996.94112,1683.77571" id="Fill-5" fill="#7736F6"></path>
                <g id="Group-9" transform="translate(7380.009440, 2036.146669)">
                    <mask id="mask-2" fill="white">
                        <use xlink:href="#path-1"></use>
                    </mask>
                    <g id="Clip-8"></g>
                    <path d="M68.9334442,334.909759 L907.300856,334.909759 C945.356563,334.909759 976.206688,304.07164 976.206688,266.030744 L976.206688,68.8793224 C976.206688,30.8581059 945.356563,0.0199867741 907.300856,0.0199867741 L68.9334442,0.0199867741 C30.8777377,0.0199867741 0.0276124353,30.8581059 0.0276124353,68.8793224 L0.0276124353,266.030744 C0.0276124353,304.07164 30.8777377,334.909759 68.9334442,334.909759" id="Fill-7" fill="#F577B6" mask="url(#mask-2)"></path>
                </g>
                <path d="M8099.74272,2309.11451 L8250.13462,2309.11451 C8273.2476,2309.11451 8291.9703,2290.3991 8291.9703,2267.29511 L8291.9703,2144.51335 C8291.9703,2121.40936 8273.2476,2102.69395 8250.13462,2102.69395 L8099.74272,2102.69395 C8076.62973,2102.69395 8057.90703,2121.40936 8057.90703,2144.51335 L8057.90703,2267.29511 C8057.90703,2290.3991 8076.62973,2309.11451 8099.74272,2309.11451" id="Fill-10" fill="#FFFFFF"></path>
                <path d="M7518.25231,2148.16 L7951.8078,2148.16 C7961.21837,2148.16 7968.85707,2155.79573 7968.85707,2165.20264 C7968.85707,2174.62922 7961.21837,2182.24527 7951.8078,2182.24527 L7518.25231,2182.24527 C7508.84174,2182.24527 7501.22272,2174.62922 7501.22272,2165.20264 C7501.22272,2155.79573 7508.84174,2148.16 7518.25231,2148.16" id="Fill-12" fill="#001D47"></path>
                <path d="M7741.15874,2224.95813 L7951.81371,2224.95813 C7961.22428,2224.95813 7968.84329,2232.59386 7968.84329,2242.00077 C7968.84329,2251.42735 7961.22428,2259.04341 7951.81371,2259.04341 L7741.15874,2259.04341 C7731.72848,2259.04341 7724.10946,2251.42735 7724.10946,2242.00077 C7724.10946,2232.59386 7731.72848,2224.95813 7741.15874,2224.95813" id="Fill-14" fill="#001D47"></path>
                <g id="Group-18" transform="translate(7380.009440, 2499.772220)">
                    <mask id="mask-4" fill="white">
                        <use xlink:href="#path-3"></use>
                    </mask>
                    <g id="Clip-17"></g>
                    <path d="M68.9334442,335.391014 L907.300856,335.391014 C945.356563,335.391014 976.206688,304.552895 976.206688,266.511998 L976.206688,69.3605769 C976.206688,31.3393604 945.356563,0.481561533 907.300856,0.481561533 L68.9334442,0.481561533 C30.8777377,0.481561533 0.0276124353,31.3393604 0.0276124353,69.3605769 L0.0276124353,266.511998 C0.0276124353,304.552895 30.8777377,335.391014 68.9334442,335.391014" id="Fill-16" fill="#FFFFFF" mask="url(#mask-4)"></path>
                </g>
                <path d="M8099.74272,2773.22132 L8250.13462,2773.22132 C8273.2476,2773.22132 8291.9703,2754.50591 8291.9703,2731.40192 L8291.9703,2608.62015 C8291.9703,2585.51616 8273.2476,2566.80075 8250.13462,2566.80075 L8099.74272,2566.80075 C8076.62973,2566.80075 8057.90703,2585.51616 8057.90703,2608.62015 L8057.90703,2731.40192 C8057.90703,2754.50591 8076.62973,2773.22132 8099.74272,2773.22132" id="Fill-19" fill="#E0E9F8"></path>
                <path d="M7518.25231,2612.2668 L7951.8078,2612.2668 C7961.21837,2612.2668 7968.85707,2619.90254 7968.85707,2629.30944 C7968.85707,2638.73603 7961.21837,2646.35208 7951.8078,2646.35208 L7518.25231,2646.35208 C7508.84174,2646.35208 7501.22272,2638.73603 7501.22272,2629.30944 C7501.22272,2619.90254 7508.84174,2612.2668 7518.25231,2612.2668" id="Fill-21" fill="#001D47"></path>
                <path d="M7741.15874,2689.06494 L7951.81371,2689.06494 C7961.22428,2689.06494 7968.84329,2696.70067 7968.84329,2706.10757 C7968.84329,2715.53416 7961.22428,2723.15021 7951.81371,2723.15021 L7741.15874,2723.15021 C7731.72848,2723.15021 7724.10946,2715.53416 7724.10946,2706.10757 C7724.10946,2696.70067 7731.72848,2689.06494 7741.15874,2689.06494" id="Fill-23" fill="#001D47"></path>
                <g id="Group-27" transform="translate(7380.009440, 2963.397771)">
                    <mask id="mask-6" fill="white">
                        <use xlink:href="#path-5"></use>
                    </mask>
                    <g id="Clip-26"></g>
                    <path d="M68.9334442,335.872268 L907.300856,335.872268 C945.356563,335.872268 976.206688,305.034149 976.206688,266.993253 L976.206688,69.8615111 C976.206688,31.8206149 945.356563,0.982495728 907.300856,0.982495728 L68.9334442,0.982495728 C30.8777377,0.982495728 0.0276124353,31.8206149 0.0276124353,69.8615111 L0.0276124353,266.993253 C0.0276124353,305.034149 30.8777377,335.872268 68.9334442,335.872268" id="Fill-25" fill="#7736F6" mask="url(#mask-6)"></path>
                </g>
                <path d="M8099.74272,3237.3478 L8250.13462,3237.3478 C8273.2476,3237.3478 8291.9703,3218.61271 8291.9703,3195.5284 L8291.9703,3072.72696 C8291.9703,3049.62297 8273.2476,3030.90756 8250.13462,3030.90756 L8099.74272,3030.90756 C8076.62973,3030.90756 8057.90703,3049.62297 8057.90703,3072.72696 L8057.90703,3195.5284 C8057.90703,3218.61271 8076.62973,3237.3478 8099.74272,3237.3478" id="Fill-28" fill="#FFFFFF"></path>
                <path d="M7518.25231,3076.39329 L7951.8078,3076.39329 C7961.21837,3076.39329 7968.85707,3084.02902 7968.85707,3093.41625 C7968.85707,3102.84283 7961.21837,3110.45888 7951.8078,3110.45888 L7518.25231,3110.45888 C7508.84174,3110.45888 7501.22272,3102.84283 7501.22272,3093.41625 C7501.22272,3084.02902 7508.84174,3076.39329 7518.25231,3076.39329" id="Fill-30" fill="#001D47"></path>
                <path d="M7741.15874,3153.19142 L7951.81371,3153.19142 C7961.22428,3153.19142 7968.84329,3160.82715 7968.84329,3170.21438 C7968.84329,3179.64097 7961.22428,3187.25702 7951.81371,3187.25702 L7741.15874,3187.25702 C7731.72848,3187.25702 7724.10946,3179.64097 7724.10946,3170.21438 C7724.10946,3160.82715 7731.72848,3153.19142 7741.15874,3153.19142" id="Fill-32" fill="#001D47"></path>
                <path d="M604.502987,3495.41386 L940.369699,3732.27895 C966.435791,3750.67949 976.299168,3784.66636 964.092992,3814.1269 C948.599024,3851.53805 904.144919,3867.3015 868.530447,3848.07442 L541.582119,3671.35054 L604.502987,3495.41386 Z" id="Fill-34" fill="#FF9272"></path>
                <path d="M7609.17257,4815.05117 L836.713672,4815.05117 C749.734825,4815.05117 679.214628,4744.55842 679.214628,4657.61342 L679.214628,157.648951 C679.214628,70.7039536 749.734825,0.211201328 836.713672,0.211201328 L7609.17257,0.211201328 C7696.15142,0.211201328 7766.67161,70.7039536 7766.67161,157.648951 L7766.67161,4657.61342 C7766.67161,4744.55842 7696.15142,4815.05117 7609.17257,4815.05117" id="Fill-36" fill="#CEDFE7"></path>
                <path d="M7463.63164,2814.38735 L6235.98565,2814.38735 C6206.08052,2814.38735 6181.84536,2790.1813 6181.84536,2760.26813 L6181.84536,1973.09906 C6181.84536,1943.20557 6206.08052,1918.97984 6235.98565,1918.97984 L7463.63164,1918.97984 C7493.53677,1918.97984 7517.77194,1943.20557 7517.77194,1973.09906 L7517.77194,2760.26813 C7517.77194,2790.1813 7493.53677,2814.38735 7463.63164,2814.38735" id="Fill-38" fill="#FFFFFF"></path>
                <path d="M7374.28834,2675.16909 L6325.30533,2675.16909 C6307.21263,2675.16909 6292.54553,2660.5077 6292.54553,2642.42204 L6292.54553,2420.69065 C6292.54553,2402.60499 6307.21263,2387.9436 6325.30533,2387.9436 L7374.28834,2387.9436 C7392.40073,2387.9436 7407.06783,2402.60499 7407.06783,2420.69065 L7407.06783,2642.42204 C7407.06783,2660.5077 7392.40073,2675.16909 7374.28834,2675.16909" id="Fill-40" fill="#E0E9F8"></path>
                <path d="M7235.16943,2014.9775 C7248.18279,2014.9775 7258.73523,2025.52583 7258.73523,2038.53413 C7258.73523,2051.54242 7248.18279,2062.11043 7235.16943,2062.11043 C7222.15607,2062.11043 7211.60364,2051.54242 7211.60364,2038.53413 C7211.60364,2025.52583 7222.15607,2014.9775 7235.16943,2014.9775" id="Fill-42" fill="#C2C9E9"></path>
                <path d="M7321.12847,2014.9775 C7334.14183,2014.9775 7344.67458,2025.52583 7344.67458,2038.53413 C7344.67458,2051.54242 7334.14183,2062.11043 7321.12847,2062.11043 C7308.09543,2062.11043 7297.56268,2051.54242 7297.56268,2038.53413 C7297.56268,2025.52583 7308.09543,2014.9775 7321.12847,2014.9775" id="Fill-44" fill="#C2C9E9"></path>
                <path d="M7407.06979,2014.9775 C7420.08315,2014.9775 7430.63559,2025.52583 7430.63559,2038.53413 C7430.63559,2051.54242 7420.08315,2062.11043 7407.06979,2062.11043 C7394.05644,2062.11043 7383.504,2051.54242 7383.504,2038.53413 C7383.504,2025.52583 7394.05644,2014.9775 7407.06979,2014.9775" id="Fill-46" fill="#C2C9E9"></path>
                <path d="M6477.89828,2202.70234 C6477.89828,2251.82292 6438.07071,2291.65467 6388.91132,2291.65467 C6339.77162,2291.65467 6299.94405,2251.82292 6299.94405,2202.70234 C6299.94405,2153.58176 6339.77162,2113.75001 6388.91132,2113.75001 C6438.07071,2113.75001 6477.89828,2153.58176 6477.89828,2202.70234" id="Fill-48" fill="#A4B5E9"></path>
                <path d="M7386.53586,2256.99475 L6582.0898,2256.99475 C6574.84485,2256.99475 6568.95832,2251.11051 6568.95832,2243.86837 L6568.95832,2158.59615 C6568.95832,2151.35402 6574.84485,2145.46978 6582.0898,2145.46978 L7386.53586,2145.46978 C7393.78081,2145.46978 7399.66734,2151.35402 7399.66734,2158.59615 L7399.66734,2243.86837 C7399.66734,2251.11051 7393.78081,2256.99475 7386.53586,2256.99475" id="Fill-50" fill="#E0E9F8"></path>
                <path d="M7766.67161,393.811479 L7766.67161,157.654855 C7766.67161,70.7098575 7696.15142,0.217105244 7609.17257,0.217105244 L836.713672,0.217105244 C749.734825,0.217105244 679.214628,70.7098575 679.214628,157.654855 L679.214628,393.811479 L7766.67161,393.811479 Z" id="Fill-52" fill="#272727"></path>
            </g>
            <polygon id="Fill-55" fill="url(#linearGradient-7)" points="679 2435 7766 2435 7766 1629 679 1629"></polygon>
            <g id="Group-163" transform="translate(810.000000, 1208.000000)">
                <path d="M6375.13709,323.00725 L491.854329,323.00725 C448.36953,323.00725 413.11318,287.76406 413.11318,244.295491 L413.11318,79.4927444 C413.11318,36.0241753 448.36953,0.780985076 491.854329,0.780985076 L6375.13709,0.780985076 C6418.62189,0.780985076 6453.87824,36.0241753 6453.87824,79.4927444 L6453.87824,244.295491 C6453.87824,287.76406 6418.62189,323.00725 6375.13709,323.00725" id="Fill-57" fill="#FFFFFF"></path>
                <path d="M6835.39683,63.5044183 L6578.5432,63.5044183" id="Stroke-59" stroke="#8DAEE6" stroke-width="1.5" stroke-linecap="round" stroke-linejoin="round"></path>
                <path d="M6835.39683,161.894118 L6578.5432,161.894118" id="Stroke-61" stroke="#8DAEE6" stroke-width="1.5" stroke-linecap="round" stroke-linejoin="round"></path>
                <path d="M6835.39683,260.283817 L6578.5432,260.283817" id="Stroke-63" stroke="#8DAEE6" stroke-width="1.5" stroke-linecap="round" stroke-linejoin="round"></path>
                <path d="M123.635125,34.5640722 L7.1769649,120.418924 C2.76746055,125.180985 0.306799634,131.43857 0.306799634,137.93229 L0.306799634,279.613457 C0.306799634,288.901445 7.84626467,296.438096 17.1377203,296.438096 L85.5834643,296.438096 C94.8749199,296.438096 102.414385,288.901445 102.414385,279.613457 L102.414385,189.724628 C102.414385,170.381213 115.544472,152.139763 134.698256,149.443885 C158.005636,146.157669 177.966518,164.162984 177.966518,186.812293 L177.966518,279.613457 C177.966518,288.901445 185.505983,296.438096 194.797438,296.438096 L263.262867,296.438096 C272.534638,296.438096 280.074103,288.901445 280.074103,279.613457 L280.074103,137.93229 C280.074103,131.43857 277.613442,125.180985 273.203938,120.418924 L156.745778,34.5640722 C147.808657,24.9612376 132.59193,24.9612376 123.635125,34.5640722 Z" id="Stroke-65" stroke="#8DAEE6" stroke-width="1.5" stroke-linecap="round" stroke-linejoin="round"></path>
                <path d="M657.541456,155.715244 C657.541456,199.400271 622.107938,234.820563 578.406601,234.820563 C534.705263,234.820563 499.271746,199.400271 499.271746,155.715244 C499.271746,112.030218 534.705263,76.6099263 578.406601,76.6099263 C622.107938,76.6099263 657.541456,112.030218 657.541456,155.715244 Z" id="Stroke-67" stroke="#E0E9F8" stroke-width="1.5" stroke-linecap="round" stroke-linejoin="round"></path>
                <path d="M655.360326,247.16847 L628.982041,216.549595" id="Stroke-69" stroke="#E0E9F8" stroke-width="1.5" stroke-linecap="round" stroke-linejoin="round"></path>
                <path d="M5169.41324,982.218235 L1655.58946,982.218235 C1631.12065,982.218235 1611.29756,962.402549 1611.29756,937.94287 L1611.29756,711.646562 C1611.29756,687.186883 1631.12065,667.371197 1655.58946,667.371197 L5169.41324,667.371197 C5193.86237,667.371197 5213.70514,687.186883 5213.70514,711.646562 L5213.70514,937.94287 C5213.70514,962.402549 5193.86237,982.218235 5169.41324,982.218235" id="Fill-71" fill="#FFFFFF"></path>
                <path d="M5169.41324,667.371197 L4869.21261,667.371197 L4869.21261,982.218235 L5169.41324,982.218235 C5193.86237,982.218235 5213.70514,962.402549 5213.70514,937.94287 L5213.70514,711.646562 C5213.70514,687.186883 5193.86237,667.371197 5169.41324,667.371197" id="Fill-73" fill="#E0E9F8"></path>
                <path d="M5109.12705,819.511189 C5109.12705,856.859919 5078.83139,887.163946 5041.44903,887.163946 C5004.08636,887.163946 4973.7907,856.859919 4973.7907,819.511189 C4973.7907,782.162459 5004.08636,751.858432 5041.44903,751.858432 C5078.83139,751.858432 5109.12705,782.162459 5109.12705,819.511189 Z" id="Stroke-75" stroke="#C2C9E9" stroke-width="1.5" stroke-linecap="round" stroke-linejoin="round"></path>
                <path d="M5107.26285,897.71329 L5084.70352,871.521952" id="Stroke-77" stroke="#C2C9E9" stroke-width="1.5" stroke-linecap="round" stroke-linejoin="round"></path>
                <path d="M280.080008,1544.50946 C280.080008,1593.6256 240.256672,1633.45375 191.10251,1633.45375 C141.968033,1633.45375 102.144696,1593.6256 102.144696,1544.50946 C102.144696,1495.39332 141.968033,1455.56517 191.10251,1455.56517 C240.256672,1455.56517 280.080008,1495.39332 280.080008,1544.50946" id="Fill-79" fill="#7736F6"></path>
                <path d="M6652.84531,4075.06694 L5425.32985,4075.06694 C5395.4279,4075.06694 5371.19531,4050.8434 5371.19531,4020.95261 L5371.19531,2541.87994 C5371.19531,2511.98915 5395.4279,2487.76561 5425.32985,2487.76561 L6652.84531,2487.76561 C6682.74726,2487.76561 6706.97985,2511.98915 6706.97985,2541.87994 L6706.97985,4020.95261 C6706.97985,4050.8434 6682.74726,4075.06694 6652.84531,4075.06694" id="Fill-81" fill="#FFFFFF"></path>
                <path d="M1086.35985,1598.79696 L384.244706,1598.79696 C377.00052,1598.79696 371.134305,1592.91326 371.134305,1585.67178 L371.134305,1500.40726 C371.134305,1493.1461 377.00052,1487.28208 384.244706,1487.28208 L1086.35985,1487.28208 C1093.60403,1487.28208 1099.48994,1493.1461 1099.48994,1500.40726 L1099.48994,1585.67178 C1099.48994,1592.91326 1093.60403,1598.79696 1086.35985,1598.79696" id="Fill-83" fill="#A4B5E9"></path>
                <path d="M1803.22911,217.641721 L848.492679,217.641721 C841.248494,217.641721 835.362593,211.777695 835.362593,204.516535 L835.362593,119.252022 C835.362593,112.01054 841.248494,106.126836 848.492679,106.126836 L1803.22911,106.126836 C1810.4733,106.126836 1816.3592,112.01054 1816.3592,119.252022 L1816.3592,204.516535 C1816.3592,211.777695 1810.4733,217.641721 1803.22911,217.641721" id="Fill-85" fill="#E0E9F8"></path>
                <path d="M280.080008,1805.24217 C280.080008,1854.3583 240.256672,1894.18645 191.10251,1894.18645 C141.968033,1894.18645 102.144696,1854.3583 102.144696,1805.24217 C102.144696,1756.12603 141.968033,1716.29788 191.10251,1716.29788 C240.256672,1716.29788 280.080008,1756.12603 280.080008,1805.24217" id="Fill-87" fill="#A4B5E9"></path>
                <path d="M1086.35985,1859.52967 L384.244706,1859.52967 C377.00052,1859.52967 371.134305,1853.64596 371.134305,1846.40448 L371.134305,1761.13997 C371.134305,1753.89848 377.00052,1748.01478 384.244706,1748.01478 L1086.35985,1748.01478 C1093.60403,1748.01478 1099.48994,1753.89848 1099.48994,1761.13997 L1099.48994,1846.40448 C1099.48994,1853.64596 1093.60403,1859.52967 1086.35985,1859.52967" id="Fill-89" fill="#A4B5E9"></path>
                <path d="M587.682308,2120.26237 L115.255098,2120.26237 C108.010912,2120.26237 102.144696,2114.37866 102.144696,2107.13718 L102.144696,2077.62027 C102.144696,2070.37879 108.010912,2064.49509 115.255098,2064.49509 L587.682308,2064.49509 C594.946179,2064.49509 600.812395,2070.37879 600.812395,2077.62027 L600.812395,2107.13718 C600.812395,2114.37866 594.946179,2120.26237 587.682308,2120.26237" id="Fill-91" fill="#F577B6"></path>
                <path d="M280.080008,2326.70757 C280.080008,2375.82371 240.256672,2415.65186 191.10251,2415.65186 C141.968033,2415.65186 102.144696,2375.82371 102.144696,2326.70757 C102.144696,2277.59143 141.968033,2237.76328 191.10251,2237.76328 C240.256672,2237.76328 280.080008,2277.59143 280.080008,2326.70757" id="Fill-93" fill="#FFFFFF"></path>
                <path d="M1086.35985,2380.99507 L384.244706,2380.99507 C377.00052,2380.99507 371.134305,2375.11137 371.134305,2367.86989 L371.134305,2282.60537 C371.134305,2275.36389 377.00052,2269.48019 384.244706,2269.48019 L1086.35985,2269.48019 C1093.60403,2269.48019 1099.48994,2275.36389 1099.48994,2282.60537 L1099.48994,2367.86989 C1099.48994,2375.11137 1093.60403,2380.99507 1086.35985,2380.99507" id="Fill-95" fill="#A4B5E9"></path>
                <path d="M280.080008,2587.44027 C280.080008,2636.55641 240.256672,2676.38456 191.10251,2676.38456 C141.968033,2676.38456 102.144696,2636.55641 102.144696,2587.44027 C102.144696,2538.32414 141.968033,2498.49599 191.10251,2498.49599 C240.256672,2498.49599 280.080008,2538.32414 280.080008,2587.44027" id="Fill-97" fill="#A4B5E9"></path>
                <path d="M1086.35985,2641.72777 L384.244706,2641.72777 C377.00052,2641.72777 371.134305,2635.84407 371.134305,2628.60259 L371.134305,2543.33808 C371.134305,2536.09659 377.00052,2530.21289 384.244706,2530.21289 L1086.35985,2530.21289 C1093.60403,2530.21289 1099.48994,2536.09659 1099.48994,2543.33808 L1099.48994,2628.60259 C1099.48994,2635.84407 1093.60403,2641.72777 1086.35985,2641.72777" id="Fill-99" fill="#A4B5E9"></path>
                <path d="M280.080008,2848.17298 C280.080008,2897.28911 240.256672,2937.11726 191.10251,2937.11726 C141.968033,2937.11726 102.144696,2897.28911 102.144696,2848.17298 C102.144696,2799.05684 141.968033,2759.22869 191.10251,2759.22869 C240.256672,2759.22869 280.080008,2799.05684 280.080008,2848.17298" id="Fill-101" fill="#A4B5E9"></path>
                <path d="M1086.35985,2902.46048 L384.244706,2902.46048 C377.00052,2902.46048 371.134305,2896.57677 371.134305,2889.33529 L371.134305,2804.07078 C371.134305,2796.8293 377.00052,2790.94559 384.244706,2790.94559 L1086.35985,2790.94559 C1093.60403,2790.94559 1099.48994,2796.8293 1099.48994,2804.07078 L1099.48994,2889.33529 C1099.48994,2896.57677 1093.60403,2902.46048 1086.35985,2902.46048" id="Fill-103" fill="#A4B5E9"></path>
                <path d="M280.080008,3108.90568 C280.080008,3158.02182 240.256672,3197.84997 191.10251,3197.84997 C141.968033,3197.84997 102.144696,3158.02182 102.144696,3108.90568 C102.144696,3059.78954 141.968033,3019.96139 191.10251,3019.96139 C240.256672,3019.96139 280.080008,3059.78954 280.080008,3108.90568" id="Fill-105" fill="#FFFFFF"></path>
                <path d="M1086.35985,3163.19318 L384.244706,3163.19318 C377.00052,3163.19318 371.134305,3157.30948 371.134305,3150.06799 L371.134305,3064.80348 C371.134305,3057.562 377.00052,3051.6783 384.244706,3051.6783 L1086.35985,3051.6783 C1093.60403,3051.6783 1099.48994,3057.562 1099.48994,3064.80348 L1099.48994,3150.06799 C1099.48994,3157.30948 1093.60403,3163.19318 1086.35985,3163.19318" id="Fill-107" fill="#A4B5E9"></path>
                <path d="M587.682308,3423.92588 L115.255098,3423.92588 C108.010912,3423.92588 102.144696,3418.04218 102.144696,3410.8007 L102.144696,3381.28379 C102.144696,3374.04231 108.010912,3368.1586 115.255098,3368.1586 L587.682308,3368.1586 C594.946179,3368.1586 600.812395,3374.04231 600.812395,3381.28379 L600.812395,3410.8007 C600.812395,3418.04218 594.946179,3423.92588 587.682308,3423.92588" id="Fill-109" fill="#F577B6"></path>
                <path d="M280.080008,3630.37109 C280.080008,3679.48722 240.256672,3719.31537 191.10251,3719.31537 C141.968033,3719.31537 102.144696,3679.48722 102.144696,3630.37109 C102.144696,3581.25495 141.968033,3541.4268 191.10251,3541.4268 C240.256672,3541.4268 280.080008,3581.25495 280.080008,3630.37109" id="Fill-111" fill="#A4B5E9"></path>
                <path d="M1086.35985,3684.65859 L384.244706,3684.65859 C377.00052,3684.65859 371.134305,3678.77488 371.134305,3671.5334 L371.134305,3586.26889 C371.134305,3579.0274 377.00052,3573.1437 384.244706,3573.1437 L1086.35985,3573.1437 C1093.60403,3573.1437 1099.48994,3579.0274 1099.48994,3586.26889 L1099.48994,3671.5334 C1099.48994,3678.77488 1093.60403,3684.65859 1086.35985,3684.65859" id="Fill-113" fill="#A4B5E9"></path>
                <path d="M280.080008,3891.10379 C280.080008,3940.21993 240.256672,3980.04808 191.10251,3980.04808 C141.968033,3980.04808 102.144696,3940.21993 102.144696,3891.10379 C102.144696,3841.98765 141.968033,3802.1595 191.10251,3802.1595 C240.256672,3802.1595 280.080008,3841.98765 280.080008,3891.10379" id="Fill-115" fill="#FFFFFF"></path>
                <path d="M1086.35985,3945.39129 L384.244706,3945.39129 C377.00052,3945.39129 371.134305,3939.50758 371.134305,3932.2661 L371.134305,3847.00159 C371.134305,3839.76011 377.00052,3833.8764 384.244706,3833.8764 L1086.35985,3833.8764 C1093.60403,3833.8764 1099.48994,3839.76011 1099.48994,3847.00159 L1099.48994,3932.2661 C1099.48994,3939.50758 1093.60403,3945.39129 1086.35985,3945.39129" id="Fill-117" fill="#A4B5E9"></path>
                <path d="M5189.09853,2674.51122 L1379.99544,2674.51122 C1350.09349,2674.51122 1325.8609,2650.30736 1325.8609,2620.39689 L1325.8609,1479.07638 C1325.8609,1449.18559 1350.09349,1424.96204 1379.99544,1424.96204 L5189.09853,1424.96204 C5219.00048,1424.96204 5243.23307,1449.18559 5243.23307,1479.07638 L5243.23307,2620.39689 C5243.23307,2650.30736 5219.00048,2674.51122 5189.09853,2674.51122" id="Fill-119" fill="#FFFFFF"></path>
                <path d="M2415.11674,1654.54457 L1460.38031,1654.54457 C1453.13612,1654.54457 1447.25022,1648.66086 1447.25022,1641.41938 L1447.25022,1556.15487 C1447.25022,1548.91339 1453.13612,1543.02968 1460.38031,1543.02968 L2415.11674,1543.02968 C2422.36093,1543.02968 2428.24683,1548.91339 2428.24683,1556.15487 L2428.24683,1641.41938 C2428.24683,1648.66086 2422.36093,1654.54457 2415.11674,1654.54457" id="Fill-121" fill="#E0E9F8"></path>
                <path d="M5091.88274,2554.25343 L1460.38031,2554.25343 C1453.13612,2554.25343 1447.25022,2548.3894 1447.25022,2541.14792 L1447.25022,2455.86373 C1447.25022,2448.62225 1453.13612,2442.75822 1460.38031,2442.75822 L5091.88274,2442.75822 C5099.12693,2442.75822 5104.99314,2448.62225 5104.99314,2455.86373 L5104.99314,2541.14792 C5104.99314,2548.3894 5099.12693,2554.25343 5091.88274,2554.25343" id="Fill-123" fill="#E0E9F8"></path>
                <path d="M3517.48299,1654.54457 L2562.74655,1654.54457 C2555.50237,1654.54457 2549.61647,1648.66086 2549.61647,1641.41938 L2549.61647,1556.15487 C2549.61647,1548.91339 2555.50237,1543.02968 2562.74655,1543.02968 L3517.48299,1543.02968 C3524.72717,1543.02968 3530.61308,1548.91339 3530.61308,1556.15487 L3530.61308,1641.41938 C3530.61308,1648.66086 3524.72717,1654.54457 3517.48299,1654.54457" id="Fill-125" fill="#E0E9F8"></path>
                <path d="M4619.85908,1654.54457 L3665.12264,1654.54457 C3657.87846,1654.54457 3652.01224,1648.66086 3652.01224,1641.41938 L3652.01224,1556.15487 C3652.01224,1548.91339 3657.87846,1543.02968 3665.12264,1543.02968 L4619.85908,1543.02968 C4627.10326,1543.02968 4632.98916,1548.91339 4632.98916,1556.15487 L4632.98916,1641.41938 C4632.98916,1648.66086 4627.10326,1654.54457 4619.85908,1654.54457" id="Fill-127" fill="#E0E9F8"></path>
                <path d="M4607.55577,2269.48019 L1472.67377,2269.48019 C1458.63816,2269.48019 1447.24038,2258.10634 1447.24038,2244.05629 L1447.24038,1898.03939 C1447.24038,1884.00902 1458.63816,1872.63517 1472.67377,1872.63517 L4607.55577,1872.63517 C4621.61107,1872.63517 4632.98916,1884.00902 4632.98916,1898.03939 L4632.98916,2244.05629 C4632.98916,2258.10634 4621.61107,2269.48019 4607.55577,2269.48019" id="Fill-129" fill="#CEDFE7"></path>
                <path d="M5189.09853,4075.06694 L1379.99544,4075.06694 C1350.09349,4075.06694 1325.8609,4050.8434 1325.8609,4020.95261 L1325.8609,2879.6321 C1325.8609,2849.72163 1350.09349,2825.51776 1379.99544,2825.51776 L5189.09853,2825.51776 C5219.00048,2825.51776 5243.23307,2849.72163 5243.23307,2879.6321 L5243.23307,4020.95261 C5243.23307,4050.8434 5219.00048,4075.06694 5189.09853,4075.06694" id="Fill-131" fill="#FFFFFF"></path>
                <path d="M2415.11674,3055.08061 L1460.38031,3055.08061 C1453.13612,3055.08061 1447.25022,3049.21658 1447.25022,3041.9751 L1447.25022,2956.69091 C1447.25022,2949.44943 1453.13612,2943.5854 1460.38031,2943.5854 L2415.11674,2943.5854 C2422.36093,2943.5854 2428.24683,2949.44943 2428.24683,2956.69091 L2428.24683,3041.9751 C2428.24683,3049.21658 2422.36093,3055.08061 2415.11674,3055.08061" id="Fill-133" fill="#E0E9F8"></path>
                <path d="M5091.88274,3954.78751 L1460.38031,3954.78751 C1453.13612,3954.78751 1447.25022,3948.92348 1447.25022,3941.682 L1447.25022,3856.39781 C1447.25022,3849.15632 1453.13612,3843.2923 1460.38031,3843.2923 L5091.88274,3843.2923 C5099.12693,3843.2923 5104.99314,3849.15632 5104.99314,3856.39781 L5104.99314,3941.682 C5104.99314,3948.92348 5099.12693,3954.78751 5091.88274,3954.78751" id="Fill-135" fill="#E0E9F8"></path>
                <path d="M3517.48299,3055.08061 L2562.74655,3055.08061 C2555.50237,3055.08061 2549.61647,3049.21658 2549.61647,3041.9751 L2549.61647,2956.69091 C2549.61647,2949.44943 2555.50237,2943.5854 2562.74655,2943.5854 L3517.48299,2943.5854 C3524.72717,2943.5854 3530.61308,2949.44943 3530.61308,2956.69091 L3530.61308,3041.9751 C3530.61308,3049.21658 3524.72717,3055.08061 3517.48299,3055.08061" id="Fill-137" fill="#E0E9F8"></path>
                <path d="M4619.85908,3055.08061 L3665.12264,3055.08061 C3657.87846,3055.08061 3652.01224,3049.21658 3652.01224,3041.9751 L3652.01224,2956.69091 C3652.01224,2949.44943 3657.87846,2943.5854 3665.12264,2943.5854 L4619.85908,2943.5854 C4627.10326,2943.5854 4632.98916,2949.44943 4632.98916,2956.69091 L4632.98916,3041.9751 C4632.98916,3049.21658 4627.10326,3055.08061 4619.85908,3055.08061" id="Fill-139" fill="#E0E9F8"></path>
                <path d="M4607.55577,3670.01623 L1472.67377,3670.01623 C1458.63816,3670.01623 1447.24038,3658.64238 1447.24038,3644.61201 L1447.24038,3298.59512 C1447.24038,3284.54507 1458.63816,3273.17122 1472.67377,3273.17122 L4607.55577,3273.17122 C4621.61107,3273.17122 4632.98916,3284.54507 4632.98916,3298.59512 L4632.98916,3644.61201 C4632.98916,3658.64238 4621.61107,3670.01623 4607.55577,3670.01623" id="Fill-141" fill="#CEDFE7"></path>
                <path d="M6309.29571,2641.72777 L6591.95675,2641.72777 C6607.37033,2641.72777 6619.8508,2629.23228 6619.8508,2613.84413 C6619.8508,2598.45598 6607.37033,2585.96049 6591.95675,2585.96049 L6309.29571,2585.96049 C6293.88213,2585.96049 6281.40166,2598.45598 6281.40166,2613.84413 C6281.40166,2629.23228 6293.88213,2641.72777 6309.29571,2641.72777" id="Fill-143" fill="#E0E9F8"></path>
                <path d="M5718.35126,2871.46379 C5718.35126,2920.57992 5678.52792,2960.40807 5629.37376,2960.40807 C5580.23928,2960.40807 5540.41595,2920.57992 5540.41595,2871.46379 C5540.41595,2822.34765 5580.23928,2782.5195 5629.37376,2782.5195 C5678.52792,2782.5195 5718.35126,2822.34765 5718.35126,2871.46379" id="Fill-145" fill="#7736F6"></path>
                <path d="M6524.62126,2925.73161 L5822.50611,2925.73161 C5815.28161,2925.73161 5809.39571,2919.86758 5809.39571,2912.6261 L5809.39571,2827.34191 C5809.39571,2820.10043 5815.28161,2814.2364 5822.50611,2814.2364 L6524.62126,2814.2364 C6531.86544,2814.2364 6537.75134,2820.10043 6537.75134,2827.34191 L6537.75134,2912.6261 C6537.75134,2919.86758 6531.86544,2925.73161 6524.62126,2925.73161" id="Fill-147" fill="#E0E9F8"></path>
                <path d="M6524.62126,3186.46431 L5553.52635,3186.46431 C5546.28216,3186.46431 5540.41595,3180.60029 5540.41595,3173.3588 L5540.41595,3088.07461 C5540.41595,3080.83313 5546.28216,3074.9691 5553.52635,3074.9691 L6524.62126,3074.9691 C6531.86544,3074.9691 6537.75134,3080.83313 6537.75134,3088.07461 L6537.75134,3173.3588 C6537.75134,3180.60029 6531.86544,3186.46431 6524.62126,3186.46431" id="Fill-149" fill="#A4B5E9"></path>
                <path d="M5718.35126,3571.60685 C5718.35126,3620.72299 5678.52792,3660.55114 5629.37376,3660.55114 C5580.23928,3660.55114 5540.41595,3620.72299 5540.41595,3571.60685 C5540.41595,3522.49072 5580.23928,3482.66257 5629.37376,3482.66257 C5678.52792,3482.66257 5718.35126,3522.49072 5718.35126,3571.60685" id="Fill-151" fill="#7736F6"></path>
                <path d="M6524.62126,3625.89435 L5822.50611,3625.89435 C5815.28161,3625.89435 5809.39571,3620.01065 5809.39571,3612.76917 L5809.39571,3527.50466 C5809.39571,3520.26317 5815.28161,3514.37947 5822.50611,3514.37947 L6524.62126,3514.37947 C6531.86544,3514.37947 6537.75134,3520.26317 6537.75134,3527.50466 L6537.75134,3612.76917 C6537.75134,3620.01065 6531.86544,3625.89435 6524.62126,3625.89435" id="Fill-153" fill="#E0E9F8"></path>
                <path d="M6524.62126,3886.62706 L5553.52635,3886.62706 C5546.28216,3886.62706 5540.41595,3880.74335 5540.41595,3873.50187 L5540.41595,3788.23736 C5540.41595,3780.99588 5546.28216,3775.11217 5553.52635,3775.11217 L6524.62126,3775.11217 C6531.86544,3775.11217 6537.75134,3780.99588 6537.75134,3788.23736 L6537.75134,3873.50187 C6537.75134,3880.74335 6531.86544,3886.62706 6524.62126,3886.62706" id="Fill-155" fill="#A4B5E9"></path>
                <path d="M6278.80517,68.713169 L6298.33297,108.265828 C6302.86059,117.435748 6311.62054,123.791723 6321.75847,125.287246 L6365.40075,131.623543 C6373.07801,132.725507 6376.14891,142.15124 6370.59766,147.562674 L6339.02246,178.338972 C6331.67985,185.482064 6328.33335,195.793305 6330.06566,205.86841 L6337.5067,249.336979 C6338.82561,256.972019 6330.8137,262.79669 6323.94353,259.195627 L6284.90761,238.671535 C6275.85238,233.909474 6265.00578,233.909474 6255.93087,238.671535 L6216.87526,259.195627 C6210.04446,262.79669 6202.03255,256.972019 6203.33178,249.336979 L6210.7925,205.86841 C6212.52481,195.793305 6209.17831,185.482064 6201.8357,178.338972 L6170.24081,147.562674 C6164.68956,142.15124 6167.74078,132.725507 6175.41804,131.623543 L6219.08001,125.287246 C6229.19825,123.791723 6237.97788,117.435748 6242.5055,108.265828 L6262.0333,68.713169 C6265.45854,61.7668562 6275.37993,61.7668562 6278.80517,68.713169" id="Fill-157" fill="#CEDFE7"></path>
                <path d="M6045.81208,4454.55798 L6004.61077,4489.84053 C5996.77603,4496.57038 6001.53987,4509.4004 6011.83527,4509.4004 L6173.54991,4509.4004 C6196.08956,4509.4004 6214.82995,4492.08381 6216.62132,4469.63128 L6218.23551,4449.48107 L6045.9105,4449.48107 L6045.81208,4454.55798 Z" id="Fill-159" fill="#001D47"></path>
                <path d="M6346.93595,4449.48501 L6347.56588,4460.6424 L6314.92767,4493.30778 C6308.96303,4499.23084 6313.17568,4509.40434 6321.60098,4509.40434 L6494.94962,4509.40434 C6519.37907,4509.40434 6538.94624,4489.17541 6538.13914,4464.75509 L6537.64701,4449.48501 L6346.93595,4449.48501 Z" id="Fill-161" fill="#001D47"></path>
            </g>
            <g id="Group-166" transform="translate(6856.000000, 4580.000000)">
                <mask id="mask-9" fill="white">
                    <use xlink:href="#path-8"></use>
                </mask>
                <g id="Clip-165"></g>
                <path d="M20.9459828,17.1080871 L0.0812868778,1076.96294 L172.048032,1076.96294 L246.39079,140.920239 L300.517191,1076.96294 L490.833867,1076.96294 L455.155629,0.629987097 C310.419081,23.7032645 165.682532,29.3534613 20.9459828,17.1080871" id="Fill-164" fill="url(#linearGradient-10)" mask="url(#mask-9)"></path>
            </g>
            <path d="M6549.64948,3464.07485 C6539.23378,3442.24571 6515.0158,3430.59301 6491.44757,3436.06506 C6461.6378,3443.03306 6444.42925,3474.27096 6454.49054,3503.14683 L6501.2529,3637.44816 C6540.17887,3625.95293 6579.08516,3610.46192 6618.01113,3607.41096 L6549.64948,3464.07485 Z" id="Fill-167" fill="#FFBCA8"></path>
            <path d="M7032.30792,3774.59181 L7059.75496,3647.84899 C7070.6629,3597.41956 7121.79631,3566.59501 7171.4727,3580.49164 C7218.5304,3593.62062 7246.39093,3642.00295 7234.14411,3689.26332 L7201.6172,3814.80544 C7189.29162,3862.40043 7139.98933,3890.33149 7092.7938,3876.47422 C7049.06361,3863.58145 7022.66011,3819.15552 7032.30792,3774.59181" id="Fill-169" fill="#FFBCA8"></path>
            <path d="M7078.87929,3694.01298 C7075.05955,3708.75601 7064.60447,3718.79465 7055.52765,3716.4523 C7046.47052,3714.10995 7042.2176,3700.25269 7046.01766,3685.50965 C7049.83741,3670.78631 7060.29249,3660.74766 7069.36931,3663.09001 C7078.42644,3665.43236 7082.67935,3679.28963 7078.87929,3694.01298 Z" id="Stroke-171" stroke="#7736F6" stroke-width="0.8" stroke-linecap="round" stroke-linejoin="round"></path>
            <path d="M7078.87929,3694.01298 C7078.87929,3694.01298 7133.81276,3699.81965 7141.19629,3706.37429 C7148.57982,3712.92894 7143.26368,3728.57741 7143.26368,3728.57741" id="Stroke-173" stroke="#7736F6" stroke-width="0.8" stroke-linecap="round" stroke-linejoin="round"></path>
            <path d="M7518.19936,4351.99108 C7520.68022,4306.32509 7512.41067,4260.67878 7494.04045,4218.77235 L7374.88011,3946.78411 C7345.20816,3873.48231 7278.26415,3821.91123 7199.82152,3811.93163 L6944.15447,3779.33556 L6713.94584,3760.83296 C6699.29691,3759.65194 6686.38065,3750.75495 6680.06035,3737.48819 L6617.99932,3607.41883 C6579.09303,3610.45011 6540.16706,3625.94112 6501.26078,3637.43635 L6564.20784,3818.26976 C6576.35621,3853.14913 6604.57114,3880.05664 6639.99239,3890.56769 L6890.87492,3964.91272 L6878.35245,4598.25284 C7023.40437,4610.49605 7168.45628,4604.84685 7313.5082,4581.77765 L7299.41058,4157.28073 L7387.83574,4302.56552 L7398.92088,4476.90333 L7511.40651,4476.90333 L7518.19936,4351.99108 Z" id="Fill-175" fill="#001D47"></path>
            <path d="M7398.92679,4476.89743 L7410.32696,4655.64437 C7409.65752,4677.70971 7424.83806,4697.09807 7446.43735,4701.72372 C7472.40769,4707.2745 7497.64952,4689.61829 7501.27237,4663.3013 L7511.41242,4476.89743 L7398.92679,4476.89743 Z" id="Fill-177" fill="#FFBCA8"></path>
            <path d="M2543.37142,868.047625 C2502.83091,894.364624 2457.80122,915.130842 2412.86998,933.731861 L2463.21581,1037.79915 L2367.95842,1252.4687 C2353.95925,1283.98218 2368.86414,1320.81023 2400.82006,1333.76205 C2431.02362,1346.00526 2465.51947,1332.34483 2479.18393,1302.76035 L2576.46932,1091.75195 C2598.50178,1043.96013 2598.60023,988.905045 2576.72529,941.034484 L2543.37142,868.047625 Z" id="Fill-179" fill="#FFBCA8"></path>
            <path d="M1740.4233,905.82049 L1731.81903,969.910353 C1724.25829,1026.10708 1743.55392,1082.59907 1783.87784,1122.4584 L1988.23428,1324.43201 C2006.44699,1342.40316 2034.99664,1344.5093 2055.65083,1329.41197 C2079.57347,1311.87386 2084.06266,1277.95899 2065.51523,1254.83074 L1887.26696,1016.44243 L1908.74811,937.688269 C1849.83738,938.278777 1794.29354,925.386007 1740.4233,905.82049" id="Fill-181" fill="#FFBCA8"></path>
            <path d="M2490.15881,751.589494 C2448.41725,660.237819 2363.71338,595.852702 2264.49842,580.046756 L2079.37855,550.541011 C1963.86075,532.136827 1849.03208,587.369062 1791.36179,689.113688 C1772.45995,722.457738 1760.11469,759.108637 1755.01513,797.098021 L1740.42527,905.810648 C1794.29551,925.376165 1849.83935,938.268936 1908.75008,937.678427 L1913.02268,922.010266 C1927.19906,869.907727 1972.93757,832.587586 2026.84719,829.123269 L2267.29432,813.671628 C2318.60494,810.384464 2366.80462,838.492672 2389.19149,884.768859 L2412.85816,933.72202 C2457.78941,915.140683 2502.83879,894.354782 2543.37929,868.057467 L2490.15881,751.589494 Z" id="Fill-183" fill="#001D47"></path>
            <path d="M2062.48109,810.986782 L2073.58592,719.143017 C2079.5715,669.776501 2122.86853,633.538958 2172.52523,636.353716 C2226.19857,639.404677 2266.46343,686.625678 2260.97008,740.086387 L2251.49947,832.363193 C2245.57296,889.83936 2189.79285,928.537354 2133.87491,913.912426 L2132.24069,913.49907 C2086.62031,901.59048 2056.81054,857.794428 2062.48109,810.986782" id="Fill-185" fill="#FFBCA8"></path>
            <g id="Group-190" transform="translate(3210.000000, 5794.000000)">
                <mask id="mask-12" fill="white">
                    <use xlink:href="#path-11"></use>
                </mask>
                <g id="Clip-189"></g>
                <path d="M335.649237,0.00878923767 C304.25193,0.00878923767 273.051595,6.14945291 265.842427,13.8843274 L4.38204349,294.93778 C-9.36658899,309.718673 15.5503452,322 60.3811297,322 L802.90577,322 C823.469627,292.949937 847.69716,265.907399 870.900439,240.419709 C884.767255,225.186139 899.737112,211.035058 913.879689,196.077031 C916.538808,193.321605 918.961561,190.408726 921.561589,187.633619 C946.734587,140.063157 992.747202,92.1581076 1025.36573,53.1688296 C1041.6947,33.6840314 1059.77671,16.403574 1078.62691,0.00878923767 L335.649237,0.00878923767 Z" id="Fill-188" fill="url(#linearGradient-13)" mask="url(#mask-12)"></path>
            </g>
            <g id="Group-198" transform="translate(3418.000000, 5845.000000)">
                <path d="M663.140402,188.632263 C676.993683,173.381586 691.948929,159.196286 706.058024,144.18236 C708.714548,141.44 711.154614,138.520077 713.752104,135.71853 C722.17427,119.777331 733.016823,103.816402 744.784241,88.1316828 L119.930425,88.1316828 C97.3991657,88.1316828 75.0843635,93.3796518 70.0074509,99.9297485 L1.37074023,188.671721 C-4.82781592,196.681779 10.6784134,203.271335 36.1023326,203.271335 L649.936493,203.271335 C654.344355,198.339033 658.771895,193.44619 663.140402,188.632263" id="Fill-191" fill="#E0E9F8"></path>
                <g id="Group-197" transform="translate(132.956031, 0.000000)">
                    <path d="M208.571793,26.8290909 C200.602221,42.2573308 146.172994,55.1799613 87.237516,55.1799613 C28.3020377,55.1799613 -9.57802769,42.2573308 2.18939002,26.8290909 C13.5435706,11.9532689 67.1856788,0.273578337 122.362667,0.273578337 C177.539656,0.273578337 216.246196,11.9532689 208.571793,26.8290909" id="Fill-193" fill="#A4B5E9"></path>
                    <path d="M677.182638,9.54630561 L335.829135,9.54630561 C327.584071,9.54630561 320.224515,11.2824758 319.398041,13.4329594 L309.145826,39.7122631 C308.24064,42.0205803 314.478552,43.9145841 323.058141,43.9145841 L647.665704,43.9145841 C657.898241,31.9586847 667.874965,20.4762863 677.182638,9.54630561" id="Fill-195" fill="#E0E9F8"></path>
                </g>
            </g>
            <g id="Group-201" transform="translate(3943.000000, 5794.000000)">
                <mask id="mask-15" fill="white">
                    <use xlink:href="#path-14"></use>
                </mask>
                <g id="Clip-200"></g>
                <path d="M335.334583,0.00878923767 C303.925207,0.00878923767 272.732448,6.14945291 265.544723,13.8843274 L4.14782465,294.93778 C-9.59746952,309.718673 15.2937222,322 60.1136213,322 L1900.32888,322 C1945.14878,322 1970.07935,309.718673 1956.31437,294.93778 L1694.93716,13.8843274 C1687.74944,6.14945291 1656.55668,0.00878923767 1625.12761,0.00878923767 L335.334583,0.00878923767 Z" id="Fill-199" fill="url(#linearGradient-16)" mask="url(#mask-15)"></path>
            </g>
            <g id="Group-234" transform="translate(4149.000000, 5794.000000)">
                <g id="Group-216" transform="translate(0.000000, 21.578475)">
                    <path d="M1510.5832,233.437118 L36.8546327,233.437118 C11.4465374,233.437118 -4.06204441,226.863459 2.11777118,218.872724 L70.7845756,130.344822 C75.8425775,123.810526 98.160765,118.575217 120.695443,118.575217 L1426.74239,118.575217 C1449.27707,118.575217 1471.59526,123.810526 1476.65326,130.344822 L1545.32006,218.872724 C1551.49988,226.863459 1535.9913,233.437118 1510.5832,233.437118" id="Fill-202" fill="#E0E9F8"></path>
                    <g id="Group-210" transform="translate(1168.825231, 0.000000)" fill="#C2C9E9">
                        <path d="M22.9404977,3.40825067 C37.0714136,3.40825067 50.1395586,6.28176637 52.1470147,9.80477534 C54.1938326,13.3868291 44.2155953,16.2997081 29.868189,16.2997081 C15.5011019,16.2997081 2.39359491,13.3868291 0.582948302,9.80477534 C-1.18833642,6.28176637 8.82926273,3.40825067 22.9404977,3.40825067" id="Fill-204"></path>
                        <path d="M116.175021,3.40825067 C130.305937,3.40825067 143.708658,6.28176637 146.129414,9.80477534 C148.589532,13.3868291 138.985232,16.2997081 124.637826,16.2997081 C110.270739,16.2997081 96.8286558,13.3868291 94.5850285,9.80477534 C92.3807631,6.28176637 102.044105,3.40825067 116.175021,3.40825067" id="Fill-206"></path>
                        <path d="M209.409545,3.40825067 C223.540461,3.40825067 237.277758,6.28176637 240.151175,9.80477534 C243.024593,13.3868291 233.754869,16.2997081 219.407463,16.2997081 C205.040376,16.2997081 191.244036,13.3868291 188.567428,9.80477534 C185.969544,6.28176637 195.278629,3.40825067 209.409545,3.40825067" id="Fill-208"></path>
                    </g>
                    <g id="Group-215" transform="translate(133.422840, 30.672646)">
                        <path d="M208.911493,26.7439229 C200.960392,42.1349453 146.483547,55.0264027 87.5588081,55.0264027 C28.6143888,55.0264027 -9.29110428,42.1349453 2.49777959,26.7439229 C13.8536828,11.9039857 67.484248,0.252469955 122.689288,0.252469955 C177.874648,0.252469955 216.606741,11.9039857 208.911493,26.7439229" id="Fill-211" fill="#A4B5E9"></path>
                        <path d="M1275.60277,43.7921372 L323.399465,43.7921372 C314.838255,43.7921372 308.599397,41.9027022 309.50472,39.5999534 L319.75849,13.384043 C320.58509,11.2387471 327.945762,9.50676502 336.192077,9.50676502 L1249.99786,9.50676502 C1258.2245,9.50676502 1266.23464,11.2387471 1267.86816,13.384043 L1287.94272,39.5999534 C1289.714,41.9027022 1284.20334,43.7921372 1275.60277,43.7921372" id="Fill-213" fill="#E0E9F8"></path>
                    </g>
                </g>
                <path d="M2580.50215,321.998032 L741.357546,321.998032 C696.544042,321.998032 671.687013,309.716704 685.404629,294.935812 L946.649445,13.9020408 C953.85267,6.14748475 985.027281,0.00682107623 1016.3987,0.00682107623 L2305.44132,0.00682107623 C2336.8521,0.00682107623 2368.02671,6.14748475 2375.21025,13.9020408 L2636.45507,294.935812 C2650.19237,309.716704 2625.29598,321.998032 2580.50215,321.998032" id="Fill-217" fill="#FFFFFF"></path>
                <g id="Group-233" transform="translate(887.090278, 21.578475)">
                    <path d="M1510.70976,233.437118 L36.9811913,233.437118 C11.5534151,233.437118 -3.95516671,226.863459 2.24432982,218.872724 L70.9111342,130.344822 C75.9691361,123.810526 98.2676427,118.575217 120.822002,118.575217 L1426.86895,118.575217 C1449.40363,118.575217 1471.72182,123.810526 1476.77982,130.344822 L1545.44662,218.872724 C1551.62644,226.863459 1536.11786,233.437118 1510.70976,233.437118" id="Fill-219" fill="#E0E9F8"></path>
                    <g id="Group-227" transform="translate(1169.273148, 0.000000)" fill="#C2C9E9">
                        <path d="M22.6211078,3.40825067 C36.7520236,3.40825067 49.8201687,6.28176637 51.8276247,9.80477534 C53.8744426,13.3868291 43.8962054,16.2997081 29.5487991,16.2997081 C15.1817119,16.2997081 2.07420498,13.3868291 0.263558372,9.80477534 C-1.52740729,6.28176637 8.49019186,3.40825067 22.6211078,3.40825067" id="Fill-221"></path>
                        <path d="M115.855631,3.40825067 C129.986547,3.40825067 143.369587,6.28176637 145.810024,9.80477534 C148.270142,13.3868291 138.665842,16.2997081 124.318436,16.2997081 C109.951349,16.2997081 96.5092659,13.3868291 94.2656386,9.80477534 C92.0613731,6.28176637 101.724715,3.40825067 115.855631,3.40825067" id="Fill-223"></path>
                        <path d="M209.090155,3.40825067 C223.20139,3.40825067 236.958368,6.28176637 239.831785,9.80477534 C242.705203,13.3868291 233.435479,16.2997081 219.088073,16.2997081 C204.720986,16.2997081 190.904965,13.3868291 188.248038,9.80477534 C185.630473,6.28176637 194.959239,3.40825067 209.090155,3.40825067" id="Fill-225"></path>
                    </g>
                    <g id="Group-232" transform="translate(133.422840, 30.672646)">
                        <path d="M209.040019,26.7439229 C201.069238,42.1349453 146.612073,55.0264027 87.6873349,55.0264027 C28.7429155,55.0264027 -9.16257755,42.1349453 2.62630633,26.7439229 C13.9822095,11.9039857 67.6127747,0.252469955 122.817815,0.252469955 C178.003175,0.252469955 216.715586,11.9039857 209.040019,26.7439229" id="Fill-228" fill="#A4B5E9"></path>
                        <path d="M1275.7313,43.7921372 L323.527991,43.7921372 C314.966782,43.7921372 308.727923,41.9027022 309.633247,39.5999534 L319.887017,13.384043 C320.713617,11.2387471 328.074289,9.50676502 336.300922,9.50676502 L1250.12639,9.50676502 C1258.35302,9.50676502 1266.36317,11.2387471 1267.99669,13.384043 L1288.07125,39.5999534 C1289.82285,41.9027022 1284.31219,43.7921372 1275.7313,43.7921372" id="Fill-230" fill="#E0E9F8"></path>
                    </g>
                </g>
            </g>
            <g id="Group-237" transform="translate(2506.000000, 276.000000)">
                <mask id="mask-18" fill="white">
                    <use xlink:href="#path-17"></use>
                </mask>
                <g id="Clip-236"></g>
                <path d="M78.785107,0.681529148 C35.2772275,0.681529148 0.00216536118,35.9313004 0.00216536118,79.4276682 L0.00216536118,244.241507 C0.00216536118,287.737874 35.2772275,322.987646 78.785107,322.987646 L1584.18925,322.987646 C1627.69713,322.987646 1662.97219,287.737874 1662.97219,244.241507 L1662.97219,79.4276682 C1662.97219,35.9313004 1627.69713,0.681529148 1584.18925,0.681529148 L78.785107,0.681529148 Z" id="Fill-235" fill="url(#linearGradient-19)" mask="url(#mask-18)"></path>
            </g>
            <g id="Group-242" transform="translate(2578.000000, 337.000000)" fill="#E0E9F8">
                <path d="M29.8263631,94.6275 C29.8263631,58.9772727 58.6999181,29.9706818 94.1866391,29.9706818 C129.67336,29.9706818 158.546915,58.9772727 158.546915,94.6275 C158.546915,130.277727 129.67336,159.284318 94.1866391,159.284318 C58.6999181,159.284318 29.8263631,130.277727 29.8263631,94.6275 Z M164.66803,156.278864 C179.055602,139.689545 188.069977,118.295455 188.069977,94.6275 C188.069977,42.6252273 145.950408,0.311590909 94.1866391,0.311590909 C42.4228697,0.311590909 0.303300681,42.6252273 0.303300681,94.6275 C0.303300681,146.629773 42.4228697,188.943409 94.1866391,188.943409 C111.723338,188.943409 127.961022,183.762955 142.033682,175.32 L159.924658,196.2 C162.8376,199.600909 166.970829,201.340909 171.12374,201.340909 C174.528733,201.340909 177.953408,200.174318 180.728576,197.762045 C186.908737,192.423409 187.61729,183.051136 182.303139,176.8425 L164.66803,156.278864 Z" id="Fill-238"></path>
                <path d="M1318.79736,156.852273 L364.218345,156.852273 C356.975354,156.852273 351.090423,150.96 351.090423,143.663864 L351.090423,57.9886364 C351.090423,50.7122727 356.975354,44.8002273 364.218345,44.8002273 L1318.79736,44.8002273 C1326.04035,44.8002273 1331.92528,50.7122727 1331.92528,57.9886364 L1331.92528,143.663864 C1331.92528,150.96 1326.04035,156.852273 1318.79736,156.852273" id="Fill-240"></path>
            </g>
            <g id="Group-245" transform="translate(2220.000000, 0.000000)">
                <mask id="mask-21" fill="white">
                    <use xlink:href="#path-20"></use>
                </mask>
                <g id="Clip-244"></g>
                <path d="M79.4379899,0.504394619 C35.9721154,0.504394619 0.715149189,35.7541659 0.715149189,79.230852 L0.715149189,244.064372 C0.715149189,287.56074 35.9721154,322.79083 79.4379899,322.79083 L1584.08955,322.79083 C1627.57512,322.79083 1662.83208,287.56074 1662.83208,244.064372 L1662.83208,79.230852 C1662.83208,35.7541659 1627.57512,0.504394619 1584.08955,0.504394619 L79.4379899,0.504394619 Z" id="Fill-243" fill="url(#linearGradient-22)" mask="url(#mask-21)"></path>
            </g>
            <path d="M2321.7274,155.995632 C2321.7274,120.505101 2350.60803,91.6284449 2386.10346,91.6284449 C2421.59889,91.6284449 2450.47953,120.505101 2450.47953,155.995632 C2450.47953,191.486164 2421.59889,220.36282 2386.10346,220.36282 C2350.60803,220.36282 2321.7274,191.486164 2321.7274,155.995632 Z M2456.60215,217.370828 C2470.97356,200.855822 2480.00984,179.557566 2480.00984,155.995632 C2480.00984,104.226304 2437.87993,62.1022121 2386.10346,62.1022121 C2334.32699,62.1022121 2292.19709,104.226304 2292.19709,155.995632 C2292.19709,207.76496 2334.32699,249.889053 2386.10346,249.889053 C2403.64446,249.889053 2419.88613,244.751488 2433.96224,236.346354 L2451.85761,257.113138 C2454.77127,260.518496 2458.90551,262.250702 2463.05944,262.250702 C2466.46527,262.250702 2469.89078,261.069653 2472.66663,258.668186 C2478.84831,253.353464 2479.55704,244.042859 2474.24158,237.862034 L2456.60215,217.370828 Z" id="Fill-246" fill="#E0E9F8"></path>
            <path d="M3611.01661,217.949542 L2656.20339,217.949542 C2648.95862,217.949542 2643.07225,212.06398 2643.07225,204.820211 L2643.07225,119.528766 C2643.07225,112.284997 2648.95862,106.399435 2656.20339,106.399435 L3611.01661,106.399435 C3618.26138,106.399435 3624.14776,112.284997 3624.14776,119.528766 L3624.14776,204.820211 C3624.14776,212.06398 3618.26138,217.949542 3611.01661,217.949542" id="Fill-248" fill="#E0E9F8"></path>
            <path d="M4347.42763,878.512391 L2842.68137,878.512391 C2799.19307,878.512391 2763.93388,843.258069 2763.93388,799.77577 L2763.93388,634.92097 C2763.93388,591.438671 2799.19307,556.184349 2842.68137,556.184349 L4347.42763,556.184349 C4390.91593,556.184349 4426.17512,591.438671 4426.17512,634.92097 L4426.17512,799.77577 C4426.17512,843.258069 4390.91593,878.512391 4347.42763,878.512391" id="Fill-250" fill="#FFFFFF"></path>
            <path d="M2929.25241,646.8102 C2893.75698,646.8102 2864.87634,675.667171 2864.87634,711.177387 C2864.87634,746.648235 2893.75698,775.524891 2929.25241,775.524891 C2964.74784,775.524891 2993.62848,746.648235 2993.62848,711.177387 C2993.62848,675.667171 2964.74784,646.8102 2929.25241,646.8102 M2929.25241,805.051124 C2877.47594,805.051124 2835.34604,762.946716 2835.34604,711.177387 C2835.34604,659.388375 2877.47594,617.283967 2929.25241,617.283967 C2981.02888,617.283967 3023.15878,659.388375 3023.15878,711.177387 C3023.15878,762.946716 2981.02888,805.051124 2929.25241,805.051124" id="Fill-252" fill="#E0E9F8"></path>
            <path d="M3006.21232,817.412773 C3002.0584,817.412773 2997.94384,815.680567 2995.0105,812.275208 L2968.63009,781.646663 C2963.31463,775.485522 2964.00367,766.155233 2970.18535,760.820827 C2976.34734,755.486421 2985.67892,756.214734 2991.01406,762.395559 L3017.39447,793.024105 C3022.70992,799.185245 3022.02088,808.515535 3015.8392,813.830257 C3013.04367,816.251408 3009.61815,817.412773 3006.21232,817.412773" id="Fill-254" fill="#E0E9F8"></path>
            <path d="M4154.17344,773.123424 L3199.36021,773.123424 C3192.09576,773.123424 3186.22907,767.257546 3186.22907,759.994092 L3186.22907,674.702648 C3186.22907,667.458879 3192.09576,661.573316 3199.36021,661.573316 L4154.17344,661.573316 C4161.41821,661.573316 4167.30458,667.458879 4167.30458,674.702648 L4167.30458,759.994092 C4167.30458,767.257546 4161.41821,773.123424 4154.17344,773.123424" id="Fill-256" fill="#E0E9F8"></path>
            <path d="M1498.8792,5882.36243 C1559.4557,5882.36243 1608.57445,5931.4744 1608.57445,5992.04254 C1608.57445,6052.61069 1559.4557,6101.74234 1498.8792,6101.74234 C1438.3027,6101.74234 1389.18396,6052.61069 1389.18396,5992.04254 C1389.18396,5931.4744 1438.3027,5882.36243 1498.8792,5882.36243" id="Fill-258" fill="#CFE4E9"></path>
            <path d="M1823.76966,5882.36243 C1884.34616,5882.36243 1933.4649,5931.4744 1933.4649,5992.04254 C1933.4649,6052.61069 1884.34616,6101.74234 1823.76966,6101.74234 C1763.19316,6101.74234 1714.07442,6052.61069 1714.07442,5992.04254 C1714.07442,5931.4744 1763.19316,5882.36243 1823.76966,5882.36243" id="Fill-260" fill="#CFE4E9"></path>
            <path d="M2148.66012,5882.36243 C2209.2563,5882.36243 2258.35536,5931.4744 2258.35536,5992.04254 C2258.35536,6052.61069 2209.2563,6101.74234 2148.66012,6101.74234 C2088.08362,6101.74234 2038.96487,6052.61069 2038.96487,5992.04254 C2038.96487,5931.4744 2088.08362,5882.36243 2148.66012,5882.36243" id="Fill-262" fill="#CFE4E9"></path>
            <path d="M7687.3702,2302.33623 L7684.49591,2235.58726 L8023.32664,2105.49468 L8023.32664,2173.73964 C8023.32664,2224.44603 8019.29084,2274.85715 8011.65233,2324.59901 C7903.80765,2342.09822 7791.94685,2331.76404 7687.3702,2302.33623" id="Fill-264" fill="#CEDFE7"></path>
            <path d="M7764.46595,2057.7173 L7762.63507,1626.06346 L7915.14926,1651.49539 C7993.99518,1664.6444 8058.39093,1721.70877 8080.85365,1798.41792 L8122.03858,2009.92417 C8137.63058,2063.11076 8108.59245,2119.19091 8056.12694,2137.16255 L7873.43278,2229.34345 C7818.11267,2186.86504 7782.0857,2122.59627 7764.46595,2057.7173" id="Fill-266" fill="#FFFFFF"></path>
            <path d="M7576.90126,2207.62592 L7764.45808,2057.71139 C7782.07783,2122.59037 7818.1048,2186.85913 7873.44459,2229.35722 L7633.44195,2350.45415 C7591.27268,2364.90232 7545.71726,2340.59239 7534.22013,2297.54314 C7524.5145,2261.16682 7542.58705,2223.09766 7576.90126,2207.62592" id="Fill-268" fill="#FFBCA8"></path>
            <path d="M7904.59907,1711.91787 L7893.18068,1617.43392 C7887.01869,1566.6488 7842.48699,1529.36701 7791.39956,1532.26058 C7736.19757,1535.39037 7694.7764,1583.97086 7700.42653,1638.98807 L7710.19122,1733.90507 C7716.27446,1793.05596 7773.66169,1832.83763 7831.18673,1817.81862 L7832.84042,1817.36589 C7879.77392,1805.12234 7910.42638,1760.06531 7904.59907,1711.91787" id="Fill-270" fill="#FFBCA8"></path>
            <path d="M7902.90796,1697.88503 C7902.90796,1697.88503 7857.66753,1672.64995 7853.90734,1610.36928 C7853.90734,1610.36928 7756.69358,1647.47391 7699.89695,1623.79387 C7643.13971,1600.09415 7653.57375,1532.12476 7691.56941,1513.56261 C7737.9123,1490.90614 7762.63901,1532.10508 7762.63901,1532.10508 C7762.63901,1532.10508 7824.4361,1512.93271 7873.43672,1558.18659 C7923.44137,1604.36561 7902.90796,1697.88503 7902.90796,1697.88503" id="Fill-272" fill="#042A37"></path>
            <path d="M7764.46595,2057.7173 L7912.43247,1953.1157 C7922.15779,1946.32466 7914.87364,1931.16786 7903.49463,1934.51417 L7764.11159,1976.22489 L7764.46595,2057.7173 Z" id="Fill-274" fill="#CEDFE7"></path>
            <path d="M330.951666,5114.10363 C341.464455,5089.83307 342.842536,5062.57051 334.810293,5037.37479 L247.597456,4763.54851 C247.597456,4763.54851 194.22635,4608.47674 194.28541,4586.88322 C194.28541,4586.88322 566.052275,4674.26118 567.942214,4701.52374 L579.636216,4870.94526 C585.83758,4960.86248 556.031658,5076.86121 505.908885,5178.15587 L315.024988,5593.58997 C313.646907,5597.44806 313.450038,5600.99121 314.139079,5604.12099 L118.490959,5604.12099 L330.951666,5114.10363 Z" id="Fill-276" fill="#FF9272"></path>
            <path d="M118.481115,5604.11312 L314.148922,5604.11312 C314.582033,5606.06185 315.310447,5607.85311 316.531033,5609.32942 L358.798745,5659.48465 C369.64621,5672.37777 348.778127,5699.18759 327.713176,5699.38443 L122.044439,5701.43158 C97.3767898,5701.66779 85.5843543,5682.397 95.2702947,5657.65402 L118.481115,5604.11312 Z" id="Fill-278" fill="#001D47"></path>
            <path d="M551.485959,3800.5898 L581.882488,3707.81837 C595.663297,3665.75333 639.761887,3641.64024 682.639891,3652.70274 L693.132993,3655.41915 C739.4562,3667.38712 766.407526,3715.63298 752.331413,3761.35928 L722.899542,3856.96522 C707.760338,3906.13624 652.341797,3930.22964 606.038278,3907.75034 L594.580519,3902.19941 C556.821101,3883.87346 538.413877,3840.4699 551.485959,3800.5898" id="Fill-280" fill="#FFBCA8"></path>
            <path d="M752.449534,3922.44456 C773.573547,3944.64829 792.650124,3968.95822 809.541459,3994.66573 L897.837074,4128.9904 C897.837074,4128.9904 1091.9693,3919.55099 1127.34661,3914.11816 C1162.7436,3908.70502 1213.83103,3952.79753 1199.02651,3991.39816 C1187.60812,4021.12123 1080.15718,4174.06712 957.330797,4298.15603 C926.717713,4329.07984 878.386446,4333.58751 842.536654,4308.88389 L695.849781,4128.02588 L673.328002,4163.24083 C658.346293,4070.64656 681.438992,3965.7497 752.449534,3922.44456" id="Fill-282" fill="#FFBCA8"></path>
            <path d="M766.368152,5604.8434 L831.393886,5654.80178 C848.088352,5667.61617 839.170199,5694.30788 818.124935,5694.52441 L612.456198,5696.55188 C587.768862,5696.80777 567.255143,5677.61572 565.857375,5652.97116 L566.979527,5604.11509 L765.600364,5604.11509 C765.87598,5604.35129 766.092536,5604.62687 766.368152,5604.8434" id="Fill-284" fill="#001D47"></path>
            <path d="M555.013847,5073.98732 L333.241249,4784.39403 C424.765511,4763.05641 515.403863,4736.6009 604.664134,4703.03942 C647.384643,4781.93351 698.590194,4869.76421 698.590194,4869.76421 C745.267764,4959.28775 767.474554,5074.755 762.690645,5175.59693 L757.808301,5589.22008 C758.300472,5595.04659 761.155069,5600.34163 765.604301,5604.12099 L566.983464,5604.12099 L577.535627,5143.01965 C578.086859,5118.1192 570.15305,5093.7699 555.013847,5073.98732" id="Fill-286" fill="#FFBCA8"></path>
            <path d="M667.656214,3854.05393 C699.115833,3872.53735 727.248371,3895.9615 752.447566,3922.43669 C681.437024,3965.76151 658.344324,4070.65837 673.326033,4163.25264 L660.391759,4183.4289 C624.443533,4238.05243 596.822854,4297.26237 577.84471,4359.0903 C477.75666,4350.86232 384.71651,4315.47021 302.405704,4260.19711 C370.601024,4077.82341 413.951513,3832.75568 571.702407,3821.90971 C584.026388,3821.06329 630.270847,3832.06673 667.656214,3854.05393 Z" id="Fill-288" fill="#7736F6"></path>
            <path d="M181.733062,4430.84889 C219.472793,4346.22671 284.262284,4305.55924 284.262284,4305.55924 C290.562082,4291.03233 296.566578,4275.81648 302.393892,4260.18726 C384.724385,4315.48006 477.764535,4350.87217 577.852585,4359.08046 C556.787634,4427.71911 546.412653,4499.58596 547.692299,4572.14175 C547.810421,4579.2871 547.908855,4583.38141 547.908855,4583.38141 C548.538835,4596.03832 574.48613,4647.29586 604.666103,4703.04139 C515.405832,4736.60287 424.767479,4763.05838 333.243218,4784.396 L316.765307,4762.86153 L221.303672,4647.45333 C168.877535,4584.05067 148.226008,4505.98331 181.733062,4430.84889" id="Fill-290" fill="#4836F6"></path>
            <path d="M683.545487,4843.75554 C683.545487,4843.75554 487.976115,5027.94018 117.173907,4986.1704 C117.173907,4986.1704 202.614925,4765.76692 165.465801,4560.85486 C136.663909,4402.12183 284.256378,4305.55137 284.256378,4305.55137 C284.256378,4305.55137 379.599892,4400.50773 560.719102,4427.08134 C560.719102,4427.08134 539.851019,4546.95785 610.841874,4655.90965 C654.231737,4722.48146 683.545487,4843.75554 683.545487,4843.75554" id="Fill-292" fill="#7736F6"></path>
            <path d="M780.798628,3758.81018 C800.721741,3724.6188 779.696163,3640.33125 684.15578,3629.87896 C595.623923,3620.21404 560.423799,3688.00627 523.589664,3750.2082 C462.816294,3852.8217 253.387365,3916.22437 259.569042,4053.28514 C269.077801,4263.7875 523.55029,4241.01293 564.971466,4111.11719 C596.785449,4011.35789 551.289091,3891.67823 593.399307,3855.61685 C635.52921,3819.5358 677.540992,3853.21539 711.481157,3750.2082 C711.481157,3750.2082 760.855828,3792.96219 780.798628,3758.81018 Z" id="Fill-294" fill="#001D47"></path>
            <path d="M330.951666,5114.10363 C341.464455,5089.83307 342.842536,5062.57051 334.810293,5037.37479 L247.597456,4763.54851 C247.597456,4763.54851 194.22635,4608.47674 194.28541,4586.88322 C194.28541,4586.88322 566.052275,4674.26118 567.942214,4701.52374 L579.636216,4870.94526 C585.83758,4960.86248 556.031658,5076.86121 505.908885,5178.15587 L315.024988,5593.58997 C313.646907,5597.44806 313.450038,5600.99121 314.139079,5604.12099 L118.490959,5604.12099 L330.951666,5114.10363 Z" id="Fill-276" fill="#FF9272"></path>
            <path d="M118.481115,5604.11312 L314.148922,5604.11312 C314.582033,5606.06185 315.310447,5607.85311 316.531033,5609.32942 L358.798745,5659.48465 C369.64621,5672.37777 348.778127,5699.18759 327.713176,5699.38443 L122.044439,5701.43158 C97.3767898,5701.66779 85.5843543,5682.397 95.2702947,5657.65402 L118.481115,5604.11312 Z" id="Fill-278" fill="#001D47"></path>
            <path d="M551.485959,3800.5898 L581.882488,3707.81837 C595.663297,3665.75333 639.761887,3641.64024 682.639891,3652.70274 L693.132993,3655.41915 C739.4562,3667.38712 766.407526,3715.63298 752.331413,3761.35928 L722.899542,3856.96522 C707.760338,3906.13624 652.341797,3930.22964 606.038278,3907.75034 L594.580519,3902.19941 C556.821101,3883.87346 538.413877,3840.4699 551.485959,3800.5898" id="Fill-280" fill="#FFBCA8"></path>
            <path d="M752.449534,3922.44456 C773.573547,3944.64829 792.650124,3968.95822 809.541459,3994.66573 L897.837074,4128.9904 C897.837074,4128.9904 1091.9693,3919.55099 1127.34661,3914.11816 C1162.7436,3908.70502 1213.83103,3952.79753 1199.02651,3991.39816 C1187.60812,4021.12123 1080.15718,4174.06712 957.330797,4298.15603 C926.717713,4329.07984 878.386446,4333.58751 842.536654,4308.88389 L695.849781,4128.02588 L673.328002,4163.24083 C658.346293,4070.64656 681.438992,3965.7497 752.449534,3922.44456" id="Fill-282" fill="#FFBCA8"></path>
            <path d="M766.368152,5604.8434 L831.393886,5654.80178 C848.088352,5667.61617 839.170199,5694.30788 818.124935,5694.52441 L612.456198,5696.55188 C587.768862,5696.80777 567.255143,5677.61572 565.857375,5652.97116 L566.979527,5604.11509 L765.600364,5604.11509 C765.87598,5604.35129 766.092536,5604.62687 766.368152,5604.8434" id="Fill-284" fill="#001D47"></path>
            <path d="M555.013847,5073.98732 L333.241249,4784.39403 C424.765511,4763.05641 515.403863,4736.6009 604.664134,4703.03942 C647.384643,4781.93351 698.590194,4869.76421 698.590194,4869.76421 C745.267764,4959.28775 767.474554,5074.755 762.690645,5175.59693 L757.808301,5589.22008 C758.300472,5595.04659 761.155069,5600.34163 765.604301,5604.12099 L566.983464,5604.12099 L577.535627,5143.01965 C578.086859,5118.1192 570.15305,5093.7699 555.013847,5073.98732" id="Fill-286" fill="#FFBCA8"></path>
            <path d="M667.656214,3854.05393 C699.115833,3872.53735 727.248371,3895.9615 752.447566,3922.43669 C681.437024,3965.76151 658.344324,4070.65837 673.326033,4163.25264 L660.391759,4183.4289 C624.443533,4238.05243 596.822854,4297.26237 577.84471,4359.0903 C477.75666,4350.86232 384.71651,4315.47021 302.405704,4260.19711 C370.601024,4077.82341 413.951513,3832.75568 571.702407,3821.90971 C584.026388,3821.06329 630.270847,3832.06673 667.656214,3854.05393 Z" id="Fill-288" fill="#7736F6"></path>
            <path d="M181.733062,4430.84889 C219.472793,4346.22671 284.262284,4305.55924 284.262284,4305.55924 C290.562082,4291.03233 296.566578,4275.81648 302.393892,4260.18726 C384.724385,4315.48006 477.764535,4350.87217 577.852585,4359.08046 C556.787634,4427.71911 546.412653,4499.58596 547.692299,4572.14175 C547.810421,4579.2871 547.908855,4583.38141 547.908855,4583.38141 C548.538835,4596.03832 574.48613,4647.29586 604.666103,4703.04139 C515.405832,4736.60287 424.767479,4763.05838 333.243218,4784.396 L316.765307,4762.86153 L221.303672,4647.45333 C168.877535,4584.05067 148.226008,4505.98331 181.733062,4430.84889" id="Fill-290" fill="#4836F6"></path>
            <path d="M683.545487,4843.75554 C683.545487,4843.75554 487.976115,5027.94018 117.173907,4986.1704 C117.173907,4986.1704 202.614925,4765.76692 165.465801,4560.85486 C136.663909,4402.12183 284.256378,4305.55137 284.256378,4305.55137 C284.256378,4305.55137 379.599892,4400.50773 560.719102,4427.08134 C560.719102,4427.08134 539.851019,4546.95785 610.841874,4655.90965 C654.231737,4722.48146 683.545487,4843.75554 683.545487,4843.75554" id="Fill-292" fill="#7736F6"></path>
            <path d="M780.798628,3758.81018 C800.721741,3724.6188 779.696163,3640.33125 684.15578,3629.87896 C595.623923,3620.21404 560.423799,3688.00627 523.589664,3750.2082 C462.816294,3852.8217 253.387365,3916.22437 259.569042,4053.28514 C269.077801,4263.7875 523.55029,4241.01293 564.971466,4111.11719 C596.785449,4011.35789 551.289091,3891.67823 593.399307,3855.61685 C635.52921,3819.5358 677.540992,3853.21539 711.481157,3750.2082 C711.481157,3750.2082 760.855828,3792.96219 780.798628,3758.81018 Z" id="Fill-294" fill="#001D47"></path>
            <path d="M2068.61527,762.714443 C2068.61527,762.714443 2017.35066,655.691691 2062.09891,617.287904 C2107.81183,578.077067 2129.46739,616.815484 2197.09179,569.120776 C2304.03087,493.691094 2460.26587,653.191803 2261.2513,739.959559 C2261.2513,739.959559 2175.71184,770.214106 2126.49467,711.16164 C2126.49467,711.16164 2116.04094,753.56131 2068.61527,762.714443" id="Fill-296" fill="#3427F6"></path>
        </g>
    </g>
</svg>