<?xml version="1.0" encoding="UTF-8"?>
<svg width="777px" height="994px" viewBox="0 0 777 994" version="1.1" xmlns="http://www.w3.org/2000/svg" xmlns:xlink="http://www.w3.org/1999/xlink">
    <!-- Generator: Sketch 51.3 (57544) - http://www.bohemiancoding.com/sketch -->
    <title>monitor@2x</title>
    <desc>Created with Sketch.</desc>
    <defs>
        <linearGradient x1="4.27808836%" y1="45.2182966%" x2="103.749329%" y2="78.8676294%" id="linearGradient-1">
            <stop stop-color="#3B2144" offset="3.04145592%"></stop>
            <stop stop-color="#4F2C5D" offset="63.0959891%"></stop>
            <stop stop-color="#512E60" offset="100%"></stop>
        </linearGradient>
        <linearGradient x1="21.7643991%" y1="15.0228056%" x2="85.4738421%" y2="80.3794084%" id="linearGradient-2">
            <stop stop-color="#3D2149" offset="0%"></stop>
            <stop stop-color="#543062" offset="100%"></stop>
        </linearGradient>
        <linearGradient x1="30.4682634%" y1="100.108403%" x2="49.4312577%" y2="45.412052%" id="linearGradient-3">
            <stop stop-color="#60396F" offset="0%"></stop>
            <stop stop-color="#40204D" offset="100%"></stop>
        </linearGradient>
        <linearGradient x1="37.5482173%" y1="3.47230288%" x2="108.455737%" y2="100%" id="linearGradient-4">
            <stop stop-color="#522E60" offset="0%"></stop>
            <stop stop-color="#1F1224" offset="100%"></stop>
        </linearGradient>
        <linearGradient x1="0%" y1="0%" x2="92.1418546%" y2="91.3757839%" id="linearGradient-5">
            <stop stop-color="#522E60" offset="0%"></stop>
            <stop stop-color="#40204D" offset="100%"></stop>
        </linearGradient>
        <linearGradient x1="-40.5368196%" y1="-10.791503%" x2="104.554926%" y2="100%" id="linearGradient-6">
            <stop stop-color="#FED766" offset="0%"></stop>
            <stop stop-color="#FF48A4" offset="100%"></stop>
        </linearGradient>
    </defs>
    <g id="Page-1" stroke="none" stroke-width="1" fill="none" fill-rule="evenodd">
        <g id="monitor">
            <polygon id="Fill-2" fill="#3B2144" points="219.793429 741.860465 219.793429 742.401524 170.025125 747.570157 129 789.155102 145.24591 819.588551 225 767.908297 225 741.860465"></polygon>
            <polygon id="Fill-1" fill="#502D5E" points="225 766.444242 492.946104 922.898032 501 890.548219 225 708.407871"></polygon>
            <path d="M426.9788,913.763509 L398.843442,929.745208 L149.806495,786.324831 L218.158181,745.302404 L224.588395,741.559907 L252.772091,757.565382 L474.154648,885.061126 L468.430174,888.392281 L426.9788,913.763509 Z M566.570391,867.394828 L566.570391,871.433349 C566.526081,871.407194 555.300296,865.028226 532.893037,852.296445 L269.798079,700.780005 C262.289919,696.51917 250.124356,696.520359 242.62103,700.781194 L191.129773,729.848554 L122.121893,771.251413 L105.898322,780.467371 L88.6415184,790.268243 L88.4445395,786.349797 L83.0149303,786.349797 L83.0149303,811.817713 C82.811909,814.766059 84.6789792,817.756014 88.6415184,820.007694 L122.121893,839.025713 L385.214434,990.542153 C392.722594,994.804177 404.888158,994.804177 412.392692,990.543342 L430.447079,980.289518 L445.879109,971.525323 L505.548012,935.554315 L547.351049,912.120911 L566.372203,901.055104 C570.335951,898.801046 572.203021,895.81109 571.979456,892.862744 L572,867.394828 L566.570391,867.394828 Z" id="Fill-3" fill="url(#linearGradient-1)"></path>
            <path d="M426.974311,914.020702 L398.838111,930.032362 L149.793714,786.343112 L224.577851,741.495457 L252.76239,757.530938 L474.15157,885.265701 L426.974311,914.020702 Z M566.374301,859.833806 L566.373092,859.831424 L303.27268,708.032125 L269.788887,688.979644 L269.785262,688.979644 C262.280503,684.710821 250.114576,684.710821 242.611025,688.980835 L242.606191,688.979644 L180.994658,724.002097 L122.108284,759.583166 L95.6373916,774.644345 L88.6269075,778.634456 L88.625699,778.636838 C81.1245656,782.908043 81.1245656,789.829397 88.6269075,794.100602 L88.628116,794.102984 L122.108284,813.154274 L385.208696,964.954764 L385.21353,964.954764 C392.71708,969.224779 404.883007,969.224779 412.387766,964.955956 L412.391392,964.955956 L420.198275,960.513235 L445.875185,945.903474 L505.545873,909.865032 L566.371884,875.299952 L566.373092,875.29757 C573.875434,871.027556 573.875434,864.105012 566.374301,859.833806 Z" id="Fill-9" fill="url(#linearGradient-2)"></path>
            <path d="M413,579.152372 C412.800099,560.071192 399.319384,537.043452 382.708489,527.536096 C374.414414,522.787166 366.898394,522.302897 361.428063,525.356882 C361.415295,525.364004 352.939274,530.150125 336,539.715244 L346.014178,563.431408 L352.416979,564.079474 L352.416979,796.121854 L388.253035,816.636852 L413,802.469586 L413,579.152372 Z" id="Fill-12" fill="#382041"></path>
            <path d="M387,592.963171 L386.990358,592.957232 C386.799929,573.869699 373.226429,550.827123 356.501205,541.313643 C339.775982,531.797787 326.196455,539.393131 326.004821,558.262128 L326,558.259752 L326,781.931058 L387,816.636852 L387,592.963171 Z" id="Fill-15" fill="url(#linearGradient-3)"></path>
            <path d="M704.438242,358.000067 L94.8832793,9.73576032 C74.7681723,-1.63312488 56.5878732,-2.7098202 43.4320417,4.75922369 L19.8134126,18.0892406 L19.8134126,38.9525766 L16,58.9161504 L22.0974457,56.334625 L22.0974457,418.443368 C22.0931365,463.927387 54.4376079,519.177965 94.4265095,542.157356 L687.882492,881.367248 L671.529272,893.901847 L702.133055,901.698421 C716.456941,909.806742 726.810629,912.051208 733.194122,908.431818 C738.081448,905.660743 745.412437,901.50413 755.187088,895.96198 C768.64456,888.603149 776.995691,872.465437 777,849.363116 L777,481.849701 C776.995691,436.280903 744.534872,380.898918 704.438242,358.000067 Z" id="Fill-4" fill="url(#linearGradient-4)"></path>
            <path d="M681.524996,369.723637 L72.6988115,21.5372104 C32.5296085,-1.22937944 0,17.2737723 0,62.9044261 L0,430.153422 C-0.00430399689,475.627269 32.3014967,530.865492 72.2382839,553.843982 L681.3141,902.305879 C721.453175,925.119087 753.995696,906.615936 754,860.976806 L754,493.549814 C753.995696,447.986968 721.569383,392.617367 681.524996,369.723637 Z" id="Fill-1" fill="url(#linearGradient-5)"></path>
            <path d="M690.449536,874.312401 L94.7788903,534.26642 L88.7356391,530.481253 C56.8905543,512.182796 29.9957472,466.204524 30,430.084415 L30,67.6369396 C30,58.1761144 31.8499749,42.3076923 44.2299217,42.3076923 C49.5459414,42.3076923 56.3972277,44.5327847 63.5291998,48.5772666 L77.5549863,56.5365726 L657.651821,387.682184 L665.089995,392.140734 C697.020137,410.376454 723.995747,456.400733 723.995747,492.642135 L724,855.25691 C724,864.671728 722.005429,872.522289 718.535132,876.800991 C717.012624,878.674753 714.784148,880.59034 709.770078,880.59034 C704.445553,880.59034 697.585761,878.361065 690.449536,874.312401 Z" id="Fill-1" fill="url(#linearGradient-6)"></path>
        </g>
    </g>
</svg>