<?xml version="1.0" encoding="UTF-8"?>
<svg width="159px" height="164px" viewBox="0 0 159 164" version="1.1" xmlns="http://www.w3.org/2000/svg" xmlns:xlink="http://www.w3.org/1999/xlink">
    <!-- Generator: Sketch 53 (72520) - https://sketchapp.com -->
    <title>Fill 1</title>
    <desc>Created with Sketch.</desc>
    <defs>
        <linearGradient x1="3.00230518%" y1="0%" x2="96.9976948%" y2="100%" id="linearGradient-1">
            <stop stop-color="#CD61D7" offset="0%"></stop>
            <stop stop-color="#4F2DE2" offset="100%"></stop>
        </linearGradient>
    </defs>
    <g id="Page-1" stroke="none" stroke-width="1" fill="none" fill-rule="evenodd">
        <path d="M140.956779,64.0593971 L105.089994,64.0593971 C101.230314,64.0593971 98.0923623,60.9238417 98.0923623,57.0671085 L98.0923623,18.0294436 C98.0923623,8.07928112 90.0173673,0 80.0491415,0 L77.6642984,0 C67.7065325,0 59.6315374,8.07928112 59.6315374,18.0294436 L59.6315374,57.0671085 C59.6315374,60.9238417 56.4935859,64.0593971 52.6234458,64.0593971 L18.0432208,64.0593971 C8.0854549,64.0593971 0,72.1282264 0,82.0888407 L0,84.4718629 C0,94.4220254 8.0854549,102.501306 18.0432208,102.501306 L52.6234458,102.501306 C56.4935859,102.501306 59.6315374,105.636862 59.6315374,109.493595 L59.6315374,145.970556 C59.6315374,155.920719 67.7065325,164 77.6642984,164 L80.0491415,164 C90.0173673,164 98.0923623,155.920719 98.0923623,145.970556 L98.0923623,109.493595 C98.0923623,105.636862 101.230314,102.501306 105.089994,102.501306 L140.956779,102.501306 C150.914545,102.501306 159,94.4220254 159,84.4718629 L159,82.0888407 C159,72.1282264 150.914545,64.0593971 140.956779,64.0593971" id="Fill-1" fill="url(#linearGradient-1)"></path>
    </g>
</svg>