<?xml version="1.0" encoding="UTF-8"?>
<svg width="113px" height="115px" viewBox="0 0 113 115" version="1.1" xmlns="http://www.w3.org/2000/svg" xmlns:xlink="http://www.w3.org/1999/xlink">
    <!-- Generator: Sketch 52.6 (67491) - http://www.bohemiancoding.com/sketch -->
    <title>+</title>
    <desc>Created with Sketch.</desc>
    <defs>
        <linearGradient x1="0%" y1="0%" x2="100%" y2="100%" id="linearGradient-1">
            <stop stop-color="#AF25CD" offset="0%"></stop>
            <stop stop-color="#FF48A4" offset="100%"></stop>
        </linearGradient>
    </defs>
    <g id="Page-1" stroke="none" stroke-width="1" fill="none" fill-rule="evenodd">
        <path d="M43.8977695,115 C42.3574892,115 41.0272671,114.425724 39.9070632,113.277154 C38.7868593,112.128584 38.2267658,110.764677 38.2267658,109.185393 L38.2267658,74.5131086 L5.67100372,74.5131086 C4.1307234,74.5131086 2.80050126,73.9388322 1.6802974,72.7902622 C0.560093532,71.6416921 0,70.2777857 0,68.6985019 L0,45.2247191 C0,43.6454353 0.560093532,42.2815288 1.6802974,41.1329588 C2.80050126,39.9843888 4.1307234,39.4101124 5.67100372,39.4101124 L38.2267658,39.4101124 L38.2267658,5.81460674 C38.2267658,4.23532294 38.7868593,2.87141648 39.9070632,1.72284644 C41.0272671,0.574276404 42.3574892,0 43.8977695,0 L69.5223048,0 C71.0625851,0 72.3928073,0.574276404 73.5130112,1.72284644 C74.633215,2.87141648 75.1933086,4.23532294 75.1933086,5.81460674 L75.1933086,39.4101124 L107.328996,39.4101124 C108.869277,39.4101124 110.199499,39.9843888 111.319703,41.1329588 C112.439906,42.2815288 113,43.6454353 113,45.2247191 L113,68.6985019 C113,70.2777857 112.439906,71.6416921 111.319703,72.7902622 C110.199499,73.9388322 108.869277,74.5131086 107.328996,74.5131086 L75.1933086,74.5131086 L75.1933086,109.185393 C75.1933086,110.764677 74.633215,112.128584 73.5130112,113.277154 C72.3928073,114.425724 71.0625851,115 69.5223048,115 L43.8977695,115 Z" id="+" fill="url(#linearGradient-1)"></path>
    </g>
</svg>