<?xml version="1.0" encoding="UTF-8"?>
<svg width="227px" height="227px" viewBox="0 0 227 227" version="1.1" xmlns="http://www.w3.org/2000/svg" xmlns:xlink="http://www.w3.org/1999/xlink">
    <!-- Generator: Sketch 52.6 (67491) - http://www.bohemiancoding.com/sketch -->
    <title>Group 4</title>
    <desc>Created with Sketch.</desc>
    <defs>
        <linearGradient x1="0%" y1="0%" x2="100%" y2="100%" id="linearGradient-1">
            <stop stop-color="#FED666" offset="0%"></stop>
            <stop stop-color="#FF48A4" offset="100%"></stop>
        </linearGradient>
    </defs>
    <g id="Page-1" stroke="none" stroke-width="1" fill="none" fill-rule="evenodd">
        <g id="Group-4" fill="url(#linearGradient-1)">
            <path d="M88.1840149,227 C85.0898234,227 82.4176073,225.866428 80.1672862,223.599251 C77.9169652,221.332074 76.7918216,218.639841 76.7918216,215.522472 L76.7918216,147.082397 L11.3921933,147.082397 C8.29800188,147.082397 5.62578572,145.948825 3.37546468,143.681648 C1.12514364,141.414471 0,138.722238 0,135.604869 L0,89.2696629 C0,86.152294 1.12514364,83.4600613 3.37546468,81.1928839 C5.62578572,78.9257065 8.29800188,77.7921348 11.3921933,77.7921348 L76.7918216,77.7921348 L76.7918216,11.4775281 C76.7918216,8.36015919 77.9169652,5.66792644 80.1672862,3.40074906 C82.4176073,1.13357169 85.0898234,0 88.1840149,0 L139.659851,0 C142.754043,0 145.426259,1.13357169 147.67658,3.40074906 C149.926901,5.66792644 151.052045,8.36015919 151.052045,11.4775281 L151.052045,77.7921348 L215.607807,77.7921348 C218.701998,77.7921348 221.374214,78.9257065 223.624535,81.1928839 C225.874856,83.4600613 227,86.152294 227,89.2696629 L227,135.604869 C227,138.722238 225.874856,141.414471 223.624535,143.681648 C221.374214,145.948825 218.701998,147.082397 215.607807,147.082397 L151.052045,147.082397 L151.052045,215.522472 C151.052045,218.639841 149.926901,221.332074 147.67658,223.599251 C145.426259,225.866428 142.754043,227 139.659851,227 L88.1840149,227 Z" id="+"></path>
        </g>
    </g>
</svg>