<?xml version="1.0" encoding="UTF-8"?>
<svg width="143px" height="147px" viewBox="0 0 143 147" version="1.1" xmlns="http://www.w3.org/2000/svg" xmlns:xlink="http://www.w3.org/1999/xlink">
    <!-- Generator: Sketch 52.6 (67491) - http://www.bohemiancoding.com/sketch -->
    <title>Fill 1</title>
    <desc>Created with Sketch.</desc>
    <defs>
        <linearGradient x1="0%" y1="0%" x2="100%" y2="100%" id="linearGradient-1">
            <stop stop-color="#CD61D7" offset="0%"></stop>
            <stop stop-color="#4F2DE2" offset="100%"></stop>
        </linearGradient>
    </defs>
    <g id="Page-1" stroke="none" stroke-width="1" fill="none" fill-rule="evenodd">
        <path d="M94.5149003,57.4190937 C91.0436156,57.4190937 88.2214328,54.6085654 88.2214328,51.1516156 L88.2214328,16.1605379 C88.2214328,7.24179466 80.9590159,0 71.993882,0 L69.8490231,0 C60.8932965,0 53.6308795,7.24179466 53.6308795,16.1605379 L53.6308795,51.1516156 C53.6308795,54.6085654 50.8086968,57.4190937 47.3280047,57.4190937 L16.2275508,57.4190937 C7.27182422,57.4190937 0,64.65152 0,73.5796316 L0,75.7156332 C0,84.6343764 7.27182422,91.8761711 16.2275508,91.8761711 L47.3280047,91.8761711 C50.8086968,91.8761711 53.6308795,94.6866994 53.6308795,98.1436492 L53.6308795,130.839462 C53.6308795,139.758205 60.8932965,147 69.8490231,147 L71.993882,147 C80.9590159,147 88.2214328,139.758205 88.2214328,130.839462 L88.2214328,98.1436492 C88.2214328,94.6866994 91.0436156,91.8761711 94.5149003,91.8761711 L126.772449,91.8761711 C135.728176,91.8761711 143,84.6343764 143,75.7156332 L143,73.5796316 C143,64.65152 135.728176,57.4190937 126.772449,57.4190937 L94.5149003,57.4190937 Z" id="Fill-1" fill="url(#linearGradient-1)"></path>
    </g>
</svg>