<?xml version="1.0" standalone="no"?>
<!DOCTYPE svg PUBLIC "-//W3C//DTD SVG 20010904//EN"
 "http://www.w3.org/TR/2001/REC-SVG-20010904/DTD/svg10.dtd">
<svg version="1.0" xmlns="http://www.w3.org/2000/svg"
 width="261.000000pt" height="261.000000pt" viewBox="0 0 261.000000 261.000000"
 preserveAspectRatio="xMidYMid meet">
<metadata>
Created by potrace 1.11, written by Peter Selinger 2001-2013
</metadata>
<g transform="translate(0.000000,261.000000) scale(0.100000,-0.100000)"
fill="#000000" stroke="none">
<path d="M1210 2174 c-42 -18 -76 -49 -98 -89 -14 -25 -17 -69 -19 -279 -2
-206 -5 -252 -18 -272 -19 -29 6 -26 -250 -28 -238 -3 -267 -8 -319 -66 -42
-46 -55 -89 -50 -164 5 -84 37 -132 113 -171 29 -15 68 -17 257 -19 210 -1
225 -2 244 -21 19 -19 20 -33 21 -240 1 -240 6 -278 46 -326 70 -83 223 -93
305 -21 61 54 66 80 67 335 1 218 3 233 22 252 18 19 34 20 248 21 240 2 261
5 318 53 37 31 63 91 63 147 0 92 -33 155 -103 194 -39 23 -50 24 -275 25
-232 1 -235 1 -253 24 -11 14 -19 39 -19 61 0 21 -1 134 -2 253 l-3 215 -30
44 c-56 79 -174 112 -265 72z"/>
</g>
</svg>
