<?xml version="1.0" encoding="UTF-8"?>
<svg width="166px" height="111px" viewBox="0 0 166 111" version="1.1" xmlns="http://www.w3.org/2000/svg" xmlns:xlink="http://www.w3.org/1999/xlink">
    <!-- Generator: Sketch 51.3 (57544) - http://www.bohemiancoding.com/sketch -->
    <title>s_editor_code</title>
    <desc>Created with Sketch.</desc>
    <defs></defs>
    <g id="Page-1" stroke="none" stroke-width="1" fill="none" fill-rule="evenodd">
        <g id="Desktop-HD" transform="translate(-315.000000, -2683.000000)">
            <g id="Group-29" transform="translate(0.000000, 2477.000000)">
                <g id="Group-62" transform="translate(281.000000, 102.000000)">
                    <g id="web-stuff">
                        <g id="Group-13" transform="translate(0.000000, 21.000000)">
                            <g id="s_editor_vector" transform="translate(0.000000, 55.000000)">
                                <g id="s_editor_code" transform="translate(34.883721, 28.903654)">
                                    <path d="M0,104.761079 L3.18306483,102.788924 L3.45589895,103.451834 L0.68621917,105.142252 L3.45589895,106.840957 L3.15826172,107.487294 L0,105.515139 L0,104.761079 Z M9.35903736,101.081933 L5.58896577,108.871117 L5.08463602,108.547949 L8.84643991,100.767051 L9.35903736,101.081933 Z M12.9554872,105.03453 C13.5507647,105.145015 13.9779249,105.302454 14.2369809,105.506852 C14.4960368,105.71125 14.6255628,105.990222 14.6255628,106.343775 C14.6255628,106.791241 14.4546987,107.155838 14.1129653,107.437576 C13.771232,107.719314 13.316513,107.86018 12.7487947,107.86018 C11.9275323,107.86018 11.2688787,107.528729 10.7728142,106.865816 L11.2440732,106.385207 C11.7180904,106.948683 12.2224151,107.230417 12.7570624,107.230417 C13.0822603,107.230417 13.3647372,107.143411 13.6045017,106.969396 C13.8442663,106.795382 13.9641467,106.589605 13.9641467,106.352062 C13.9641467,106.191858 13.8883602,106.067564 13.736785,105.979175 C13.5852097,105.890787 13.3054886,105.805162 12.8976133,105.722298 C12.2196585,105.584191 11.7291131,105.401893 11.4259626,105.175398 C11.122812,104.948903 10.971239,104.650596 10.971239,104.28047 C10.971239,103.860626 11.1379693,103.522269 11.4714349,103.26539 C11.8049005,103.008512 12.2472181,102.880074 12.7984009,102.880074 C13.6196633,102.880074 14.2094201,103.136949 14.5676889,103.650706 L14.121233,104.09817 C13.9283191,103.893772 13.7367859,103.747381 13.5466278,103.658993 C13.3564698,103.570604 13.1318661,103.526411 12.8728102,103.526411 C12.5145414,103.526411 12.2182851,103.595463 11.9840324,103.73357 C11.7497797,103.871677 11.6326551,104.048451 11.6326551,104.263898 C11.6326551,104.451723 11.7373783,104.605019 11.9468277,104.723791 C12.1562772,104.842563 12.4924937,104.946141 12.9554872,105.03453 Z M19.3794908,106.252625 L20.1897255,106.368635 C20.1015362,106.821625 19.8700429,107.182078 19.4952386,107.450005 C19.1204343,107.717932 18.6629594,107.851894 18.1228003,107.851894 C17.4448454,107.851894 16.9212296,107.64888 16.5519371,107.242846 C16.1826446,106.836812 15.9980011,106.263678 15.9980011,105.523425 C15.9980011,104.738979 16.1798887,104.102316 16.5436694,103.613418 C16.9074501,103.12452 17.4338217,102.880074 18.1228003,102.880074 C18.580282,102.880074 18.9950408,103.000225 19.3670892,103.240531 C19.7391376,103.480837 19.9857882,103.794335 20.1070485,104.181034 L19.3298846,104.404766 C19.2472072,104.139601 19.0956342,103.929682 18.875161,103.775002 C18.6546879,103.620322 18.4039035,103.542984 18.1228003,103.542984 C17.6708304,103.542984 17.3346139,103.715615 17.1141408,104.060882 C16.8936676,104.406149 16.7834327,104.893658 16.7834327,105.523425 C16.7834327,106.639328 17.2298841,107.197271 18.1228003,107.197271 C18.4700454,107.197271 18.7525224,107.11717 18.9702396,106.956967 C19.1879568,106.796763 19.3243725,106.561985 19.3794908,106.252625 Z M25.5058571,103.791575 C25.0979818,103.581652 24.7066479,103.547126 24.3318436,103.687995 C23.9570393,103.828864 23.7283018,104.081596 23.6456244,104.446198 L23.6456244,107.155839 L25.0428659,107.155839 L25.0428659,107.188985 C25.0428659,107.443101 25.0594011,107.625399 25.0924721,107.735885 L21.5042899,107.735885 L21.5042899,107.155839 L22.967673,107.155839 L22.967673,103.592702 L22.000352,103.534697 L22.000352,103.012656 L23.7365691,103.012656 C23.70901,103.05685 23.6800733,103.145237 23.6497583,103.27782 C23.6194432,103.410402 23.6042859,103.507076 23.6042859,103.567843 C23.8468064,103.109328 24.3263282,102.880074 25.0428659,102.880074 C25.2578272,102.880074 25.5582173,102.954651 25.9440453,103.103806 L25.5058571,103.791575 Z M28.9782915,102.175733 C28.6310463,102.175733 28.4574263,102.001721 28.4574263,101.653692 C28.4574263,101.311187 28.6310463,101.139937 28.9782915,101.139937 C29.3200248,101.139937 29.4908889,101.311187 29.4908889,101.653692 C29.4908889,102.001721 29.3200248,102.175733 28.9782915,102.175733 Z M30.8385242,107.188985 C30.8385242,107.443101 30.8550594,107.625399 30.8881304,107.735885 L27.2999482,107.735885 L27.2999482,107.155839 L28.7219927,107.155839 L28.7219927,103.592702 L27.7546717,103.534697 L27.7546717,103.012656 L29.3999442,103.012656 L29.3916765,107.155839 L30.8385242,107.155839 L30.8385242,107.188985 Z M34.5507218,102.880074 C35.2121412,102.880074 35.7261115,103.087231 36.0926481,103.501552 C36.4591846,103.915872 36.6424502,104.495912 36.6424502,105.241689 C36.6424502,106.026135 36.4440273,106.657274 36.0471757,107.135123 C35.6503241,107.612973 35.1239524,107.851894 34.4680448,107.851894 C33.9389093,107.851894 33.4952138,107.694455 33.136945,107.379571 L33.136945,109.393158 L32.4341904,109.442876 L32.4341904,103.012656 L33.3188344,103.012656 C33.1975742,103.189433 33.136945,103.38278 33.136945,103.592702 L33.136945,103.609275 C33.4786783,103.123139 33.9499326,102.880074 34.5507218,102.880074 Z M34.4680448,107.180698 C34.8979674,107.180698 35.2507191,106.999781 35.5263105,106.637941 C35.801902,106.276102 35.9396956,105.810689 35.9396956,105.241689 C35.9396956,104.716883 35.8129254,104.295664 35.5593814,103.978018 C35.3058373,103.660372 34.9696208,103.501552 34.5507218,103.501552 C34.2530831,103.501552 33.9816297,103.583034 33.7363533,103.746 C33.491077,103.908966 33.2912762,104.139601 33.136945,104.437911 L33.136945,106.451498 C33.3463945,106.937634 33.79009,107.180698 34.4680448,107.180698 Z M41.429449,106.476357 L42.0577942,106.758094 C41.8869275,107.12822 41.6581901,107.404429 41.371575,107.58673 C41.08496,107.769031 40.7790581,107.86018 40.4538603,107.86018 C40.012914,107.86018 39.6298477,107.702741 39.3046498,107.387858 C38.979452,107.072974 38.8168555,106.650374 38.8168555,106.120044 L38.8168555,103.650706 L38.056227,103.650706 L38.056227,103.012656 L38.8168555,103.012656 L38.8168555,101.222801 L39.5196101,101.272519 L39.5196101,103.012656 L41.5286614,103.012656 L41.5286614,103.650706 L39.5196101,103.650706 L39.5196101,106.120044 C39.5196101,106.4515 39.6091759,106.708375 39.7883103,106.890676 C39.9674447,107.072977 40.1865366,107.164126 40.4455926,107.164126 C40.6495302,107.164126 40.8396854,107.106122 41.0160639,106.990112 C41.1924424,106.874102 41.330236,106.702852 41.429449,106.476357 Z M47.175501,104.761079 L47.175501,105.515139 L44.0172393,107.487294 L43.7196021,106.840957 L46.4892819,105.142252 L43.7196021,103.451834 L43.9924362,102.788924 L47.175501,104.761079 Z" id="&lt;/script&gt;" fill="#CC4D83"></path>
                                    <path d="M15.3261235,92.7281462 C14.7677419,92.6247353 14.4885552,92.2333588 14.4885552,91.5540052 C14.4885552,91.305413 14.5422947,90.9905342 14.6497754,90.6093595 C14.757256,90.2281847 14.8109955,89.974072 14.8109955,89.8470138 C14.8109955,89.5763245 14.7021385,89.3954073 14.4844213,89.3042568 C14.2667041,89.2131063 13.9897389,89.1896285 13.6535174,89.2338227 L13.6535174,88.6869225 C14.1991884,88.6427283 14.6511515,88.721448 15.0094203,88.923084 C15.3676892,89.1247199 15.5468209,89.449266 15.5468209,89.896732 C15.5468209,90.0790329 15.4917034,90.3386698 15.3814669,90.6756504 C15.2712303,91.012631 15.2161129,91.2998888 15.2161129,91.5374325 C15.2161129,91.6534422 15.2271364,91.7556397 15.2491837,91.844028 C15.271231,91.9324164 15.3167029,92.0249465 15.3856007,92.1216213 C15.4544986,92.218296 15.5647335,92.2914915 15.7163088,92.34121 C15.867884,92.3909284 16.0594172,92.4157873 16.290914,92.4157873 L16.290914,93.0786966 C16.0594172,93.0786966 15.8665061,93.1049365 15.7121749,93.157417 C15.5578437,93.2098976 15.4476088,93.2844742 15.3814669,93.3811489 C15.3153249,93.4778237 15.271231,93.5703539 15.2491837,93.6587422 C15.2271364,93.7471305 15.2161129,93.849328 15.2161129,93.9653377 C15.2161129,94.2084057 15.2712303,94.4721857 15.3814669,94.7566857 C15.4917034,95.0411857 15.5468209,95.282869 15.5468209,95.4817428 C15.5468209,95.9623544 15.3676892,96.3145214 15.0094203,96.5382544 C14.6511515,96.7619874 14.1991884,96.8517555 13.6535174,96.8075613 L13.6535174,96.2606612 C13.9787153,96.3048553 14.2529246,96.2730913 14.4761536,96.165368 C14.6993827,96.0576447 14.8109955,95.8573928 14.8109955,95.5646064 C14.8109955,95.4264996 14.757256,95.1944837 14.6497754,94.8685517 C14.5422947,94.5426196 14.4885552,94.2470755 14.4885552,93.9819105 C14.4885552,93.6559784 14.5560741,93.378388 14.6911139,93.1491307 C14.8261334,92.9199077 15.0424249,92.7804294 15.3399947,92.7306915 L15.3261235,92.7281462 Z" id="}" fill="#5BD4F7"></path>
                                    <path d="M30.5859371,79.8299636 C30.0275554,79.7265528 29.7483688,79.3351763 29.7483688,78.6558227 C29.7483688,78.4072304 29.8021083,78.0923517 29.9095889,77.7111769 C30.0170696,77.3300022 30.0708091,77.0758895 30.0708091,76.9488312 C30.0708091,76.6781419 29.9619521,76.4972247 29.7442349,76.4060743 C29.5265177,76.3149238 29.2495525,76.291446 28.913331,76.3356402 L28.913331,75.78874 C29.459002,75.7445458 29.9109651,75.8232655 30.2692339,76.0249014 C30.6275027,76.2265373 30.8066345,76.5510834 30.8066345,76.9985494 C30.8066345,77.1808504 30.751517,77.4404873 30.6412804,77.7774679 C30.5310439,78.1144484 30.4759264,78.4017063 30.4759264,78.6392499 C30.4759264,78.7552596 30.4869499,78.8574571 30.5089972,78.9458455 C30.5310445,79.0342338 30.5765164,79.126764 30.6454143,79.2234388 C30.7143121,79.3201135 30.8245471,79.393309 30.9761223,79.4430275 C31.1276976,79.4927459 31.3192308,79.5176048 31.5507275,79.5176048 L31.5507275,80.180514 C31.3192308,80.180514 31.1263197,80.2067539 30.9719885,80.2592345 C30.8176573,80.3117151 30.7074224,80.3862917 30.6412804,80.4829664 C30.5751385,80.5796412 30.5310445,80.6721713 30.5089972,80.7605597 C30.4869499,80.848948 30.4759264,80.9511455 30.4759264,81.0671552 C30.4759264,81.3102232 30.5310439,81.5740032 30.6412804,81.8585032 C30.751517,82.1430032 30.8066345,82.3846864 30.8066345,82.5835602 C30.8066345,83.0641719 30.6275027,83.4163389 30.2692339,83.6400719 C29.9109651,83.8638049 29.459002,83.953573 28.913331,83.9093788 L28.913331,83.3624786 C29.2385288,83.4066728 29.5127382,83.3749087 29.7359672,83.2671854 C29.9591962,83.1594621 30.0708091,82.9592103 30.0708091,82.6664239 C30.0708091,82.5283171 30.0170696,82.2963012 29.9095889,81.9703691 C29.8021083,81.6444371 29.7483688,81.348893 29.7483688,81.083728 C29.7483688,80.7577959 29.8158876,80.4802054 29.9509274,80.2509482 C30.085947,80.0217252 30.3022384,79.8822469 30.5998083,79.832509 L30.5859371,79.8299636 Z" id="}" fill="#5BD4F7"></path>
                                    <g id="Group-10" transform="translate(46.582589, 62.878640)">
                                        <path d="M46.537707,5.02746535 L43.3050359,5.02746535 L43.3050359,4.36455606 L46.537707,4.36455606 L46.537707,5.02746535 Z M52.2341529,6.63502038 C52.2341529,6.88913688 52.2506881,7.07143512 52.2837591,7.18192055 L48.6955769,7.18192055 L48.6955769,6.60187492 L50.1258891,6.60187492 L50.1258891,1.79578256 C49.8613214,2.16038449 49.3625084,2.38135205 48.6294353,2.45869185 L48.555026,1.7626371 C49.2770755,1.59690894 49.8006913,1.24888505 50.1258891,0.718554962 L50.8286437,0.718554962 L50.8286437,6.60187492 L52.2341529,6.60187492 L52.2341529,6.63502038 Z M57.012884,2.07751901 C57.012884,1.80682969 56.9164284,1.59414842 56.7235144,1.43946882 C56.5306004,1.28478921 56.2550132,1.20745056 55.8967443,1.20745056 C55.3014669,1.20745056 54.8302127,1.47813582 54.4829675,2.01951445 L53.9951731,1.6880598 C54.3644656,0.942283118 54.9817811,0.569400371 55.8471381,0.569400371 C56.3983209,0.569400371 56.8461503,0.70888614 57.1906395,0.987861861 C57.5351288,1.26683758 57.7073708,1.62729091 57.7073708,2.06923264 C57.7073708,2.33439768 57.6467416,2.61475027 57.5254814,2.91029881 C57.4042212,3.20584734 57.2264674,3.51382087 56.9922147,3.83422863 C56.757962,4.15463639 56.5306025,4.44327526 56.3101294,4.70015389 C56.0896563,4.95703253 55.8154469,5.2691492 55.4874931,5.63651327 C55.1595394,6.00387733 54.9046211,6.29804039 54.7227308,6.51901126 L57.9884727,6.51901126 L57.9884727,7.18192055 L53.7636775,7.18192055 L53.7636775,6.51901126 C53.9841506,6.24832195 54.3176112,5.87682024 54.7640693,5.40449501 C55.2105274,4.93216978 55.5784364,4.53719028 55.8678074,4.21954466 C56.1571784,3.90189903 56.4203642,3.54282676 56.6573728,3.14231706 C56.8943814,2.74180736 57.012884,2.38687822 57.012884,2.07751901 Z M59.6833513,1.32345969 C59.7880761,1.09144028 59.9933886,0.910523093 60.299295,0.780702708 C60.6052015,0.650882322 60.9290165,0.585973103 61.2707499,0.585973103 C61.810909,0.585973103 62.2614942,0.747555627 62.622519,1.07072552 C62.9835437,1.39389542 63.1640534,1.81787691 63.1640534,2.34268272 C63.1640534,3.04426523 62.8774426,3.55249061 62.3042125,3.86737409 C62.6018512,3.99443234 62.8374783,4.20711361 63.0111009,4.50542429 C63.1847235,4.80373496 63.2715335,5.14623467 63.2715335,5.53293369 C63.2715335,6.09088513 63.088268,6.525915 62.7217314,6.83803636 C62.3551948,7.15015771 61.8439804,7.30621604 61.1880729,7.30621604 C60.3282277,7.30621604 59.7081563,6.94714377 59.3278402,6.22898844 L59.8156345,5.8975338 C60.0140604,6.18479593 60.2193729,6.38642882 60.4315783,6.50243853 C60.6437836,6.61844823 60.9262606,6.67645222 61.2790176,6.67645222 C61.6868929,6.67645222 61.9969286,6.57839786 62.2091339,6.38228622 C62.4213393,6.18617457 62.5274404,5.90582199 62.5274404,5.54122005 C62.5274404,5.09927832 62.3924027,4.75815966 62.1223231,4.51785384 C61.8522435,4.27754802 61.4719331,4.15739691 60.9813804,4.15739691 L60.6176015,4.15739691 L60.6176015,3.57735128 L60.9813804,3.57735128 C61.4498858,3.57735128 61.8081492,3.47101064 62.0561815,3.25832618 C62.3042137,3.04564172 62.428228,2.74043029 62.428228,2.34268272 C62.428228,1.98912934 62.319371,1.71291989 62.1016538,1.51404611 C61.8839366,1.31517233 61.5766568,1.21573693 61.1798052,1.21573693 C60.9648439,1.21573693 60.7567755,1.2557873 60.5555938,1.33588924 C60.354412,1.41599118 60.2097287,1.54719066 60.1215395,1.72949163 L59.6833513,1.32345969 Z M68.5711297,4.70429707 L68.5711297,5.36720637 L67.6699503,5.36720637 L67.6699503,7.18192055 L66.9671958,7.18192055 L66.9671958,5.36720637 L64.7597196,5.36720637 L64.7597196,4.70429707 L66.8349126,0.718554962 L67.5790056,0.718554962 L65.5038127,4.70429707 L66.9671958,4.70429707 L66.9671958,3.51934672 L67.7195566,3.51934672 C67.6864856,3.62983215 67.6699503,3.81213038 67.6699503,4.06624688 L67.6699503,4.70429707 L68.5711297,4.70429707 Z M70.9356922,3.96681049 L70.3073469,3.96681049 L70.5719133,0.718554962 L73.8128521,0.718554962 L73.8128521,1.29860059 L71.216794,1.29860059 L71.0349046,3.37019213 C71.1947476,3.02768728 71.5612787,2.85643743 72.1345088,2.85643743 C72.7187626,2.85643743 73.1927727,3.05116508 73.5565534,3.44062624 C73.920334,3.83008739 74.1022216,4.33969382 74.1022216,4.96946079 C74.1022216,5.64342194 73.9134443,6.20136501 73.5358841,6.64330675 C73.1583239,7.08524849 72.68018,7.30621604 72.101438,7.30621604 C71.4620659,7.30621604 70.8502622,7.01343403 70.2660084,6.42786123 L70.7289997,5.97211109 C71.1203395,6.41405283 71.5778143,6.63502038 72.101438,6.63502038 C72.5148251,6.63502038 72.8358843,6.48862938 73.0646252,6.19584298 C73.293366,5.90305658 73.4077347,5.4942666 73.4077347,4.96946079 C73.4077347,4.48884915 73.2878543,4.12149059 73.0480897,3.86737409 C72.8083252,3.6132576 72.4624632,3.48620125 72.0104933,3.48620125 C71.7734847,3.48620125 71.5571487,3.52901372 71.3614788,3.61463993 C71.1658089,3.70026614 71.0238814,3.81765515 70.9356922,3.96681049 Z M78.9801651,1.44775518 C78.7100855,1.29859985 78.3931602,1.2240233 78.0293795,1.2240233 C77.5388268,1.2240233 77.1392253,1.40770258 76.8305629,1.77506664 C76.5219005,2.14243071 76.3675716,2.618892 76.3675716,3.2044648 L76.3675716,3.61878311 C76.5108792,3.44753069 76.7161917,3.31356911 76.9835154,3.21689435 C77.250839,3.1202196 77.5443395,3.07188295 77.8640255,3.07188295 C78.4978857,3.07188295 79.0022104,3.25694327 79.3770147,3.62706948 C79.7518191,3.99719568 79.9392184,4.49713477 79.9392184,5.12690175 C79.9392184,5.78429008 79.7421735,6.31185012 79.3480778,6.70959768 C78.9539821,7.10734524 78.4317442,7.30621604 77.7813485,7.30621604 C77.1309528,7.30621604 76.6156046,7.1032021 76.2352884,6.69716813 C75.8549723,6.29113416 75.6648171,5.74009632 75.6648171,5.04403809 L75.6648171,3.2044648 C75.6648171,2.43659104 75.8866648,1.80821455 76.330367,1.31931651 C76.7740691,0.83041846 77.3486686,0.585973103 78.0541826,0.585973103 C78.5888299,0.585973103 79.0380372,0.69645688 79.4018179,0.917427749 L78.9801651,1.44775518 Z M77.7813485,6.63502038 C78.1947356,6.63502038 78.5433535,6.49001043 78.8272126,6.19998616 C79.1110718,5.9099619 79.2529992,5.55227067 79.2529992,5.12690175 C79.2529992,4.70153283 79.1220953,4.35350893 78.8602834,4.08281961 C78.5984716,3.8121303 78.2663889,3.67678767 77.8640255,3.67678767 C77.5608749,3.67678767 77.2701304,3.74860213 76.9917831,3.89223319 C76.7134357,4.03586426 76.5053673,4.22092458 76.3675716,4.44741972 L76.3675716,5.04403809 C76.3730835,5.51360118 76.5081212,5.89615126 76.772689,6.1916998 C77.0372567,6.48724833 77.3734732,6.63502038 77.7813485,6.63502038 Z M85.2140115,0.718554962 L85.2140115,1.29860059 C85.103775,1.46985301 84.909486,1.75434874 84.6311386,2.1520963 C84.3527913,2.54984387 84.1419671,2.85643635 83.9986595,3.07188295 C83.855352,3.28732954 83.6748423,3.58839783 83.4571251,3.97509685 C83.2394079,4.36179587 83.0740555,4.70291454 82.9610631,4.99846307 C82.8480706,5.29401161 82.7474812,5.63651132 82.659292,6.02597247 C82.5711027,6.41543363 82.5270088,6.8007458 82.5270088,7.18192055 L81.7415772,7.18192055 C81.747089,6.8007458 81.7953168,6.41405258 81.886262,6.02182929 C81.9772071,5.629606 82.0791744,5.28710629 82.1921669,4.99431989 C82.3051594,4.70153349 82.4732676,4.36179587 82.6964966,3.97509685 C82.9197257,3.58839783 83.1016133,3.28871059 83.2421649,3.07602613 C83.3827165,2.86334167 83.5949187,2.55536814 83.8787779,2.1520963 C84.162637,1.74882447 84.3596819,1.46432874 84.4699185,1.29860059 L81.0140195,1.29860059 L81.0140195,0.718554962 L85.2140115,0.718554962 Z M88.0085119,3.85552168 C88.0112574,3.85671584 88.0140075,3.85790452 88.0167621,3.85908773 L88.0085119,3.85552168 Z M88.0085119,3.85552168 C87.6651492,3.70618015 87.3923119,3.4712097 87.1899921,3.15060342 C86.9860544,2.82743353 86.8840871,2.47250439 86.8840871,2.08580537 C86.8840871,1.61071801 87.0342822,1.2419784 87.3346768,0.979575495 C87.6350714,0.717172589 88.0388068,0.585973103 88.545895,0.585973103 C89.0474713,0.585973103 89.4470729,0.719934683 89.7447116,0.987861861 C90.0423503,1.25578904 90.1939233,1.62176655 90.1994352,2.08580537 C90.204947,2.46698012 90.1098694,2.82052821 89.9141995,3.14646024 C89.7185347,3.47238373 89.4553575,3.707158 89.12466,3.85079007 C89.6100434,3.98727244 89.9643743,4.222335 90.1994352,4.55928567 C90.4364438,4.89902838 90.5549463,5.27881636 90.5549463,5.69866101 C90.5549463,6.19032119 90.3689249,6.58115755 89.9968765,6.87118182 C89.6248281,7.16120608 89.1411724,7.30621604 88.545895,7.30621604 C87.9726649,7.30621604 87.5027886,7.15844399 87.136252,6.86289545 C86.7697154,6.56734692 86.5864499,6.18203474 86.5864499,5.70694738 C86.5864499,5.29815127 86.7077083,4.92250643 86.9502287,4.58000158 C87.1927456,4.2375017 87.5482464,3.99720149 88.0167418,3.85909374 L88.0085119,3.85552168 Z M88.5706981,1.24888239 C88.2510121,1.24888239 88.0002276,1.32898313 87.8183373,1.48918701 C87.636447,1.64939089 87.5455032,1.87312054 87.5455032,2.16038267 C87.5455032,2.74595547 87.8872314,3.19893896 88.5706981,3.51934672 C89.2045583,3.19341469 89.5269954,2.7404312 89.5380191,2.16038267 C89.5435309,1.87312054 89.4622327,1.64939089 89.2941219,1.48918701 C89.1260112,1.32898313 88.8848723,1.24888239 88.5706981,1.24888239 Z M88.545895,6.64330675 C88.9758176,6.64330675 89.3037664,6.56182497 89.5297514,6.39885895 C89.7557363,6.23589293 89.8687271,5.99973386 89.8687271,5.69037465 C89.8687271,5.35891834 89.7571143,5.05370691 89.5338852,4.77473119 C89.3106562,4.49575547 88.9813294,4.28997943 88.545895,4.15739691 C88.1214842,4.28997943 87.7990471,4.49299337 87.578574,4.76644482 C87.3581009,5.03989627 87.247866,5.3478698 87.247866,5.69037465 C87.247866,6.32566589 87.680538,6.64330675 88.545895,6.64330675 Z M92.8533671,6.45272033 C93.1124231,6.59635139 93.4293484,6.66816585 93.8041527,6.66816585 C94.2947054,6.66816585 94.694307,6.48586762 95.0029694,6.12126568 C95.3116317,5.75666375 95.4659606,5.28158351 95.4659606,4.69601071 L95.4659606,4.2816924 C95.3116294,4.46399337 95.1008051,4.61452751 94.8334815,4.73329936 C94.5661578,4.8520712 94.2781691,4.91145623 93.9695067,4.91145623 C93.3301347,4.91145623 92.824432,4.72225276 92.4523836,4.34384015 C92.0803352,3.96542754 91.8943138,3.44201064 91.8943138,2.77357376 C91.8943138,2.11618543 92.0913587,1.58862539 92.4854544,1.19087783 C92.8795502,0.793130268 93.401788,0.594259469 94.0521838,0.594259469 C94.7025795,0.594259469 95.2179277,0.79727341 95.5982438,1.20330738 C95.97856,1.60934135 96.1687152,2.16037919 96.1687152,2.85643743 L96.1687152,4.69601071 C96.1687152,5.46388448 95.9468674,6.09087991 95.5031653,6.57701582 C95.0594631,7.06315173 94.4848636,7.30621604 93.7793496,7.30621604 C93.2336786,7.30621604 92.7844714,7.19849436 92.4317144,6.98304776 L92.8533671,6.45272033 Z M94.0521838,1.26545513 C93.6387966,1.26545513 93.2901787,1.41046508 93.0063196,1.70048935 C92.7224604,1.99051361 92.580533,2.34820484 92.580533,2.77357376 C92.580533,3.23208832 92.710059,3.60220897 92.9691149,3.88394683 C93.2281709,4.16568468 93.5616315,4.3065515 93.9695067,4.3065515 C94.2616336,4.3065515 94.5482444,4.22230762 94.8293476,4.05381733 C95.1104509,3.88532705 95.3226531,3.6850752 95.4659606,3.45305579 L95.4659606,2.85643743 C95.4604488,2.38687433 95.325411,2.00432425 95.0608433,1.70877572 C94.7962755,1.41322718 94.460059,1.26545513 94.0521838,1.26545513 Z" id="-123456789" fill="#FD7956"></path>
                                        <path d="M34.4751314,3.38676486 C34.4751314,3.04426001 34.6487514,2.87301016 34.9959966,2.87301016 C35.3377299,2.87301016 35.508594,3.04426001 35.508594,3.38676486 C35.508594,3.73479398 35.3377299,3.90880593 34.9959966,3.90880593 C34.6487514,3.90880593 34.4751314,3.73479398 34.4751314,3.38676486 Z M34.4751314,6.53558399 C34.4751314,6.19307914 34.6487514,6.02182929 34.9959966,6.02182929 C35.3377299,6.02182929 35.508594,6.19307914 35.508594,6.53558399 C35.508594,6.88361311 35.3377299,7.05762506 34.9959966,7.05762506 C34.6487514,7.05762506 34.4751314,6.88361311 34.4751314,6.53558399 Z" id=":" fill="#5BD4F7"></path>
                                        <path d="M0.742911976,3.02630793 L0.742911976,3.01387838 C0.853148539,2.80948033 1.04330376,2.64375466 1.31338333,2.51669641 C1.58346291,2.38963816 1.8673178,2.32610999 2.16495652,2.32610999 C2.55078449,2.32610999 2.87873335,2.44764215 3.14881292,2.6907101 C3.4188925,2.93377806 3.60904772,3.22932216 3.71928428,3.57735128 C3.82952084,3.9253804 3.8846383,4.30654943 3.8846383,4.72086981 L3.8846383,6.63502038 C3.8846383,6.88913688 3.90117354,7.07143512 3.9342445,7.18192055 L3.13227752,7.18192055 L3.13227752,4.54685612 C3.13227752,4.11043865 3.01377499,3.74860428 2.77676639,3.46134215 C2.53975778,3.17408002 2.22007654,3.03045111 1.81771309,3.03045111 C1.3492077,3.03045111 0.990944242,3.27627752 0.742911976,3.7679377 L0.742911976,7.18192055 L0.0401574041,7.18192055 L0.0401574041,2.45869185 L0.924801395,2.45869185 C0.814564832,2.60784719 0.753935633,2.79290751 0.742911976,3.01387838 L0.742911976,3.02630793 Z M9.26691155,7.18192055 L8.51455077,7.18192055 L8.51455077,6.50243853 C8.38777873,6.74550648 8.19486764,6.94023414 7.93581171,7.08662734 C7.67675579,7.23302054 7.39841265,7.30621604 7.10077393,7.30621604 C6.6047094,7.30621604 6.19132849,7.0797243 5.8606188,6.62673402 C5.52990911,6.17374374 5.36455675,5.62961114 5.36455675,4.99431989 L5.36455675,2.45040548 L6.11691753,2.45040548 L6.11691753,5.16833358 C6.11691753,5.57712969 6.2409318,5.93205882 6.48896407,6.23313163 C6.73699633,6.53420444 7.05116582,6.68473858 7.43148196,6.68473858 C7.66849057,6.68473858 7.85864579,6.61844832 8.00195332,6.48586579 C8.14526085,6.35328327 8.31612496,6.12402944 8.51455077,5.7980974 L8.51455077,2.45869185 L9.21730535,2.45869185 L9.21730535,6.63502038 C9.21730535,6.88913688 9.23384058,7.07143512 9.26691155,7.18192055 Z M14.0208395,2.32610999 C14.4066675,2.32610999 14.6739872,2.45316634 14.8228065,2.70728283 C14.9716259,2.96139933 15.0460344,3.3232337 15.0460344,3.7927968 L15.0460344,7.18192055 L14.3763507,7.18192055 L14.3763507,3.61878311 C14.3763507,3.4254336 14.3281229,3.26523212 14.2316659,3.13817387 C14.1352089,3.01111562 14.0015491,2.94758745 13.8306824,2.94758745 C13.6157211,2.94758745 13.4117865,3.1713171 13.2188726,3.61878311 C13.2243844,3.67402583 13.2271403,3.75965075 13.2271403,3.87566046 L13.2271403,7.18192055 L12.5574565,7.18192055 L12.5574565,3.70164677 C12.5574565,3.50829726 12.5092287,3.34809579 12.4127717,3.22103754 C12.3163147,3.09397929 12.1826549,3.03045111 12.0117882,3.03045111 C11.890528,3.03045111 11.7858049,3.07740672 11.6976156,3.17131934 C11.6094264,3.26523196 11.5129708,3.41990925 11.4082461,3.63535584 L11.4082461,6.63502038 C11.4082461,6.88913688 11.4247813,7.07143512 11.4578523,7.18192055 L10.7054915,7.18192055 L10.7054915,2.45869185 L11.4082461,2.45869185 L11.4082461,2.88129652 C11.5019471,2.67689847 11.6080482,2.53326956 11.7265526,2.45040548 C11.8450569,2.36754141 12.0035195,2.32610999 12.2019454,2.32610999 C12.6373798,2.32610999 12.9377699,2.57469849 13.1031247,3.07188295 L13.1031247,3.03045111 C13.1968258,2.77633462 13.3084387,2.59541743 13.4379666,2.48769413 C13.5674946,2.37997083 13.7617836,2.32610999 14.0208395,2.32610999 Z M18.3944533,2.32610999 C19.0558727,2.32610999 19.5698429,2.53326707 19.9363795,2.94758745 C20.3029161,3.36190783 20.4861816,3.94194766 20.4861816,4.68772434 C20.4861816,5.47217093 20.2877588,6.1033095 19.8909071,6.58115901 C19.4940555,7.05900851 18.9676838,7.29792968 18.3117763,7.29792968 C17.8046881,7.29792968 17.3747719,7.15153867 17.0220149,6.85875227 C17.0550859,6.99685906 17.1019358,7.10458075 17.1625659,7.18192055 L16.2779219,7.18192055 L16.2779219,0.668836765 L16.9806764,0.718554962 L16.9806764,3.05531021 C17.3224098,2.5691743 17.793664,2.32610999 18.3944533,2.32610999 Z M18.3117763,6.62673402 C18.7416989,6.62673402 19.0944506,6.44581683 19.370042,6.08397704 C19.6456334,5.72213724 19.783427,5.25672433 19.783427,4.68772434 C19.783427,4.16291853 19.6566569,3.74169913 19.4031128,3.42405351 C19.1495687,3.10640788 18.8133522,2.94758745 18.3944533,2.94758745 C18.0968146,2.94758745 17.8253611,3.02906924 17.5800848,3.19203525 C17.3348084,3.35500127 17.1350076,3.58563615 16.9806764,3.88394683 L16.9806764,5.8975338 C17.1901259,6.38366971 17.6338214,6.62673402 18.3117763,6.62673402 Z M22.2472019,2.95587382 C22.6054707,2.53602917 23.118063,2.32610999 23.7849942,2.32610999 C24.4519254,2.32610999 24.9548722,2.53602917 25.2938496,2.95587382 C25.6328271,3.37571847 25.7885339,3.96956877 25.7609747,4.73744254 L25.7444393,5.14347448 L22.3877528,5.16004721 C22.3877528,5.60198895 22.5186568,5.96382332 22.7804686,6.24556118 C23.0422804,6.52729903 23.3826307,6.66816585 23.8015296,6.66816585 C24.270035,6.66816585 24.7357775,6.4444362 25.1987711,5.99697019 L25.6204238,6.51072489 C25.135383,7.04105498 24.5373586,7.30621604 23.8263327,7.30621604 C23.2034962,7.30621604 22.6909038,7.10458315 22.2885404,6.70131131 C21.8861769,6.29803948 21.6849982,5.78428992 21.6849982,5.16004721 L21.6849982,4.73744254 C21.7070455,3.9640445 21.8944449,3.3701942 22.2472019,2.95587382 Z M25.008614,4.52199702 C25.0361731,4.01376402 24.9397176,3.62430871 24.7192444,3.35361939 C24.4987713,3.08293008 24.1625548,2.94758745 23.7105849,2.94758745 C22.8782989,2.94758745 22.4401151,3.47238539 22.3960205,4.52199702 L25.008614,4.52199702 Z M31.1267126,3.23761027 C30.7188373,3.02768794 30.3275034,2.99316176 29.9526991,3.13403069 C29.5778948,3.27489962 29.3491573,3.52763126 29.2664799,3.89223319 L29.2664799,6.60187492 L30.6637213,6.60187492 L30.6637213,6.63502038 C30.6637213,6.88913688 30.6802566,7.07143512 30.7133276,7.18192055 L27.1251454,7.18192055 L27.1251454,6.60187492 L28.5885284,6.60187492 L28.5885284,3.03873748 L27.6212074,2.98073292 L27.6212074,2.45869185 L29.3574246,2.45869185 C29.3298655,2.50288602 29.3009288,2.59127305 29.2706138,2.72385557 C29.2402987,2.85643809 29.2251414,2.95311139 29.2251414,3.01387838 C29.4676618,2.55536383 29.9471837,2.32610999 30.6637213,2.32610999 C30.8786826,2.32610999 31.1790728,2.40068654 31.5649007,2.54984188 L31.1267126,3.23761027 Z" id="number" fill="#A0C0D2"></path>
                                    </g>
                                    <g id="Group-8" transform="translate(45.779441, 49.980457)">
                                        <path d="M118.988751,6.57465693 C118.988751,6.65199673 118.974971,6.73209747 118.947412,6.81496155 C118.875758,7.04698096 118.718674,7.33285773 118.476153,7.67260044 C118.233633,8.01234315 118.051745,8.22088128 117.930485,8.29822109 L117.533635,8.0993483 C117.715526,7.80103763 117.894657,7.41434441 118.071036,6.93925704 C117.99387,6.85086869 117.955288,6.72933654 117.955288,6.57465693 C117.955288,6.23215208 118.128908,6.06090223 118.476153,6.06090223 C118.817887,6.06090223 118.988751,6.23215208 118.988751,6.57465693 Z" id="," fill="#5BD4F7"></path>
                                        <path d="M92.7801389,1.07250981 C92.521083,1.07250981 92.3019911,1.16365893 92.1228567,1.3459599 C91.9437223,1.52826086 91.8541564,1.78513564 91.8541564,2.11659195 L91.8541564,4.31247897 L93.7226568,4.31247897 L93.7226568,4.95052917 L91.8541564,4.95052917 L91.8541564,8.67939393 L91.1514019,8.62967573 L91.1514019,4.95052917 L90.2502225,4.95052917 L90.2502225,4.31247897 L91.1514019,4.31247897 L91.1514019,2.11659195 C91.1514019,1.58626186 91.3139983,1.16366141 91.6391962,0.848777927 C91.9643941,0.53389444 92.3474604,0.376455057 92.7884066,0.376455057 C93.1136045,0.376455057 93.4195064,0.467604173 93.7061214,0.64990514 C93.9927365,0.832206106 94.2214739,1.10841555 94.3923406,1.47854175 L93.7639953,1.7602782 C93.6647824,1.53378306 93.5269888,1.36253321 93.3506103,1.2465235 C93.1742318,1.1305138 92.9840766,1.07250981 92.7801389,1.07250981 Z M97.310839,2.11659195 C97.9336756,2.11659195 98.4462679,2.31822484 98.8486313,2.72149667 C99.2509948,3.12476851 99.4521735,3.64128017 99.4521735,4.27104714 L99.4521735,6.9724025 L98.5675295,6.9724025 C98.6887897,6.79562581 98.7494189,6.6022792 98.7494189,6.39235687 C98.6281587,6.6022792 98.4352476,6.76938591 98.1706799,6.89368203 C97.9061121,7.01797814 97.6084779,7.08288736 97.2777682,7.08841163 C96.7320972,7.08841163 96.2842679,6.97102262 95.9342668,6.73624107 C95.5842657,6.50145952 95.4092678,6.17138924 95.4092678,5.74602032 C95.4092678,4.79032131 96.357288,4.31247897 98.2533569,4.31247897 C98.3525698,4.31247897 98.5179222,4.31800316 98.7494189,4.32905171 L98.7494189,4.27104714 C98.7494189,3.82358113 98.618515,3.45898467 98.3567031,3.17724681 C98.0948913,2.89550895 97.754541,2.75464214 97.3356421,2.75464214 C96.8671367,2.75464214 96.4013942,2.97837179 95.9384006,3.4258378 L95.5167479,2.9120831 C96.0017888,2.38175301 96.5998132,2.11659195 97.310839,2.11659195 Z M97.1537527,6.49179327 C97.4513914,6.49179327 97.7462698,6.42412195 98.0383967,6.2887773 C98.3305236,6.15343264 98.5675286,5.95870498 98.7494189,5.70458848 L98.7494189,4.9422428 C98.6281587,4.93671853 98.4517829,4.93395643 98.2202861,4.93395643 C97.4982366,4.93395643 96.969109,4.99748461 96.6328875,5.12454286 C96.296666,5.2516011 96.1285578,5.45875819 96.1285578,5.74602032 C96.1285578,5.983564 96.2263912,6.16724328 96.4220611,6.29706366 C96.617731,6.42688405 96.8616258,6.49179327 97.1537527,6.49179327 Z M104.693896,6.42550234 C104.693896,6.67961884 104.710431,6.86191707 104.743502,6.9724025 L101.15532,6.9724025 L101.15532,6.39235687 L102.585632,6.39235687 L102.585632,1.08908255 L101.618311,1.03107798 L101.618311,0.509036916 L103.288387,0.509036916 L103.288387,6.39235687 L104.693896,6.39235687 L104.693896,6.42550234 Z M108.67066,4.27104714 C109.265937,4.38153258 109.693098,4.53897196 109.952154,4.74337001 C110.21121,4.94776807 110.340736,5.2267396 110.340736,5.58029299 C110.340736,6.027759 110.169871,6.39235547 109.828138,6.67409332 C109.486405,6.95583118 109.031686,7.096698 108.463967,7.096698 C107.642705,7.096698 106.984051,6.76524667 106.487987,6.10233406 L106.959246,5.62172482 C107.433263,6.18520054 107.937588,6.46693417 108.472235,6.46693417 C108.797433,6.46693417 109.07991,6.3799282 109.319674,6.20591364 C109.559439,6.03189908 109.679319,5.82612304 109.679319,5.58857936 C109.679319,5.42837548 109.603533,5.30408123 109.451958,5.21569288 C109.300382,5.12730454 109.020661,5.04167961 108.612786,4.95881553 C107.934831,4.82070874 107.444286,4.63841051 107.141135,4.41191537 C106.837985,4.18542023 106.686412,3.88711403 106.686412,3.51698782 C106.686412,3.09714317 106.853142,2.75878661 107.186608,2.50190797 C107.520073,2.24502934 107.962391,2.11659195 108.513574,2.11659195 C109.334836,2.11659195 109.924593,2.37346673 110.282862,2.887224 L109.836406,3.33468777 C109.643492,3.13028972 109.451959,2.98389871 109.261801,2.89551036 C109.071642,2.80712202 108.847039,2.76292851 108.587983,2.76292851 C108.229714,2.76292851 107.933458,2.83198087 107.699205,2.97008766 C107.464952,3.10819445 107.347828,3.28496849 107.347828,3.50041509 C107.347828,3.68824033 107.452551,3.84153657 107.662,3.96030841 C107.87145,4.07908025 108.207666,4.1826588 108.67066,4.27104714 Z M112.341519,2.74635577 C112.699788,2.32651112 113.21238,2.11659195 113.879311,2.11659195 C114.546243,2.11659195 115.049189,2.32651112 115.388167,2.74635577 C115.727144,3.16620042 115.882851,3.76005072 115.855292,4.52792449 L115.838757,4.93395643 L112.48207,4.95052917 C112.48207,5.3924709 112.612974,5.75430527 112.874786,6.03604313 C113.136598,6.31778099 113.476948,6.4586478 113.895847,6.4586478 C114.364352,6.4586478 114.830095,6.23491816 115.293088,5.78745215 L115.714741,6.30120685 C115.2297,6.83153693 114.631676,7.096698 113.92065,7.096698 C113.297813,7.096698 112.785221,6.8950651 112.382858,6.49179327 C111.980494,6.08852143 111.779315,5.57477187 111.779315,4.95052917 L111.779315,4.52792449 C111.801363,3.75452645 111.988762,3.16067615 112.341519,2.74635577 Z M115.102931,4.31247897 C115.13049,3.80424598 115.034035,3.41479066 114.813562,3.14410135 C114.593089,2.87341203 114.256872,2.73806941 113.804902,2.73806941 C112.972616,2.73806941 112.534432,3.26286735 112.490338,4.31247897 L115.102931,4.31247897 Z" id="false" fill="#E484BC"></path>
                                        <path d="M77.4233964,6.65332485 L76.8785943,6.88979153 L76.2601703,6.18778107 C75.8282529,6.70998093 75.3521693,6.97107695 74.8319053,6.97107695 C74.3607227,6.97107695 73.941082,6.79126554 73.5729706,6.43163734 C73.2048593,6.07200913 73.0208063,5.66065975 73.0208063,5.19757685 C73.0208063,4.5719223 73.374188,4.03495125 74.0809618,3.5866476 C73.8551868,3.28613635 73.7018094,3.04844045 73.6208249,2.87355277 C73.5398404,2.69866508 73.4993487,2.53486427 73.4993487,2.38214545 C73.4944406,1.95847386 73.6183696,1.62101958 73.8711394,1.36977247 C74.1239092,1.11852537 74.4662476,0.992903703 74.898165,0.992903703 C75.5264084,0.992903703 75.9681354,1.23183119 76.2233593,1.70969333 L75.8405254,2.07917251 C75.7374542,1.92152727 75.598801,1.79713719 75.4245616,1.70599853 C75.2503222,1.61485988 75.0674963,1.56929124 74.8760784,1.56929124 C74.669936,1.56929124 74.4932452,1.65180743 74.3460007,1.81684229 C74.1987561,1.98187715 74.1251349,2.17523599 74.1251349,2.39692461 C74.1251349,2.55949627 74.1643996,2.71590756 74.24293,2.86616318 C74.3214604,3.0164188 74.5006053,3.26396738 74.7803699,3.60881635 C75.0601346,3.95366531 75.5411262,4.51280489 76.2233593,5.28625186 C76.3656957,5.03993117 76.50803,4.71479273 76.6503664,4.3108268 L77.0479247,4.76159141 C76.9104964,5.11136679 76.758346,5.42665254 76.5914689,5.70745813 C76.6699993,5.80105999 76.8025174,5.95254494 76.9890272,6.16191753 C77.1755369,6.37129012 77.3203252,6.53509092 77.4233964,6.65332485 Z M74.861354,6.41685817 C75.2245573,6.41685817 75.5730308,6.20256238 75.9067851,5.77396438 C75.2392765,5.00544383 74.7460146,4.42413572 74.4269848,4.03002262 C73.9214451,4.37487159 73.6686791,4.76405244 73.6686791,5.19757685 C73.6686791,5.50794092 73.7926081,5.78874229 74.0404698,6.0399894 C74.2883314,6.2912365 74.5619568,6.41685817 74.861354,6.41685817 Z M82.2824423,6.65332485 L81.7376402,6.88979153 L81.1192162,6.18778107 C80.6872988,6.70998093 80.2112152,6.97107695 79.6909512,6.97107695 C79.2197686,6.97107695 78.8001279,6.79126554 78.4320165,6.43163734 C78.0639052,6.07200913 77.8798522,5.66065975 77.8798522,5.19757685 C77.8798522,4.5719223 78.2332339,4.03495125 78.9400077,3.5866476 C78.7142327,3.28613635 78.5608553,3.04844045 78.4798708,2.87355277 C78.3988863,2.69866508 78.3583946,2.53486427 78.3583946,2.38214545 C78.3534865,1.95847386 78.4774155,1.62101958 78.7301853,1.36977247 C78.9829551,1.11852537 79.3252935,0.992903703 79.7572109,0.992903703 C80.3854543,0.992903703 80.8271813,1.23183119 81.0824052,1.70969333 L80.6995713,2.07917251 C80.5965001,1.92152727 80.4578469,1.79713719 80.2836075,1.70599853 C80.1093681,1.61485988 79.9265422,1.56929124 79.7351243,1.56929124 C79.5289819,1.56929124 79.3522911,1.65180743 79.2050466,1.81684229 C79.057802,1.98187715 78.9841808,2.17523599 78.9841808,2.39692461 C78.9841808,2.55949627 79.0234455,2.71590756 79.1019759,2.86616318 C79.1805063,3.0164188 79.3596512,3.26396738 79.6394158,3.60881635 C79.9191805,3.95366531 80.4001721,4.51280489 81.0824052,5.28625186 C81.2247416,5.03993117 81.3670759,4.71479273 81.5094123,4.3108268 L81.9069706,4.76159141 C81.7695423,5.11136679 81.6173919,5.42665254 81.4505148,5.70745813 C81.5290452,5.80105999 81.6615633,5.95254494 81.8480731,6.16191753 C82.0345828,6.37129012 82.1793711,6.53509092 82.2824423,6.65332485 Z M79.7203999,6.41685817 C80.0836031,6.41685817 80.4320767,6.20256238 80.765831,5.77396438 C80.0983224,5.00544383 79.6050605,4.42413572 79.2860307,4.03002262 C78.780491,4.37487159 78.527725,4.76405244 78.527725,5.19757685 C78.527725,5.50794092 78.651654,5.78874229 78.8995157,6.0399894 C79.1473773,6.2912365 79.4210027,6.41685817 79.7203999,6.41685817 Z" id="&amp;&amp;" fill="#9082F1"></path>
                                        <path d="M50.4991168,5.71287485 L51.127462,5.9946113 C50.9565954,6.3647375 50.7278579,6.64094695 50.4412429,6.82324791 C50.1546278,7.00554888 49.8487259,7.096698 49.5235281,7.096698 C49.0825818,7.096698 48.6995155,6.93925861 48.3743177,6.62437513 C48.0491198,6.30949164 47.8865233,5.88689119 47.8865233,5.35656111 L47.8865233,2.887224 L47.1258948,2.887224 L47.1258948,2.2491738 L47.8865233,2.2491738 L47.8865233,0.459318719 L48.5892779,0.509036916 L48.5892779,2.2491738 L50.5983292,2.2491738 L50.5983292,2.887224 L48.5892779,2.887224 L48.5892779,5.35656111 C48.5892779,5.68801741 48.6788438,5.94489219 48.8579782,6.12719316 C49.0371126,6.30949412 49.2562045,6.40064324 49.5152604,6.40064324 C49.719198,6.40064324 49.9093532,6.34263926 50.0857317,6.22662955 C50.2621102,6.11061985 50.3999039,5.93936999 50.4991168,5.71287485 Z M56.4022552,3.02809222 C55.9943799,2.8181699 55.603046,2.78364372 55.2282417,2.92451265 C54.8534374,3.06538157 54.6246999,3.31811321 54.5420225,3.68271515 L54.5420225,6.39235687 L55.9392639,6.39235687 L55.9392639,6.42550234 C55.9392639,6.67961884 55.9557992,6.86191707 55.9888701,6.9724025 L52.400688,6.9724025 L52.400688,6.39235687 L53.864071,6.39235687 L53.864071,2.82921943 L52.89675,2.77121487 L52.89675,2.2491738 L54.6329672,2.2491738 C54.6054081,2.29336798 54.5764714,2.381755 54.5461563,2.51433752 C54.5158413,2.64692004 54.500684,2.74359335 54.500684,2.80436034 C54.7432044,2.34584578 55.2227263,2.11659195 55.9392639,2.11659195 C56.1542252,2.11659195 56.4546154,2.1911685 56.8404433,2.34032383 L56.4022552,3.02809222 Z M61.8258669,6.9724025 L61.0735062,6.9724025 L61.0735062,6.29292048 C60.9467341,6.53598844 60.753823,6.73071609 60.4947671,6.87710929 C60.2357112,7.02350249 59.957368,7.096698 59.6597293,7.096698 C59.1636648,7.096698 58.7502839,6.87020625 58.4195742,6.41721597 C58.0888645,5.96422569 57.9235121,5.42009309 57.9235121,4.78480184 L57.9235121,2.24088744 L58.6758729,2.24088744 L58.6758729,4.95881553 C58.6758729,5.36761164 58.7998872,5.72254077 59.0479195,6.02361358 C59.2959517,6.32468639 59.6101212,6.47522054 59.9904374,6.47522054 C60.227446,6.47522054 60.4176012,6.40893027 60.5609087,6.27634775 C60.7042162,6.14376523 60.8750804,5.91451139 61.0735062,5.58857936 L61.0735062,2.2491738 L61.7762607,2.2491738 L61.7762607,6.42550234 C61.7762607,6.67961884 61.792796,6.86191707 61.8258669,6.9724025 Z M63.8927922,2.74635577 C64.251061,2.32651112 64.7636533,2.11659195 65.4305845,2.11659195 C66.0975157,2.11659195 66.6004625,2.32651112 66.9394399,2.74635577 C67.2784174,3.16620042 67.4341242,3.76005072 67.406565,4.52792449 L67.3900296,4.93395643 L64.0333431,4.95052917 C64.0333431,5.3924709 64.164247,5.75430527 64.4260589,6.03604313 C64.6878707,6.31778099 65.028221,6.4586478 65.4471199,6.4586478 C65.9156253,6.4586478 66.3813678,6.23491816 66.8443614,5.78745215 L67.2660141,6.30120685 C66.7809732,6.83153693 66.1829488,7.096698 65.471923,7.096698 C64.8490864,7.096698 64.3364941,6.8950651 63.9341307,6.49179327 C63.5317672,6.08852143 63.3305885,5.57477187 63.3305885,4.95052917 L63.3305885,4.52792449 C63.3526358,3.75452645 63.5400352,3.16067615 63.8927922,2.74635577 Z M66.6542042,4.31247897 C66.6817634,3.80424598 66.5853078,3.41479066 66.3648347,3.14410135 C66.1443616,2.87341203 65.8081451,2.73806941 65.3561752,2.73806941 C64.5238892,2.73806941 64.0857054,3.26286735 64.0416108,4.31247897 L66.6542042,4.31247897 Z" id="true" fill="#E484BC"></path>
                                        <path d="M40.2389,3.17724681 C40.2389,2.83474197 40.41252,2.66349211 40.7597652,2.66349211 C41.1014985,2.66349211 41.2723626,2.83474197 41.2723626,3.17724681 C41.2723626,3.52527593 41.1014985,3.69928788 40.7597652,3.69928788 C40.41252,3.69928788 40.2389,3.52527593 40.2389,3.17724681 Z M40.2389,6.32606595 C40.2389,5.9835611 40.41252,5.81231124 40.7597652,5.81231124 C41.1014985,5.81231124 41.2723626,5.9835611 41.2723626,6.32606595 C41.2723626,6.67409506 41.1014985,6.84810701 40.7597652,6.84810701 C40.41252,6.84810701 40.2389,6.67409506 40.2389,6.32606595 Z" id=":" fill="#5BD4F7"></path>
                                        <path d="M2.82755369,2.11659195 C3.48897307,2.11659195 4.00294333,2.32374903 4.3694799,2.73806941 C4.73601647,3.15238979 4.919282,3.73242961 4.919282,4.4782063 C4.919282,5.26265288 4.72085917,5.89379146 4.32400754,6.37164096 C3.92715592,6.84949046 3.40078423,7.08841163 2.74487668,7.08841163 C2.23778849,7.08841163 1.80787235,6.94202063 1.45511535,6.64923422 C1.48818632,6.78734102 1.53503615,6.8950627 1.59566626,6.9724025 L0.711022273,6.9724025 L0.711022273,0.459318719 L1.41377685,0.509036916 L1.41377685,2.84579217 C1.75551019,2.35965626 2.22676442,2.11659195 2.82755369,2.11659195 Z M2.74487668,6.41721597 C3.17479928,6.41721597 3.52755098,6.23629879 3.80314239,5.87445899 C4.0787338,5.51261919 4.21652743,5.04720628 4.21652743,4.4782063 C4.21652743,3.95340048 4.08975729,3.53218108 3.83621319,3.21453546 C3.5826691,2.89688984 3.24645263,2.73806941 2.82755369,2.73806941 C2.52991497,2.73806941 2.25846151,2.81955119 2.01318516,2.98251721 C1.76790881,3.14548322 1.56810803,3.37611811 1.41377685,3.67442878 L1.41377685,5.68801575 C1.62322631,6.17415166 2.06692182,6.41721597 2.74487668,6.41721597 Z M9.755887,6.40064324 C9.35903538,6.86468206 8.83266369,7.096698 8.17675614,7.096698 C7.52084859,7.096698 6.99585484,6.86606311 6.60175913,6.40478642 C6.20766342,5.94350974 6.01061852,5.32894373 6.01061852,4.56106996 C6.01061852,3.809769 6.20490754,3.21453766 6.59349143,2.77535805 C6.98207531,2.33617845 7.50982494,2.11659195 8.17675614,2.11659195 C8.83817551,2.11659195 9.36730308,2.33894055 9.7641547,2.78364442 C10.1610063,3.22834829 10.3594292,3.82081755 10.3594292,4.56106996 C10.3594292,5.32341945 10.1582505,5.93660442 9.755887,6.40064324 Z M8.17675614,6.49179327 C8.61219056,6.49179327 8.95116291,6.32192446 9.19368334,5.98218175 C9.43620378,5.64243904 9.55746218,5.16873985 9.55746218,4.56106996 C9.55746218,3.95892434 9.43620378,3.49627352 9.19368334,3.17310363 C8.95116291,2.84993373 8.61219056,2.6911133 8.17675614,2.69663758 C7.7578572,2.70216185 7.42990835,2.86650647 7.19289974,3.18967636 C6.95589113,3.51284626 6.8373886,3.96997288 6.8373886,4.56106996 C6.8373886,5.16321557 6.95589113,5.63553372 7.19289974,5.97803857 C7.42990835,6.32054341 7.7578572,6.49179327 8.17675614,6.49179327 Z M15.2125696,6.40064324 C14.8157179,6.86468206 14.2893462,7.096698 13.6334387,7.096698 C12.9775312,7.096698 12.4525374,6.86606311 12.0584417,6.40478642 C11.664346,5.94350974 11.4673011,5.32894373 11.4673011,4.56106996 C11.4673011,3.809769 11.6615901,3.21453766 12.050174,2.77535805 C12.4387579,2.33617845 12.9665075,2.11659195 13.6334387,2.11659195 C14.2948581,2.11659195 14.8239856,2.33894055 15.2208373,2.78364442 C15.6176889,3.22834829 15.8161117,3.82081755 15.8161117,4.56106996 C15.8161117,5.32341945 15.614933,5.93660442 15.2125696,6.40064324 Z M13.6334387,6.49179327 C14.0688731,6.49179327 14.4078455,6.32192446 14.6503659,5.98218175 C14.8928863,5.64243904 15.0141447,5.16873985 15.0141447,4.56106996 C15.0141447,3.95892434 14.8928863,3.49627352 14.6503659,3.17310363 C14.4078455,2.84993373 14.0688731,2.6911133 13.6334387,2.69663758 C13.2145398,2.70216185 12.8865909,2.86650647 12.6495823,3.18967636 C12.4125737,3.51284626 12.2940712,3.96997288 12.2940712,4.56106996 C12.2940712,5.16321557 12.4125737,5.63553372 12.6495823,5.97803857 C12.8865909,6.32054341 13.2145398,6.49179327 13.6334387,6.49179327 Z M20.8594092,6.42550234 C20.8594092,6.67961884 20.8759445,6.86191707 20.9090154,6.9724025 L17.3208333,6.9724025 L17.3208333,6.39235687 L18.7511455,6.39235687 L18.7511455,1.08908255 L17.7838245,1.03107798 L17.7838245,0.509036916 L19.4539001,0.509036916 L19.4539001,6.39235687 L20.8594092,6.39235687 L20.8594092,6.42550234 Z M23.05035,2.74635577 C23.4086188,2.32651112 23.9212111,2.11659195 24.5881423,2.11659195 C25.2550735,2.11659195 25.7580203,2.32651112 26.0969977,2.74635577 C26.4359752,3.16620042 26.591682,3.76005072 26.5641228,4.52792449 L26.5475874,4.93395643 L23.1909009,4.95052917 C23.1909009,5.3924709 23.3218048,5.75430527 23.5836167,6.03604313 C23.8454285,6.31778099 24.1857788,6.4586478 24.6046777,6.4586478 C25.0731831,6.4586478 25.5389256,6.23491816 26.0019192,5.78745215 L26.4235719,6.30120685 C25.938531,6.83153693 25.3405067,7.096698 24.6294808,7.096698 C24.0066443,7.096698 23.4940519,6.8950651 23.0916885,6.49179327 C22.689325,6.08852143 22.4881463,5.57477187 22.4881463,4.95052917 L22.4881463,4.52792449 C22.5101936,3.75452645 22.697593,3.16067615 23.05035,2.74635577 Z M25.811762,4.31247897 C25.8393212,3.80424598 25.7428656,3.41479066 25.5223925,3.14410135 C25.3019194,2.87341203 24.9657029,2.73806941 24.513733,2.73806941 C23.681447,2.73806941 23.2432632,3.26286735 23.1991686,4.31247897 L25.811762,4.31247897 Z M29.8464001,2.11659195 C30.4692366,2.11659195 30.981829,2.31822484 31.3841924,2.72149667 C31.7865559,3.12476851 31.9877346,3.64128017 31.9877346,4.27104714 L31.9877346,6.9724025 L31.1030906,6.9724025 C31.2243508,6.79562581 31.28498,6.6022792 31.28498,6.39235687 C31.1637198,6.6022792 30.9708087,6.76938591 30.706241,6.89368203 C30.4416732,7.01797814 30.1440389,7.08288736 29.8133293,7.08841163 C29.2676583,7.08841163 28.819829,6.97102262 28.4698279,6.73624107 C28.1198268,6.50145952 27.9448289,6.17138924 27.9448289,5.74602032 C27.9448289,4.79032131 28.8928491,4.31247897 30.788918,4.31247897 C30.8881309,4.31247897 31.0534832,4.31800316 31.28498,4.32905171 L31.28498,4.27104714 C31.28498,3.82358113 31.1540761,3.45898467 30.8922642,3.17724681 C30.6304524,2.89550895 30.2901021,2.75464214 29.8712032,2.75464214 C29.4026978,2.75464214 28.9369553,2.97837179 28.4739617,3.4258378 L28.052309,2.9120831 C28.5373499,2.38175301 29.1353742,2.11659195 29.8464001,2.11659195 Z M29.6893137,6.49179327 C29.9869525,6.49179327 30.2818308,6.42412195 30.5739577,6.2887773 C30.8660846,6.15343264 31.1030897,5.95870498 31.28498,5.70458848 L31.28498,4.9422428 C31.1637198,4.93671853 30.9873439,4.93395643 30.7558472,4.93395643 C30.0337977,4.93395643 29.5046701,4.99748461 29.1684486,5.12454286 C28.8322271,5.2516011 28.6641188,5.45875819 28.6641188,5.74602032 C28.6641188,5.983564 28.7619523,6.16724328 28.9576222,6.29706366 C29.1532921,6.42688405 29.3971869,6.49179327 29.6893137,6.49179327 Z M34.2861554,2.81678989 L34.2861554,2.80436034 C34.396392,2.59996228 34.5865472,2.43423662 34.8566268,2.30717837 C35.1267064,2.18012012 35.4105612,2.11659195 35.7082,2.11659195 C36.0940279,2.11659195 36.4219768,2.2381241 36.6920564,2.48119206 C36.9621359,2.72426001 37.1522912,3.01980412 37.2625277,3.36783323 C37.3727643,3.71586235 37.4278817,4.09703138 37.4278817,4.51135176 L37.4278817,6.42550234 C37.4278817,6.67961884 37.444417,6.86191707 37.4774879,6.9724025 L36.675521,6.9724025 L36.675521,4.33733807 C36.675521,3.90092061 36.5570184,3.53908624 36.3200098,3.25182411 C36.0830012,2.96456198 35.76332,2.82093307 35.3609565,2.82093307 C34.8924511,2.82093307 34.5341877,3.06675947 34.2861554,3.55841965 L34.2861554,6.9724025 L33.5834008,6.9724025 L33.5834008,2.2491738 L34.4680448,2.2491738 C34.3578083,2.39832914 34.2971791,2.58338947 34.2861554,2.80436034 L34.2861554,2.81678989 Z" id="boolean" fill="#A0C0D2"></path>
                                    </g>
                                    <g id="Group-9" transform="translate(46.582589, 36.276138)">
                                        <path d="M81.8077188,7.9774117 C81.8077188,8.0547515 81.7939394,8.13485224 81.7663803,8.21771632 C81.6947265,8.44973573 81.5376418,8.7356125 81.2951213,9.07535521 C81.0526009,9.41509792 80.8707133,9.62363605 80.7494531,9.70097586 L80.3526034,9.50210307 C80.5344938,9.2037924 80.7136255,8.81709918 80.890004,8.34201181 C80.8128384,8.25362346 80.7742562,8.13209131 80.7742562,7.9774117 C80.7742562,7.63490685 80.9478762,7.463657 81.2951213,7.463657 C81.6368547,7.463657 81.8077188,7.63490685 81.8077188,7.9774117 Z" id="," fill="#5BD4F7"></path>
                                        <path d="M46.0837585,0.388200849 L46.0837585,0.995112431 C45.8512283,1.05661311 45.6744111,1.14400751 45.5533015,1.25729824 C45.432192,1.37058896 45.3353059,1.51543708 45.2626402,1.69184693 C45.1899745,1.86825678 45.1536422,2.08269672 45.1536422,2.33517321 C45.4539938,2.33517321 45.6752171,2.42013998 45.8173189,2.59007607 C45.9594208,2.76001216 46.0304706,2.9404654 46.0304706,3.1314412 C46.0304706,3.35802266 45.9513469,3.54818639 45.7930972,3.70193809 C45.6348474,3.85568979 45.4507637,3.93256449 45.2408406,3.93256449 C44.9695553,3.93256449 44.7354138,3.81522942 44.538409,3.58055577 C44.3414042,3.34588212 44.2429033,3.0246268 44.2429033,2.61678018 C44.2429033,2.25748673 44.3204122,1.92085647 44.4754323,1.60687931 C44.6304525,1.29290214 44.8411799,1.0242453 45.1076208,0.800900725 C45.3740617,0.577556146 45.6994377,0.439990896 46.0837585,0.388200849 Z M52.8055931,7.82825711 C52.8055931,8.08237361 52.8221283,8.26467184 52.8551993,8.37515727 L52.0532323,8.37515727 L52.0532323,5.74009284 C52.0532323,5.30367538 51.9347298,4.94184101 51.6977212,4.65457888 C51.4607126,4.36731675 51.1410313,4.22368784 50.7386679,4.22368784 C50.2646507,4.22368784 49.9063872,4.46951424 49.6638668,4.96117442 L49.6638668,8.37515727 L48.9611122,8.37515727 L48.9611122,1.86207349 L49.6638668,1.91179169 L49.6638668,4.20711511 C49.7741033,4.00271705 49.9642585,3.83699139 50.2343381,3.70993314 C50.5044177,3.58287489 50.7882726,3.51934672 51.0859113,3.51934672 C51.4717393,3.51934672 51.7996881,3.64087887 52.0697677,3.88394683 C52.3398473,4.12701478 52.5300025,4.42255889 52.6402391,4.770588 C52.7504756,5.11861712 52.8055931,5.49978615 52.8055931,5.91410653 L52.8055931,7.82825711 Z M54.8229121,4.14911054 C55.1811809,3.72926589 55.6937733,3.51934672 56.3607045,3.51934672 C57.0276357,3.51934672 57.5305824,3.72926589 57.8695599,4.14911054 C58.2085373,4.56895519 58.3642441,5.16280549 58.336685,5.93067926 L58.3201496,6.3367112 L54.963463,6.35328394 C54.963463,6.79522567 55.094367,7.15706004 55.3561788,7.4387979 C55.6179906,7.72053576 55.9583409,7.86140257 56.3772399,7.86140257 C56.8457452,7.86140257 57.3114877,7.63767293 57.7744813,7.19020692 L58.196134,7.70396162 C57.7110932,8.2342917 57.1130688,8.49945277 56.402043,8.49945277 C55.7792064,8.49945277 55.2666141,8.29781987 54.8642506,7.89454804 C54.4618871,7.4912762 54.2607084,6.97752664 54.2607084,6.35328394 L54.2607084,5.93067926 C54.2827558,5.15728122 54.4701551,4.56343092 54.8229121,4.14911054 Z M57.5843242,5.71523374 C57.6118833,5.20700075 57.5154278,4.81754543 57.2949547,4.54685612 C57.0744815,4.2761668 56.7382651,4.14082418 56.2862951,4.14082418 C55.4540091,4.14082418 55.0158253,4.66562212 54.9717307,5.71523374 L57.5843242,5.71523374 Z M63.5453365,7.82825711 C63.5453365,8.08237361 63.5618717,8.26467184 63.5949427,8.37515727 L60.0067605,8.37515727 L60.0067605,7.79511164 L61.4370728,7.79511164 L61.4370728,2.49183732 L60.4697518,2.43383275 L60.4697518,1.91179169 L62.1398273,1.91179169 L62.1398273,7.79511164 L63.5453365,7.79511164 L63.5453365,7.82825711 Z M69.0020191,7.82825711 C69.0020191,8.08237361 69.0185543,8.26467184 69.0516253,8.37515727 L65.4634431,8.37515727 L65.4634431,7.79511164 L66.8937553,7.79511164 L66.8937553,2.49183732 L65.9264343,2.43383275 L65.9264343,1.91179169 L67.5965099,1.91179169 L67.5965099,7.79511164 L69.0020191,7.79511164 L69.0020191,7.82825711 Z M74.2685445,7.80339801 C73.8716929,8.26743683 73.3453212,8.49945277 72.6894136,8.49945277 C72.0335061,8.49945277 71.5085123,8.26881788 71.1144166,7.80754119 C70.7203209,7.34626451 70.523276,6.7316985 70.523276,5.96382473 C70.523276,5.21252377 70.717565,4.61729243 71.1061489,4.17811282 C71.4947328,3.73893322 72.0224824,3.51934672 72.6894136,3.51934672 C73.350833,3.51934672 73.8799606,3.74169532 74.2768122,4.18639919 C74.6736638,4.63110306 74.8720867,5.22357232 74.8720867,5.96382473 C74.8720867,6.72617422 74.6709079,7.33935919 74.2685445,7.80339801 Z M72.6894136,7.89454804 C73.1248481,7.89454804 73.4638204,7.72467923 73.7063408,7.38493652 C73.9488613,7.04519381 74.0701197,6.57149462 74.0701197,5.96382473 C74.0701197,5.36167911 73.9488613,4.89902829 73.7063408,4.5758584 C73.4638204,4.2526885 73.1248481,4.09386807 72.6894136,4.09939235 C72.2705147,4.10491662 71.9425658,4.26926124 71.7055572,4.59243113 C71.4685486,4.91560103 71.3500461,5.37272765 71.3500461,5.96382473 C71.3500461,6.56597034 71.4685486,7.03828849 71.7055572,7.38079334 C71.9425658,7.72329818 72.2705147,7.89454804 72.6894136,7.89454804 Z M77.4800295,3.93256449 L77.4800295,3.32565291 C77.7125598,3.26415223 77.889377,3.17675783 78.0104865,3.0634671 C78.131596,2.95017638 78.2284822,2.80532826 78.3011479,2.62891841 C78.3738136,2.45250856 78.4101459,2.23806861 78.4101459,1.98559213 C78.1097943,1.98559213 77.8885709,1.90062536 77.7464691,1.73068927 C77.6043673,1.56075318 77.5333175,1.38029994 77.5333175,1.18932414 C77.5333175,0.962742681 77.6124411,0.772578953 77.7706909,0.61882725 C77.9289407,0.465075547 78.1130243,0.388200849 78.3229475,0.388200849 C78.5942328,0.388200849 78.8283743,0.505535915 79.0253791,0.740209567 C79.2223839,0.974883219 79.3208848,1.29613854 79.3208848,1.70398516 C79.3208848,2.06327861 79.2433759,2.39990887 79.0883557,2.71388603 C78.9333356,3.02786319 78.7226082,3.29652004 78.4561673,3.51986461 C78.1897264,3.74320919 77.8643504,3.88077444 77.4800295,3.93256449 Z" id="hello" fill="#3EDCA8"></path>
                                        <path d="M34.4751314,4.58000158 C34.4751314,4.23749674 34.6487514,4.06624688 34.9959966,4.06624688 C35.3377299,4.06624688 35.508594,4.23749674 35.508594,4.58000158 C35.508594,4.9280307 35.3377299,5.10204265 34.9959966,5.10204265 C34.6487514,5.10204265 34.4751314,4.9280307 34.4751314,4.58000158 Z M34.4751314,7.72882072 C34.4751314,7.38631587 34.6487514,7.21506601 34.9959966,7.21506601 C35.3377299,7.21506601 35.508594,7.38631587 35.508594,7.72882072 C35.508594,8.07684983 35.3377299,8.25086178 34.9959966,8.25086178 C34.6487514,8.25086178 34.4751314,8.07684983 34.4751314,7.72882072 Z" id=":" fill="#5BD4F7"></path>
                                        <path d="M2.20629503,5.67380191 C2.80157246,5.78428735 3.22873274,5.94172673 3.48778866,6.14612478 C3.74684458,6.35052284 3.8763706,6.62949437 3.8763706,6.98304776 C3.8763706,7.43051377 3.70550649,7.79511024 3.36377315,8.07684809 C3.0220398,8.35858595 2.5673208,8.49945277 1.99960251,8.49945277 C1.17834011,8.49945277 0.519686534,8.16800144 0.0236220024,7.50508883 L0.494880951,7.02447959 C0.96889817,7.58795531 1.47322288,7.86968894 2.00787021,7.86968894 C2.33306807,7.86968894 2.61554502,7.78268297 2.85530954,7.60866841 C3.09507407,7.43465385 3.21495453,7.22887781 3.21495453,6.99133413 C3.21495453,6.83113025 3.13916803,6.706836 2.98759276,6.61844765 C2.83601748,6.53005931 2.5562964,6.44443438 2.14842112,6.3615703 C1.47046626,6.22346351 0.979920916,6.04116528 0.676770369,5.81467014 C0.373619823,5.588175 0.222046823,5.2898688 0.222046823,4.91974259 C0.222046823,4.49989794 0.388777123,4.16154138 0.722242724,3.90466274 C1.05570833,3.64778411 1.4980259,3.51934672 2.04920871,3.51934672 C2.8704711,3.51934672 3.46022786,3.7762215 3.81849669,4.28997877 L3.37204085,4.73744254 C3.17912686,4.53304449 2.98759371,4.38665348 2.79743564,4.29826513 C2.60727757,4.20987679 2.38267394,4.16568328 2.12361802,4.16568328 C1.76534919,4.16568328 1.46909287,4.23473564 1.23484018,4.37284243 C1.00058748,4.51094922 0.883462891,4.68772327 0.883462891,4.90316986 C0.883462891,5.0909951 0.988186054,5.24429134 1.19763552,5.36306318 C1.40708499,5.48183502 1.74330146,5.58541357 2.20629503,5.67380191 Z M8.85352651,7.11562962 L9.48187177,7.39736607 C9.3110051,7.76749227 9.08226767,8.04370172 8.7956526,8.22600268 C8.50903754,8.40830365 8.20313567,8.49945277 7.87793781,8.49945277 C7.43699156,8.49945277 7.05392525,8.34201338 6.72872739,8.0271299 C6.40352953,7.71224641 6.24093304,7.28964596 6.24093304,6.75931588 L6.24093304,4.28997877 L5.48030456,4.28997877 L5.48030456,3.65192857 L6.24093304,3.65192857 L6.24093304,1.86207349 L6.94368761,1.91179169 L6.94368761,3.65192857 L8.95273892,3.65192857 L8.95273892,4.28997877 L6.94368761,4.28997877 L6.94368761,6.75931588 C6.94368761,7.09077218 7.03325348,7.34764696 7.21238789,7.52994793 C7.3915223,7.71224889 7.61061419,7.80339801 7.86967011,7.80339801 C8.07360775,7.80339801 8.26376297,7.74539403 8.44014147,7.62938432 C8.61651997,7.51337462 8.7543136,7.34212476 8.85352651,7.11562962 Z M14.7566649,4.43084699 C14.3487896,4.22092467 13.9574557,4.18639849 13.5826514,4.32726742 C13.2078471,4.46813634 12.9791096,4.72086798 12.8964322,5.08546992 L12.8964322,7.79511164 L14.2936737,7.79511164 L14.2936737,7.82825711 C14.2936737,8.08237361 14.3102089,8.26467184 14.3432799,8.37515727 L10.7550977,8.37515727 L10.7550977,7.79511164 L12.2184808,7.79511164 L12.2184808,4.2319742 L11.2511598,4.17396964 L11.2511598,3.65192857 L12.9873769,3.65192857 C12.9598178,3.69612275 12.9308811,3.78450977 12.9005661,3.91709229 C12.870251,4.04967481 12.8550937,4.14634812 12.8550937,4.20711511 C13.0976142,3.74860055 13.577136,3.51934672 14.2936737,3.51934672 C14.508635,3.51934672 14.8090251,3.59392327 15.1948531,3.7430786 L14.7566649,4.43084699 Z M18.2290993,2.81500559 C17.8818541,2.81500559 17.7082341,2.64099365 17.7082341,2.29296453 C17.7082341,1.95045968 17.8818541,1.77920983 18.2290993,1.77920983 C18.5708326,1.77920983 18.7416967,1.95045968 18.7416967,2.29296453 C18.7416967,2.64099365 18.5708326,2.81500559 18.2290993,2.81500559 Z M20.089332,7.82825711 C20.089332,8.08237361 20.1058672,8.26467184 20.1389382,8.37515727 L16.550756,8.37515727 L16.550756,7.79511164 L17.9728005,7.79511164 L17.9728005,4.2319742 L17.0054795,4.17396964 L17.0054795,3.65192857 L18.650752,3.65192857 L18.6424843,7.79511164 L20.089332,7.79511164 L20.089332,7.82825711 Z M22.5696422,4.21954466 L22.5696422,4.20711511 C22.6798788,4.00271705 22.870034,3.83699139 23.1401136,3.70993314 C23.4101932,3.58287489 23.694048,3.51934672 23.9916868,3.51934672 C24.3775147,3.51934672 24.7054636,3.64087887 24.9755432,3.88394683 C25.2456227,4.12701478 25.435778,4.42255889 25.5460145,4.770588 C25.6562511,5.11861712 25.7113685,5.49978615 25.7113685,5.91410653 L25.7113685,7.82825711 C25.7113685,8.08237361 25.7279038,8.26467184 25.7609747,8.37515727 L24.9590078,8.37515727 L24.9590078,5.74009284 C24.9590078,5.30367538 24.8405052,4.94184101 24.6034966,4.65457888 C24.366488,4.36731675 24.0468068,4.22368784 23.6444433,4.22368784 C23.1759379,4.22368784 22.8176745,4.46951424 22.5696422,4.96117442 L22.5696422,8.37515727 L21.8668876,8.37515727 L21.8668876,3.65192857 L22.7515316,3.65192857 C22.6412951,3.80108391 22.5806659,3.98614424 22.5696422,4.20711511 L22.5696422,4.21954466 Z M30.4818319,3.65192857 L31.2341927,3.65192857 C31.2011217,3.76241401 31.1845865,3.94471224 31.1845865,4.19882874 L31.1845865,8.37515727 C31.1845865,8.82814755 31.0054548,9.18998192 30.6471859,9.46067124 C30.2889171,9.73136055 29.8093953,9.86670318 29.208606,9.86670318 C28.7731716,9.86670318 28.3666803,9.79626977 27.9891201,9.65540084 C27.6115599,9.51453191 27.3373506,9.33085263 27.1664839,9.10435749 L27.5881366,8.59060279 C27.9519173,9.01597172 28.500336,9.22865299 29.2334091,9.22865299 C30.0656951,9.22865299 30.4818319,8.94415726 30.4818319,8.37515727 L30.4818319,7.38079334 C30.029862,7.739871 29.5586078,7.91940714 29.0680551,7.91940714 C28.4341948,7.91940714 27.9160908,7.70948796 27.5137273,7.28964331 C27.1113639,6.86979866 26.9101852,6.32566606 26.9101852,5.65722918 C26.9101852,5.00536512 27.1058521,4.48609137 27.4971919,4.09939235 C27.8885317,3.71269333 28.4121475,3.51934672 29.0680551,3.51934672 C29.6743562,3.51934672 30.1456104,3.75688684 30.4818319,4.2319742 L30.4818319,3.65192857 Z M29.0680551,7.24821148 C29.3767175,7.24821148 29.6564385,7.17777807 29.9072267,7.03690914 C30.1580149,6.89604021 30.3495481,6.70131256 30.4818319,6.45272033 L30.4818319,5.06061082 C30.3275007,4.76230015 30.1277,4.53166526 29.8824236,4.36869925 C29.6371473,4.20573323 29.3656938,4.12425144 29.0680551,4.12425144 C28.654668,4.12425144 28.3060501,4.2720235 28.0221909,4.56757203 C27.7383318,4.86312057 27.5964043,5.22633599 27.5964043,5.65722918 C27.5964043,6.09917092 27.7397097,6.47481576 28.0263248,6.78417498 C28.3129398,7.09353419 28.6601798,7.24821148 29.0680551,7.24821148 Z" id="string" fill="#A0C0D2"></path>
                                    </g>
                                    <g id="Group-12" transform="translate(25.700739, 24.990229)">
                                        <path d="M40.8841201,4.33135112 C40.884007,4.33137096 40.8838938,4.33139078 40.8837807,4.3314106 C40.8909611,4.33261004 40.8980942,4.33386172 40.90518,4.33516564 L40.8841201,4.33135112 Z M40.90518,4.33516564 C41.1918101,4.38791137 41.4010132,4.52614555 41.5327952,4.74987209 C41.667835,4.97912936 41.7353539,5.25671985 41.7353539,5.58265189 C41.7353539,5.84781693 41.6816144,6.14336103 41.5741337,6.46929306 C41.4666531,6.79522509 41.4129136,7.02724102 41.4129136,7.16534782 C41.4129136,7.45813422 41.5245264,7.65838606 41.7477554,7.76610936 C41.9709845,7.87383266 42.2451938,7.90559675 42.5703917,7.86140257 L42.5703917,8.40830274 C42.0247207,8.45249691 41.5727576,8.36272884 41.2144887,8.13899584 C40.8562199,7.91526283 40.6770882,7.5630958 40.6770882,7.08248416 C40.6770882,6.88361037 40.7322056,6.64192711 40.8424422,6.35742712 C40.9526788,6.07292713 41.0077962,5.80914711 41.0077962,5.56607915 C41.0077962,5.45006945 40.9967727,5.34787195 40.9747254,5.25948361 C40.9526781,5.17109526 40.9085841,5.0785651 40.8424422,4.98189034 C40.7763003,4.88521559 40.6660653,4.81063904 40.5117342,4.75815845 C40.357403,4.70567787 40.1644919,4.67943798 39.9329951,4.67943798 L39.9329951,4.01652868 C40.3629177,4.01652868 40.6495285,3.9350469 40.792836,3.77208088 C40.9361435,3.60911487 41.0077962,3.39781464 41.0077962,3.13817387 C41.0077962,2.90063019 40.9526788,2.61337237 40.8424422,2.2763918 C40.7322056,1.93941122 40.6770882,1.67977435 40.6770882,1.49747338 C40.6770882,1.05000737 40.8562199,0.725461275 41.2144887,0.523825357 C41.5727576,0.32218944 42.0247207,0.243469749 42.5703917,0.287663922 L42.5703917,0.834564088 C42.2341702,0.790369914 41.9572049,0.813847716 41.7394877,0.9049982 C41.5217705,0.996148683 41.4129136,1.17706587 41.4129136,1.44775518 C41.4129136,1.57481343 41.4666531,1.82892612 41.5741337,2.21010087 C41.6816144,2.59127561 41.7353539,2.90615438 41.7353539,3.15474661 C41.7353539,3.83961979 41.4516121,4.23181738 40.8841201,4.33135112 L40.90518,4.33516564 Z" id="{" fill="#5BD4F7"></path>
                                        <path d="M4.64644788,2.80671923 C4.2385726,2.5967969 3.84723867,2.56227072 3.47243436,2.70313965 C3.09763004,2.84400858 2.86889261,3.09674022 2.78621519,3.46134215 L2.78621519,6.17098388 L4.18345663,6.17098388 L4.18345663,6.20412935 C4.18345663,6.45824584 4.19999187,6.64054408 4.23306283,6.75102951 L0.644880666,6.75102951 L0.644880666,6.17098388 L2.10826372,6.17098388 L2.10826372,2.60784644 L1.14094272,2.54984188 L1.14094272,2.02780081 L2.8771599,2.02780081 C2.84960075,2.07199499 2.82066409,2.16038201 2.79034904,2.29296453 C2.76003398,2.42554705 2.74487668,2.52222035 2.74487668,2.58298734 C2.98739712,2.12447279 3.46691897,1.89521895 4.18345663,1.89521895 C4.39841793,1.89521895 4.69880805,1.9697955 5.08463602,2.11895084 L4.64644788,2.80671923 Z M6.68030229,2.52498278 C7.03857111,2.10513813 7.55116344,1.89521895 8.21809464,1.89521895 C8.88502585,1.89521895 9.38797262,2.10513813 9.72695005,2.52498278 C10.0659275,2.94482743 10.2216343,3.53867773 10.1940751,4.3065515 L10.1775397,4.71258344 L6.8208532,4.72915617 C6.8208532,5.17109791 6.95175715,5.53293228 7.21356899,5.81467014 C7.47538083,6.09640799 7.81573111,6.23727481 8.23463005,6.23727481 C8.70313544,6.23727481 9.16887793,6.01354516 9.63187149,5.56607915 L10.0535242,6.07983385 C9.56848336,6.61016394 8.97045898,6.875325 8.25943315,6.875325 C7.63659657,6.875325 7.12400424,6.67369211 6.72164079,6.27042027 C6.31927734,5.86714844 6.11809863,5.35339888 6.11809863,4.72915617 L6.11809863,4.3065515 C6.14014594,3.53315346 6.32754529,2.93930316 6.68030229,2.52498278 Z M9.44171437,4.09110598 C9.46927351,3.58287298 9.37281796,3.19341767 9.15234484,2.92272835 C8.93187171,2.65203904 8.59565524,2.51669641 8.14368534,2.51669641 C7.31139929,2.51669641 6.87321553,3.04149435 6.8291209,4.09110598 L9.44171437,4.09110598 Z M15.1133572,5.49150186 L15.7417024,5.77323831 C15.5708357,6.14336451 15.3420983,6.41957395 15.0554832,6.60187492 C14.7688682,6.78417589 14.4629663,6.875325 14.1377685,6.875325 C13.6968222,6.875325 13.3137559,6.71788562 12.988558,6.40300213 C12.6633602,6.08811865 12.5007637,5.6655182 12.5007637,5.13518811 L12.5007637,2.665851 L11.7401352,2.665851 L11.7401352,2.02780081 L12.5007637,2.02780081 L12.5007637,0.237945725 L13.2035183,0.287663922 L13.2035183,2.02780081 L15.2125696,2.02780081 L15.2125696,2.665851 L13.2035183,2.665851 L13.2035183,5.13518811 C13.2035183,5.46664442 13.2930841,5.7235192 13.4722185,5.90582016 C13.6513529,6.08812113 13.8704448,6.17927025 14.1295008,6.17927025 C14.3334384,6.17927025 14.5235936,6.12126626 14.6999721,6.00525656 C14.8763506,5.88924685 15.0141442,5.717997 15.1133572,5.49150186 Z M20.9834248,6.75102951 L20.231064,6.75102951 L20.231064,6.07154749 C20.1042919,6.31461544 19.9113808,6.5093431 19.6523249,6.6557363 C19.393269,6.8021295 19.1149259,6.875325 18.8172871,6.875325 C18.3212226,6.875325 17.9078417,6.64883326 17.577132,6.19584298 C17.2464223,5.7428527 17.08107,5.1987201 17.08107,4.56342885 L17.08107,2.01951445 L17.8334307,2.01951445 L17.8334307,4.73744254 C17.8334307,5.14623865 17.957445,5.50116778 18.2054773,5.80224059 C18.4535095,6.1033134 18.767679,6.25384754 19.1479952,6.25384754 C19.3850038,6.25384754 19.575159,6.18755728 19.7184665,6.05497476 C19.8617741,5.92239223 20.0326382,5.6931384 20.231064,5.36720637 L20.231064,2.02780081 L20.9338185,2.02780081 L20.9338185,6.20412935 C20.9338185,6.45824584 20.9503538,6.64054408 20.9834248,6.75102951 Z M26.4731781,2.80671923 C26.0653028,2.5967969 25.6739689,2.56227072 25.2991646,2.70313965 C24.9243603,2.84400858 24.6956228,3.09674022 24.6129454,3.46134215 L24.6129454,6.17098388 L26.0101869,6.17098388 L26.0101869,6.20412935 C26.0101869,6.45824584 26.0267221,6.64054408 26.0597931,6.75102951 L22.4716109,6.75102951 L22.4716109,6.17098388 L23.934994,6.17098388 L23.934994,2.60784644 L22.967673,2.54984188 L22.967673,2.02780081 L24.7038901,2.02780081 C24.676331,2.07199499 24.6473943,2.16038201 24.6170793,2.29296453 C24.5867642,2.42554705 24.5716069,2.52222035 24.5716069,2.58298734 C24.8141274,2.12447279 25.2936492,1.89521895 26.0101869,1.89521895 C26.2251482,1.89521895 26.5255383,1.9697955 26.9113663,2.11895084 L26.4731781,2.80671923 Z M28.8294729,2.59541689 L28.8294729,2.58298734 C28.9397094,2.37858929 29.1298646,2.21286362 29.3999442,2.08580537 C29.6700238,1.95874713 29.9538787,1.89521895 30.2515174,1.89521895 C30.6373454,1.89521895 30.9652942,2.01675111 31.2353738,2.25981906 C31.5054534,2.50288702 31.6956086,2.79843112 31.8058452,3.14646024 C31.9160817,3.49448936 31.9711992,3.87565839 31.9711992,4.28997877 L31.9711992,6.20412935 C31.9711992,6.45824584 31.9877344,6.64054408 32.0208054,6.75102951 L31.2188384,6.75102951 L31.2188384,4.11596508 C31.2188384,3.67954761 31.1003359,3.31771324 30.8633273,3.03045111 C30.6263187,2.74318899 30.3066374,2.59956008 29.904274,2.59956008 C29.4357686,2.59956008 29.0775051,2.84538648 28.8294729,3.33704666 L28.8294729,6.75102951 L28.1267183,6.75102951 L28.1267183,2.02780081 L29.0113623,2.02780081 C28.9011257,2.17695615 28.8404965,2.36201647 28.8294729,2.58298734 L28.8294729,2.59541689 Z" id="return" fill="#9183ED"></path>
                                    </g>
                                    <g id="Group-11" transform="translate(12.047221, 12.092046)">
                                        <path d="M80.0892181,4.66522414 C80.0892181,5.38890373 80.2063427,6.0255665 80.4405954,6.57523153 C80.6748481,7.12489657 81.0785835,7.70631744 81.6518136,8.3195116 L81.2301608,8.75040264 C80.5411823,8.10406285 80.0409914,7.45773276 79.7295731,6.81139297 C79.4181548,6.16505318 79.262448,5.44967072 79.262448,4.66522414 C79.262448,3.88077755 79.4181548,3.1653951 79.7295731,2.51905531 C80.0409914,1.87271552 80.5411823,1.22638542 81.2301608,0.58004563 L81.6518136,1.01093667 C81.0840953,1.62413083 80.6817379,2.20693275 80.4447293,2.75935992 C80.2077206,3.3117871 80.0892181,3.94706881 80.0892181,4.66522414 Z M86.256923,4.66522414 C86.256923,3.94706881 86.1384204,3.3117871 85.9014118,2.75935992 C85.6644032,2.20693275 85.2620458,1.62413083 84.6943275,1.01093667 L85.1159802,0.58004563 C85.8049588,1.22638542 86.3051497,1.87271552 86.6165679,2.51905531 C86.9279862,3.1653951 87.083693,3.88077755 87.083693,4.66522414 C87.083693,5.44967072 86.9279862,6.16505318 86.6165679,6.81139297 C86.3051497,7.45773276 85.8049588,8.10406285 85.1159802,8.75040264 L84.6943275,8.3195116 C85.2675576,7.70631744 85.671293,7.12489657 85.9055457,6.57523153 C86.1397984,6.0255665 86.256923,5.38890373 86.256923,4.66522414 Z M96.4641297,4.67726555 C96.7507598,4.73001127 96.9599629,4.86824546 97.0917449,5.09197199 C97.2267847,5.32122927 97.2943036,5.59881976 97.2943036,5.92475179 C97.2943036,6.18991683 97.2405641,6.48546094 97.1330834,6.81139297 C97.0256028,7.137325 96.9718633,7.36934093 96.9718633,7.50744772 C96.9718633,7.80023412 97.0834761,8.00048597 97.3067051,8.10820927 C97.5299342,8.21593257 97.8041435,8.24769665 98.1293414,8.20350248 L98.1293414,8.75040264 C97.5836704,8.79459682 97.1317073,8.70482875 96.7734384,8.48109574 C96.4151696,8.25736274 96.2360379,7.9051957 96.2360379,7.42458406 C96.2360379,7.22571028 96.2911553,6.98402702 96.4013919,6.69952702 C96.5116285,6.41502703 96.5667459,6.15124701 96.5667459,5.90817906 C96.5667459,5.79216935 96.5557224,5.68997186 96.5336751,5.60158351 C96.5116278,5.51319516 96.4675338,5.420665 96.4013919,5.32399024 C96.33525,5.22731549 96.225015,5.15273894 96.0706839,5.10025836 C95.9163527,5.04777778 95.7234416,5.02153788 95.4919448,5.02153788 L95.4919448,4.35862859 C95.9218674,4.35862859 96.2084782,4.2771468 96.3517857,4.11418079 C96.4950932,3.95121477 96.5667459,3.73991455 96.5667459,3.48027378 C96.5667459,3.24273009 96.5116285,2.95547227 96.4013919,2.6184917 C96.2911553,2.28151113 96.2360379,2.02187425 96.2360379,1.83957328 C96.2360379,1.39210727 96.4151696,1.06756118 96.7734384,0.865925262 C97.1317073,0.664289344 97.5836704,0.585569653 98.1293414,0.629763827 L98.1293414,1.17666399 C97.7931199,1.13246982 97.5161546,1.15594762 97.2984374,1.2470981 C97.0807202,1.33824859 96.9718633,1.51916577 96.9718633,1.78985509 C96.9718633,1.91691334 97.0256028,2.17102602 97.1330834,2.55220077 C97.2405641,2.93337552 97.2943036,3.24825428 97.2943036,3.49684651 C97.2943036,4.1817197 97.0105618,4.57391728 96.4430698,4.67345102 L96.4641297,4.67726555 Z" id="()-{" fill="#5BD4F7"></path>
                                        <path d="M36.5597732,1.19323672 C36.3007172,1.19323672 36.0816253,1.28438584 35.9024909,1.46668681 C35.7233565,1.64898777 35.6337907,1.90586255 35.6337907,2.23731886 L35.6337907,4.43320588 L37.502291,4.43320588 L37.502291,5.07125608 L35.6337907,5.07125608 L35.6337907,8.80012084 L34.9310361,8.75040264 L34.9310361,5.07125608 L34.0298567,5.07125608 L34.0298567,4.43320588 L34.9310361,4.43320588 L34.9310361,2.23731886 C34.9310361,1.70698877 35.0936326,1.28438833 35.4188304,0.969504838 C35.7440283,0.654621351 36.1270946,0.497181968 36.5680409,0.497181968 C36.8932387,0.497181968 37.1991406,0.588331084 37.4857556,0.770632051 C37.7723707,0.952933018 38.0011081,1.22914246 38.1719748,1.59926866 L37.5436296,1.88100511 C37.4444166,1.65450997 37.306623,1.48326012 37.1302445,1.36725041 C36.953866,1.25124071 36.7637108,1.19323672 36.5597732,1.19323672 Z M43.140863,7.09312942 L42.3885023,7.09312942 L42.3885023,6.41364739 C42.2617302,6.65671535 42.0688191,6.851443 41.8097632,6.9978362 C41.5507073,7.1442294 41.2723641,7.21742491 40.9747254,7.21742491 C40.4786609,7.21742491 40.06528,6.99093316 39.7345703,6.53794288 C39.4038606,6.0849526 39.2385082,5.54082 39.2385082,4.90552875 L39.2385082,2.36161435 L39.990869,2.36161435 L39.990869,5.07954244 C39.990869,5.48833855 40.1148833,5.84326768 40.3629155,6.14434049 C40.6109478,6.4454133 40.9251173,6.59594745 41.3054334,6.59594745 C41.542442,6.59594745 41.7325973,6.52965718 41.8759048,6.39707466 C42.0192123,6.26449214 42.1900764,6.0352383 42.3885023,5.70930627 L42.3885023,2.36990072 L43.0912568,2.36990072 L43.0912568,6.54622925 C43.0912568,6.80034575 43.1077921,6.98264398 43.140863,7.09312942 Z M45.5302286,2.9375168 L45.5302286,2.92508725 C45.6404651,2.72068919 45.8306204,2.55496353 46.1006999,2.42790528 C46.3707795,2.30084703 46.6546344,2.23731886 46.9522731,2.23731886 C47.3381011,2.23731886 47.6660499,2.35885101 47.9361295,2.60191897 C48.2062091,2.84498692 48.3963643,3.14053103 48.5066009,3.48856014 C48.6168374,3.83658926 48.6719549,4.21775829 48.6719549,4.63207867 L48.6719549,6.54622925 C48.6719549,6.80034575 48.6884901,6.98264398 48.7215611,7.09312942 L47.9195941,7.09312942 L47.9195941,4.45806498 C47.9195941,4.02164752 47.8010916,3.65981315 47.564083,3.37255102 C47.3270744,3.08528889 47.0073931,2.94165998 46.6050297,2.94165998 C46.1365243,2.94165998 45.7782608,3.18748638 45.5302286,3.67914657 L45.5302286,7.09312942 L44.827474,7.09312942 L44.827474,2.36990072 L45.712118,2.36990072 C45.6018814,2.51905605 45.5412522,2.70411638 45.5302286,2.92508725 L45.5302286,2.9375168 Z M53.4176152,5.60986988 L54.2278499,5.725879 C54.1396606,6.17886928 53.9081673,6.53932261 53.533363,6.80724978 C53.1585587,7.07517696 52.7010838,7.20913854 52.1609247,7.20913854 C51.4829698,7.20913854 50.959354,7.0061246 50.5900615,6.60009063 C50.220769,6.19405666 50.0361255,5.62092207 50.0361255,4.88066966 C50.0361255,4.09622307 50.2180131,3.45956031 50.5817938,2.97066226 C50.9455744,2.48176421 51.4719461,2.23731886 52.1609247,2.23731886 C52.6184064,2.23731886 53.0331652,2.35746997 53.4052136,2.59777578 C53.777262,2.8380816 54.0239126,3.15157932 54.1451729,3.53827834 L53.368009,3.76201023 C53.2853316,3.49684518 53.1337586,3.28692601 52.9132854,3.1322464 C52.6928123,2.97756679 52.4420279,2.90022815 52.1609247,2.90022815 C51.7089547,2.90022815 51.3727383,3.07285905 51.1522652,3.41812603 C50.931792,3.76339301 50.8215571,4.25090268 50.8215571,4.88066966 C50.8215571,5.99657254 51.2680085,6.55451562 52.1609247,6.55451562 C52.5081698,6.55451562 52.7906468,6.47441488 53.008364,6.314211 C53.2260812,6.15400712 53.3624969,5.91922909 53.4176152,5.60986988 Z M59.0975257,5.83360176 L59.7258709,6.11533821 C59.5550043,6.48546442 59.3262668,6.76167386 59.0396518,6.94397482 C58.7530367,7.12627579 58.4471348,7.21742491 58.121937,7.21742491 C57.6809907,7.21742491 57.2979244,7.05998552 56.9727265,6.74510204 C56.6475287,6.43021855 56.4849322,6.0076181 56.4849322,5.47728802 L56.4849322,3.00795091 L55.7243037,3.00795091 L55.7243037,2.36990072 L56.4849322,2.36990072 L56.4849322,0.58004563 L57.1876868,0.629763827 L57.1876868,2.36990072 L59.1967381,2.36990072 L59.1967381,3.00795091 L57.1876868,3.00795091 L57.1876868,5.47728802 C57.1876868,5.80874432 57.2772526,6.0656191 57.456387,6.24792007 C57.6355215,6.43022104 57.8546133,6.52137015 58.1136693,6.52137015 C58.3176069,6.52137015 58.5077621,6.46336617 58.6841406,6.34735646 C58.8605191,6.23134676 58.9983128,6.0600969 59.0975257,5.83360176 Z M63.0164159,1.53297774 C62.6691707,1.53297774 62.4955507,1.35896579 62.4955507,1.01093667 C62.4955507,0.668431823 62.6691707,0.497181968 63.0164159,0.497181968 C63.3581492,0.497181968 63.5290133,0.668431823 63.5290133,1.01093667 C63.5290133,1.35896579 63.3581492,1.53297774 63.0164159,1.53297774 Z M64.8766486,6.54622925 C64.8766486,6.80034575 64.8931838,6.98264398 64.9262548,7.09312942 L61.3380726,7.09312942 L61.3380726,6.51308379 L62.7601171,6.51308379 L62.7601171,2.94994635 L61.7927961,2.89194178 L61.7927961,2.36990072 L63.4380686,2.36990072 L63.4298009,6.51308379 L64.8766486,6.51308379 L64.8766486,6.54622925 Z M70.1101032,6.52137015 C69.7132516,6.98540898 69.1868799,7.21742491 68.5309723,7.21742491 C67.8750648,7.21742491 67.350071,6.98679002 66.9559753,6.52551333 C66.5618796,6.06423665 66.3648347,5.44967064 66.3648347,4.68179687 C66.3648347,3.93049592 66.5591237,3.33526457 66.9477076,2.89608497 C67.3362915,2.45690536 67.8640411,2.23731886 68.5309723,2.23731886 C69.1923917,2.23731886 69.7215193,2.45966746 70.1183709,2.90437133 C70.5152225,3.3490752 70.7136454,3.94154446 70.7136454,4.68179687 C70.7136454,5.44414637 70.5124666,6.05733133 70.1101032,6.52137015 Z M68.5309723,6.61252018 C68.9664068,6.61252018 69.3053791,6.44265137 69.5478995,6.10290866 C69.79042,5.76316595 69.9116784,5.28946676 69.9116784,4.68179687 C69.9116784,4.07965125 69.79042,3.61700044 69.5478995,3.29383054 C69.3053791,2.97066065 68.9664068,2.81184022 68.5309723,2.81736449 C68.1120734,2.82288876 67.7841245,2.98723338 67.5471159,3.31040327 C67.3101073,3.63357317 67.1916048,4.0906998 67.1916048,4.68179687 C67.1916048,5.28394249 67.3101073,5.75626063 67.5471159,6.09876548 C67.7841245,6.44127032 68.1120734,6.61252018 68.5309723,6.61252018 Z M72.8136414,2.9375168 L72.8136414,2.92508725 C72.9238779,2.72068919 73.1140332,2.55496353 73.3841127,2.42790528 C73.6541923,2.30084703 73.9380472,2.23731886 74.2356859,2.23731886 C74.6215139,2.23731886 74.9494627,2.35885101 75.2195423,2.60191897 C75.4896219,2.84498692 75.6797771,3.14053103 75.7900137,3.48856014 C75.9002502,3.83658926 75.9553677,4.21775829 75.9553677,4.63207867 L75.9553677,6.54622925 C75.9553677,6.80034575 75.9719029,6.98264398 76.0049739,7.09312942 L75.2030069,7.09312942 L75.2030069,4.45806498 C75.2030069,4.02164752 75.0845044,3.65981315 74.8474958,3.37255102 C74.6104872,3.08528889 74.2908059,2.94165998 73.8884425,2.94165998 C73.4199371,2.94165998 73.0616736,3.18748638 72.8136414,3.67914657 L72.8136414,7.09312942 L72.1108868,7.09312942 L72.1108868,2.36990072 L72.9955308,2.36990072 C72.8852942,2.51905605 72.824665,2.70411638 72.8136414,2.92508725 L72.8136414,2.9375168 Z" id="function" fill="#6893F4"></path>
                                        <path d="M4.81180189,7.09312942 L4.05944112,7.09312942 L4.05944112,6.73681567 C3.70117229,7.05169916 3.25747678,7.20913854 2.72834128,7.20913854 C2.07243373,7.20913854 1.54606204,6.97021737 1.14921042,6.49236787 C0.752358793,6.01451837 0.553935957,5.38337979 0.553935957,4.59893321 C0.553935957,3.85315653 0.737201493,3.2731167 1.10373806,2.85879632 C1.47027463,2.44447594 1.9842449,2.23731886 2.64566427,2.23731886 C3.24645354,2.23731886 3.71770777,2.48038317 4.05944112,2.96651908 L4.05944112,0.58004563 L4.76219569,0.629763827 L4.76219569,6.54622925 C4.76219569,6.80034575 4.77873093,6.98264398 4.81180189,7.09312942 Z M2.72834128,6.53794288 C3.40629614,6.53794288 3.84999165,6.29487857 4.05944112,5.80874266 L4.05944112,3.79515569 C3.90510993,3.49684502 3.70530916,3.26621013 3.46003281,3.10324412 C3.21475645,2.9402781 2.94330299,2.85879632 2.64566427,2.85879632 C2.22676533,2.85879632 1.89054886,3.01761675 1.63700477,3.33526237 C1.38346067,3.65290799 1.25669053,4.07412739 1.25669053,4.59893321 C1.25669053,5.16793319 1.39448417,5.6333461 1.67007557,5.9951859 C1.94566698,6.3570257 2.29841869,6.53794288 2.72834128,6.53794288 Z M8.01966982,2.23731886 C8.6425064,2.23731886 9.15509873,2.43895175 9.55746218,2.84222359 C9.95982563,3.24549542 10.1610043,3.76200708 10.1610043,4.39177405 L10.1610043,7.09312942 L9.27636035,7.09312942 C9.39762057,6.91635272 9.45824977,6.72300611 9.45824977,6.51308379 C9.33698955,6.72300611 9.14407846,6.89011282 8.87951071,7.01440894 C8.61494296,7.13870505 8.31730871,7.20361427 7.98659902,7.20913854 C7.44092804,7.20913854 6.99309872,7.09174953 6.64309763,6.85696798 C6.29309655,6.62218643 6.11809863,6.29211615 6.11809863,5.86674723 C6.11809863,4.91104822 7.06611885,4.43320588 8.96218772,4.43320588 C9.06140063,4.43320588 9.22675299,4.43873007 9.45824977,4.44977862 L9.45824977,4.39177405 C9.45824977,3.94430804 9.32734582,3.57971158 9.06553398,3.29797372 C8.80372214,3.01623587 8.46337186,2.87536905 8.04447293,2.87536905 C7.57596754,2.87536905 7.11022504,3.0990987 6.64723148,3.54656471 L6.22557874,3.03281001 C6.71061961,2.50247992 7.308644,2.23731886 8.01966982,2.23731886 Z M7.86258351,6.61252018 C8.16022223,6.61252018 8.45510061,6.54484887 8.7472275,6.40950421 C9.03935439,6.27415955 9.27635944,6.07943189 9.45824977,5.8253154 L9.45824977,5.06296971 C9.33698955,5.05744544 9.1606137,5.05468334 8.92911692,5.05468334 C8.20706743,5.05468334 7.67793987,5.11821152 7.34171835,5.24526977 C7.00549684,5.37232802 6.8373886,5.5794851 6.8373886,5.86674723 C6.8373886,6.10429091 6.93522208,6.28797019 7.13089198,6.41779057 C7.32656188,6.54761096 7.57045662,6.61252018 7.86258351,6.61252018 Z M15.1133572,5.83360176 L15.7417024,6.11533821 C15.5708357,6.48546442 15.3420983,6.76167386 15.0554832,6.94397482 C14.7688682,7.12627579 14.4629663,7.21742491 14.1377685,7.21742491 C13.6968222,7.21742491 13.3137559,7.05998552 12.988558,6.74510204 C12.6633602,6.43021855 12.5007637,6.0076181 12.5007637,5.47728802 L12.5007637,3.00795091 L11.7401352,3.00795091 L11.7401352,2.36990072 L12.5007637,2.36990072 L12.5007637,0.58004563 L13.2035183,0.629763827 L13.2035183,2.36990072 L15.2125696,2.36990072 L15.2125696,3.00795091 L13.2035183,3.00795091 L13.2035183,5.47728802 C13.2035183,5.80874432 13.2930841,6.0656191 13.4722185,6.24792007 C13.6513529,6.43022104 13.8704448,6.52137015 14.1295008,6.52137015 C14.3334384,6.52137015 14.5235936,6.46336617 14.6999721,6.34735646 C14.8763506,6.23134676 15.0141442,6.0600969 15.1133572,5.83360176 Z M18.9330349,2.23731886 C19.5558715,2.23731886 20.0684638,2.43895175 20.4708273,2.84222359 C20.8731908,3.24549542 21.0743695,3.76200708 21.0743695,4.39177405 L21.0743695,7.09312942 L20.1897255,7.09312942 C20.3109857,6.91635272 20.3716149,6.72300611 20.3716149,6.51308379 C20.2503547,6.72300611 20.0574436,6.89011282 19.7928758,7.01440894 C19.5283081,7.13870505 19.2306738,7.20361427 18.8999641,7.20913854 C18.3542932,7.20913854 17.9064638,7.09174953 17.5564628,6.85696798 C17.2064617,6.62218643 17.0314637,6.29211615 17.0314637,5.86674723 C17.0314637,4.91104822 17.979484,4.43320588 19.8755528,4.43320588 C19.9747657,4.43320588 20.1401181,4.43873007 20.3716149,4.44977862 L20.3716149,4.39177405 C20.3716149,3.94430804 20.2407109,3.57971158 19.9788991,3.29797372 C19.7170873,3.01623587 19.376737,2.87536905 18.957838,2.87536905 C18.4893327,2.87536905 18.0235902,3.0990987 17.5605966,3.54656471 L17.1389439,3.03281001 C17.6239847,2.50247992 18.2220091,2.23731886 18.9330349,2.23731886 Z M18.7759486,6.61252018 C19.0735873,6.61252018 19.3684657,6.54484887 19.6605926,6.40950421 C19.9527195,6.27415955 20.1897246,6.07943189 20.3716149,5.8253154 L20.3716149,5.06296971 C20.2503547,5.05744544 20.0739788,5.05468334 19.842482,5.05468334 C19.1204326,5.05468334 18.591305,5.11821152 18.2550835,5.24526977 C17.918862,5.37232802 17.7507537,5.5794851 17.7507537,5.86674723 C17.7507537,6.10429091 17.8485872,6.28797019 18.0442571,6.41779057 C18.239927,6.54761096 18.4838217,6.61252018 18.7759486,6.61252018 Z M24.0342064,3.29797372 C24.0342064,2.95546888 24.2078263,2.78421902 24.5550715,2.78421902 C24.8968049,2.78421902 25.067669,2.95546888 25.067669,3.29797372 C25.067669,3.64600284 24.8968049,3.82001479 24.5550715,3.82001479 C24.2078263,3.82001479 24.0342064,3.64600284 24.0342064,3.29797372 Z M24.0342064,6.44679286 C24.0342064,6.10428801 24.2078263,5.93303816 24.5550715,5.93303816 C24.8968049,5.93303816 25.067669,6.10428801 25.067669,6.44679286 C25.067669,6.79482197 24.8968049,6.96883392 24.5550715,6.96883392 C24.2078263,6.96883392 24.0342064,6.79482197 24.0342064,6.44679286 Z" id="data:" fill="#5BD4F7"></path>
                                    </g>
                                    <path d="M0.164172917,3.65428747 L3.34723774,1.68213233 L3.62007187,2.34504162 L0.850392087,4.03546031 L3.62007187,5.73416537 L3.32243464,6.38050193 L0.164172917,4.40834679 L0.164172917,3.65428747 Z M7.66297759,3.92773755 C8.25825502,4.03822298 8.6854153,4.19566237 8.94447122,4.40006042 C9.20352714,4.60445847 9.33305316,4.88343001 9.33305316,5.2369834 C9.33305316,5.68444941 9.16218905,6.04904587 8.82045571,6.33078373 C8.47872236,6.61252159 8.02400336,6.7533884 7.45628507,6.7533884 C6.63502267,6.7533884 5.97636909,6.42193707 5.48030456,5.75902447 L5.95156351,5.27841523 C6.42558073,5.84189095 6.92990544,6.12362458 7.46455277,6.12362458 C7.78975063,6.12362458 8.07222758,6.0366186 8.3119921,5.86260404 C8.55175663,5.68858948 8.67163709,5.48281345 8.67163709,5.24526977 C8.67163709,5.08506589 8.59585059,4.96077164 8.44427532,4.87238329 C8.29270004,4.78399494 8.01297896,4.69837002 7.60510368,4.61550594 C6.92714882,4.47739915 6.43660348,4.29510091 6.13345293,4.06860577 C5.83030238,3.84211063 5.67872938,3.54380444 5.67872938,3.17367823 C5.67872938,2.75383358 5.84545968,2.41547701 6.17892528,2.15859838 C6.51239089,1.90171974 6.95470846,1.77328235 7.50589127,1.77328235 C8.32715366,1.77328235 8.91691042,2.03015714 9.27517925,2.5439144 L8.82872341,2.99137818 C8.63580942,2.78698012 8.44427627,2.64058912 8.2541182,2.55220077 C8.06396013,2.46381242 7.8393565,2.41961891 7.58030058,2.41961891 C7.22203175,2.41961891 6.92577543,2.48867127 6.69152274,2.62677807 C6.45727004,2.76488486 6.34014545,2.9416589 6.34014545,3.1571055 C6.34014545,3.34493074 6.44486861,3.49822698 6.65431808,3.61699882 C6.86376755,3.73577066 7.19998402,3.8393492 7.66297759,3.92773755 Z M14.0869811,5.14583337 L14.8972158,5.2618425 C14.8090266,5.71483278 14.5775333,6.0752861 14.202729,6.34321328 C13.8279246,6.61114046 13.3704498,6.74510204 12.8302906,6.74510204 C12.1523358,6.74510204 11.6287199,6.5420881 11.2594275,6.13605413 C10.890135,5.73002016 10.7054915,5.15688556 10.7054915,4.41663315 C10.7054915,3.63218657 10.8873791,2.9955238 11.2511598,2.50662576 C11.6149404,2.01772771 12.1413121,1.77328235 12.8302906,1.77328235 C13.2877724,1.77328235 13.7025312,1.89343346 14.0745796,2.13373928 C14.446628,2.3740451 14.6932786,2.68754282 14.8145388,3.07424184 L14.0373749,3.29797372 C13.9546975,3.03280868 13.8031245,2.8228895 13.5826514,2.6682099 C13.3621783,2.51353029 13.1113939,2.43619164 12.8302906,2.43619164 C12.3783207,2.43619164 12.0421042,2.60882255 11.8216311,2.95408953 C11.601158,3.29935651 11.4909231,3.78686618 11.4909231,4.41663315 C11.4909231,5.53253604 11.9373745,6.09047911 12.8302906,6.09047911 C13.1775358,6.09047911 13.4600127,6.01037837 13.67773,5.85017449 C13.8954472,5.68997061 14.0318629,5.45519259 14.0869811,5.14583337 Z M20.2133475,2.68478263 C19.8054722,2.4748603 19.4141383,2.44033412 19.039334,2.58120305 C18.6645296,2.72207198 18.4357922,2.97480362 18.3531148,3.33940555 L18.3531148,6.04904728 L19.7503562,6.04904728 L19.7503562,6.08219275 C19.7503562,6.33630925 19.7668915,6.51860748 19.7999624,6.62909291 L16.2117803,6.62909291 L16.2117803,6.04904728 L17.6751633,6.04904728 L17.6751633,2.48590984 L16.7078423,2.42790528 L16.7078423,1.90586421 L18.4440595,1.90586421 C18.4165004,1.95005839 18.3875637,2.03844541 18.3572486,2.17102793 C18.3269336,2.30361045 18.3117763,2.40028375 18.3117763,2.46105074 C18.5542967,2.00253619 19.0338186,1.77328235 19.7503562,1.77328235 C19.9653175,1.77328235 20.2657077,1.8478589 20.6515356,1.99701424 L20.2133475,2.68478263 Z M23.6857818,1.06894123 C23.3385367,1.06894123 23.1649167,0.894929283 23.1649167,0.546900165 C23.1649167,0.204395319 23.3385367,0.0331454646 23.6857818,0.0331454646 C24.0275152,0.0331454646 24.1983793,0.204395319 24.1983793,0.546900165 C24.1983793,0.894929283 24.0275152,1.06894123 23.6857818,1.06894123 Z M25.5460145,6.08219275 C25.5460145,6.33630925 25.5625498,6.51860748 25.5956207,6.62909291 L22.0074386,6.62909291 L22.0074386,6.04904728 L23.4294831,6.04904728 L23.4294831,2.48590984 L22.4621621,2.42790528 L22.4621621,1.90586421 L24.1074346,1.90586421 L24.0991669,6.04904728 L25.5460145,6.04904728 L25.5460145,6.08219275 Z M29.2582122,1.77328235 C29.9196316,1.77328235 30.4336018,1.98043944 30.8001384,2.39475981 C31.166675,2.80908019 31.3499405,3.38912002 31.3499405,4.1348967 C31.3499405,4.91934329 31.1515177,5.55048186 30.7546661,6.02833137 C30.3578144,6.50618087 29.8314427,6.74510204 29.1755352,6.74510204 C28.6463997,6.74510204 28.2027042,6.58766266 27.8444354,6.27277917 L27.8444354,8.28636614 L27.1416808,8.33608434 L27.1416808,1.90586421 L28.0263248,1.90586421 C27.9050646,2.08264091 27.8444354,2.27598752 27.8444354,2.48590984 L27.8444354,2.50248257 C28.1861687,2.01634666 28.6574229,1.77328235 29.2582122,1.77328235 Z M29.1755352,6.07390638 C29.6054578,6.07390638 29.9582095,5.8929892 30.2338009,5.5311494 C30.5093923,5.1693096 30.6471859,4.70389669 30.6471859,4.1348967 C30.6471859,3.61009089 30.5204158,3.18887149 30.2668717,2.87122587 C30.0133276,2.55358024 29.6771111,2.39475981 29.2582122,2.39475981 C28.9605735,2.39475981 28.68912,2.4762416 28.4438437,2.63920762 C28.1985673,2.80217363 27.9987665,3.03280852 27.8444354,3.33111919 L27.8444354,5.34470616 C28.0538848,5.83084207 28.4975803,6.07390638 29.1755352,6.07390638 Z M36.1369393,5.36956526 L36.7652846,5.65130171 C36.5944179,6.02142791 36.3656805,6.29763735 36.0790654,6.47993832 C35.7924503,6.66223929 35.4865485,6.7533884 35.1613506,6.7533884 C34.7204044,6.7533884 34.3373381,6.59594902 34.0121402,6.28106553 C33.6869423,5.96618205 33.5243458,5.5435816 33.5243458,5.01325151 L33.5243458,2.5439144 L32.7637174,2.5439144 L32.7637174,1.90586421 L33.5243458,1.90586421 L33.5243458,0.116009126 L34.2271004,0.165727323 L34.2271004,1.90586421 L36.2361517,1.90586421 L36.2361517,2.5439144 L34.2271004,2.5439144 L34.2271004,5.01325151 C34.2271004,5.34470782 34.3166663,5.6015826 34.4958007,5.78388357 C34.6749351,5.96618453 34.894027,6.05733365 35.1530829,6.05733365 C35.3570205,6.05733365 35.5471758,5.99932966 35.7235543,5.88331996 C35.8999328,5.76731025 36.0377264,5.5960604 36.1369393,5.36956526 Z M41.8829914,3.65428747 L41.8829914,4.40834679 L38.7247297,6.38050193 L38.4270924,5.73416537 L41.1967722,4.03546031 L38.4270924,2.34504162 L38.6999266,1.68213233 L41.8829914,3.65428747 Z" id="&lt;script&gt;" fill="#CC4D83"></path>
                                </g>
                            </g>
                        </g>
                    </g>
                </g>
            </g>
        </g>
    </g>
</svg>