<?xml version="1.0" encoding="UTF-8"?>
<svg width="960px" height="960px" viewBox="0 0 960 960" version="1.1" xmlns="http://www.w3.org/2000/svg" xmlns:xlink="http://www.w3.org/1999/xlink">
    <!-- Generator: Sketch 52.4 (67378) - http://www.bohemiancoding.com/sketch -->
    <title>dima_logo</title>
    <desc>Created with Sketch.</desc>
    <g id="Page-1" stroke="none" stroke-width="1" fill="none" fill-rule="evenodd">
        <g id="dima_logo">
            <rect id="Rectangle" fill="#FFFFFF" x="0" y="0" width="960" height="960"></rect>
            <rect id="Rectangle" fill="#FFFFFF" x="0" y="0" width="960" height="960"></rect>
            <path d="M247.110801,659 L115,659 L115,272 L248.259343,272 C306.464709,272 354.139371,289.990997 391.282219,325.973359 C428.426176,361.573013 447,405.976812 447,459.183278 C447,521.195364 428.618153,570.00271 391.858152,605.601626 C355.479521,641.200542 307.230404,659 247.110801,659 Z M245.387433,344.921312 L205.754415,344.921312 L205.754415,586.654411 L245.961889,586.654411 C281.574087,586.654411 308.953771,575.553277 328.100205,553.351009 C347.629487,531.148741 357.394128,499.760727 357.394128,459.183278 C357.394128,424.732119 347.629487,397.171191 328.100205,376.500496 C308.570924,355.448199 281,344.921312 245.387433,344.921312 Z" id="Shape" fill="#000000" fill-rule="nonzero"></path>
            <path d="M438,704 L115,704" id="Path" stroke="#FF1654" stroke-width="35"></path>
            <path d="M645.110356,659 L513,659 L513,272 L646.258532,272 C704.464766,272 752.138056,289.990997 789.282095,325.973359 C826.426135,361.573013 845,405.976812 845,459.183278 C845,521.195364 826.618112,570.00271 789.858029,605.601626 C753.47821,641.200542 705.228986,659 645.110356,659 Z M643.386247,344.921312 L603.753878,344.921312 L603.753878,586.654411 L643.96218,586.654411 C679.574088,586.654411 706.953095,575.553277 726.099203,553.351009 C745.629266,531.148741 755.394298,499.760727 755.394298,459.183278 C755.394298,424.732119 745.629266,397.171191 726.099203,376.500496 C706.569139,355.448199 678.998154,344.921312 643.386247,344.921312 Z" id="Shape" fill="#000000" fill-rule="nonzero"></path>
            <path d="M836,704 L513,704" id="Path" stroke="#FF1654" stroke-width="35"></path>
        </g>
    </g>
</svg>