<svg xmlns="http://www.w3.org/2000/svg" width="25" height="25"><path d="M 1.38 25 C 0.618 25 0 24.382 0 23.62 L 0 1.38 C 0 0.618 0.618 0 1.38 0 L 23.62 0 C 24.382 0 25 0.618 25 1.38 L 25 23.62 C 25 24.382 24.382 25 23.62 25 L 17.25 25 L 17.25 15.319 L 20.499 15.319 L 20.986 11.546 L 17.25 11.546 L 17.25 9.137 C 17.25 8.044 17.553 7.3 19.119 7.3 L 21.117 7.299 L 21.117 3.925 C 20.772 3.879 19.586 3.776 18.206 3.776 C 15.325 3.776 13.353 5.534 13.353 8.763 L 13.353 11.546 L 10.095 11.546 L 10.095 15.319 L 13.353 15.319 L 13.353 25 Z" fill="rgba(102, 106, 115, 1.00)"></path></svg>