<svg xmlns="http://www.w3.org/2000/svg" width="20" height="20"><path d="M 10 0 C 12.716 0 13.059 0.012 14.123 0.06 C 15.187 0.109 15.893 0.269 16.55 0.525 C 17.208 0.781 17.766 1.122 18.322 1.678 C 18.878 2.234 19.228 2.814 19.475 3.45 C 19.722 4.086 19.891 4.81 19.94 5.877 C 19.988 6.944 20 7.284 20 10 C 20 12.716 19.988 13.059 19.94 14.123 C 19.891 15.187 19.731 15.893 19.475 16.55 C 19.219 17.208 18.878 17.766 18.322 18.322 C 17.766 18.878 17.186 19.228 16.55 19.475 C 15.914 19.722 15.19 19.891 14.123 19.94 C 13.056 19.988 12.716 20 10 20 C 7.284 20 6.941 19.988 5.877 19.94 C 4.813 19.891 4.107 19.731 3.45 19.475 C 2.792 19.219 2.234 18.878 1.678 18.322 C 1.122 17.766 0.772 17.186 0.525 16.55 C 0.278 15.914 0.109 15.19 0.06 14.123 C 0.012 13.056 0 12.716 0 10 C 0 7.284 0.012 6.941 0.06 5.877 C 0.109 4.813 0.269 4.107 0.525 3.45 C 0.781 2.792 1.122 2.234 1.678 1.678 C 2.234 1.122 2.814 0.772 3.45 0.525 C 4.086 0.278 4.81 0.109 5.877 0.06 C 6.944 0.012 7.284 0 10 0 Z M 10 1.802 C 7.33 1.802 6.934 1.816 5.959 1.86 C 4.984 1.905 4.569 2.023 4.102 2.204 C 3.636 2.386 3.302 2.603 2.952 2.952 C 2.603 3.302 2.341 3.75 2.204 4.102 C 2.067 4.455 1.908 4.905 1.86 5.959 C 1.812 7.014 1.802 7.33 1.802 10 C 1.802 12.67 1.816 13.066 1.86 14.041 C 1.905 15.016 2.023 15.431 2.204 15.898 C 2.386 16.364 2.603 16.698 2.952 17.048 C 3.302 17.397 3.75 17.659 4.102 17.796 C 4.455 17.933 4.905 18.092 5.959 18.14 C 7.013 18.188 7.33 18.198 10 18.198 C 12.67 18.198 13.066 18.184 14.041 18.14 C 15.016 18.095 15.431 17.977 15.898 17.796 C 16.364 17.614 16.698 17.397 17.048 17.048 C 17.397 16.698 17.659 16.25 17.796 15.898 C 17.933 15.545 18.092 15.095 18.14 14.041 C 18.188 12.986 18.198 12.67 18.198 10 C 18.198 7.33 18.184 6.934 18.14 5.959 C 18.095 4.984 17.977 4.569 17.796 4.102 C 17.614 3.636 17.397 3.302 17.048 2.952 C 16.698 2.603 16.25 2.341 15.898 2.204 C 15.545 2.067 15.095 1.908 14.041 1.86 C 12.986 1.812 12.67 1.802 10 1.802 Z M 10 4.865 C 12.836 4.865 15.135 7.164 15.135 10 C 15.135 12.836 12.836 15.135 10 15.135 C 7.164 15.135 4.865 12.836 4.865 10 C 4.865 7.164 7.164 4.865 10 4.865 Z M 10 13.333 C 11.841 13.333 13.333 11.841 13.333 10 C 13.333 8.159 11.841 6.667 10 6.667 C 8.159 6.667 6.667 8.159 6.667 10 C 6.667 11.841 8.159 13.333 10 13.333 Z M 16.538 4.662 C 16.538 5.325 16.001 5.862 15.338 5.862 C 14.675 5.862 14.138 5.325 14.138 4.662 C 14.138 3.999 14.675 3.462 15.338 3.462 C 16.001 3.462 16.538 3.999 16.538 4.662 Z" fill="rgba(102, 106, 115, 1.00)"></path></svg>