<svg xmlns="http://www.w3.org/2000/svg" width="25" height="22.727"><path d="M 19.475 22.727 L 19.475 14.738 C 19.475 12.646 18.61 11.219 16.71 11.219 C 15.256 11.219 14.448 12.182 14.071 13.111 C 13.93 13.444 13.952 13.908 13.952 14.372 L 13.952 22.727 L 8.478 22.727 C 8.478 22.727 8.549 8.575 8.478 7.288 L 13.952 7.288 L 13.952 9.711 C 14.276 8.652 16.025 7.14 18.816 7.14 C 22.279 7.14 25 9.36 25 14.143 L 25 22.727 Z M 2.907 5.357 C 1.144 5.357 0 4.206 0 2.681 C 0 1.156 1.179 0 2.977 0 C 4.774 0 5.88 1.153 5.915 2.676 C 5.915 4.172 4.774 5.357 2.943 5.357 Z M 5.503 7.288 L 5.503 22.727 L 0.631 22.727 L 0.631 7.288 Z" fill="rgba(102, 106, 115, 1.00)"></path></svg>