<?xml version="1.0" encoding="UTF-8"?>
<svg width="62px" height="75px" viewBox="0 0 62 75" version="1.1" xmlns="http://www.w3.org/2000/svg" xmlns:xlink="http://www.w3.org/1999/xlink">
    <!-- Generator: Sketch 51.3 (57544) - http://www.bohemiancoding.com/sketch -->
    <title>Pause</title>
    <desc>Created with Sketch.</desc>
    <defs>
        <linearGradient x1="0%" y1="50%" x2="100%" y2="50%" id="linearGradient-1">
            <stop stop-color="#FFB476" offset="0%"></stop>
            <stop stop-color="#FF6797" offset="100%"></stop>
        </linearGradient>
        <path d="M28.5255973,115 C32.6818699,115 36.0511945,117.565035 36.0511945,120.729167 L36.0511945,164.270833 C36.0511945,167.434965 32.6818699,170 28.5255973,170 C24.3693247,170 21,167.434965 21,164.270833 L21,120.729167 C21,117.565035 24.3693247,115 28.5255973,115 Z M55.4744027,115 C59.6306753,115 63,117.565035 63,120.729167 L63,164.270833 C63,167.434965 59.6306753,170 55.4744027,170 C51.3181301,170 47.9488055,167.434965 47.9488055,164.270833 L47.9488055,120.729167 C47.9488055,117.565035 51.3181301,115 55.4744027,115 Z" id="path-2"></path>
        <filter x="-35.7%" y="-27.3%" width="171.4%" height="154.5%" filterUnits="objectBoundingBox" id="filter-3">
            <feOffset dx="0" dy="0" in="SourceAlpha" result="shadowOffsetOuter1"></feOffset>
            <feGaussianBlur stdDeviation="5" in="shadowOffsetOuter1" result="shadowBlurOuter1"></feGaussianBlur>
            <feComposite in="shadowBlurOuter1" in2="SourceAlpha" operator="out" result="shadowBlurOuter1"></feComposite>
            <feColorMatrix values="0 0 0 0 1   0 0 0 0 0.411764706   0 0 0 0 0.588235294  0 0 0 1 0" type="matrix" in="shadowBlurOuter1"></feColorMatrix>
        </filter>
    </defs>
    <g id="Page-1" stroke="none" stroke-width="1" fill="none" fill-rule="evenodd">
        <g id="Desktop-HD" transform="translate(-1128.000000, -4770.000000)">
            <g id="Group-61" transform="translate(0.000000, 4473.000000)">
                <g id="Group-45" transform="translate(999.000000, 64.000000)">
                    <g id="t_cont_grey_O_outline">
                        <g id="Group-59" transform="translate(118.000000, 128.000000)">
                            <g id="Pause">
                                <use fill="black" fill-opacity="1" filter="url(#filter-3)" xlink:href="#path-2"></use>
                                <path stroke="url(#linearGradient-1)" stroke-width="2" d="M28.5255973,116 C24.871359,116 22,118.185939 22,120.729167 L22,164.270833 C22,166.814061 24.871359,169 28.5255973,169 C32.1798356,169 35.0511945,166.814061 35.0511945,164.270833 L35.0511945,120.729167 C35.0511945,118.185939 32.1798356,116 28.5255973,116 Z M55.4744027,116 C51.8201644,116 48.9488055,118.185939 48.9488055,120.729167 L48.9488055,164.270833 C48.9488055,166.814061 51.8201644,169 55.4744027,169 C59.128641,169 62,166.814061 62,164.270833 L62,120.729167 C62,118.185939 59.128641,116 55.4744027,116 Z" stroke-linejoin="square" fill="#102B3F" fill-rule="evenodd"></path>
                            </g>
                        </g>
                    </g>
                </g>
            </g>
        </g>
    </g>
</svg>