<?xml version="1.0" encoding="UTF-8"?>
<svg width="42px" height="55px" viewBox="0 0 42 55" version="1.1" xmlns="http://www.w3.org/2000/svg" xmlns:xlink="http://www.w3.org/1999/xlink">
    <!-- Generator: Sketch 52.6 (67491) - http://www.bohemiancoding.com/sketch -->
    <title>pause</title>
    <desc>Created with Sketch.</desc>
    <defs>
        <linearGradient x1="0%" y1="50%" x2="100%" y2="50%" id="linearGradient-1">
            <stop stop-color="#AF25CD" offset="0%"></stop>
            <stop stop-color="#FF6797" offset="100%"></stop>
        </linearGradient>
    </defs>
    <g id="Page-1" stroke="none" stroke-width="1" fill="none" fill-rule="evenodd">
        <g id="pause" transform="translate(1.000000, 1.000000)" fill="#2C3031" fill-rule="nonzero" stroke="url(#linearGradient-1)" stroke-width="2">
            <path d="M6.5255973,0 C2.871359,0 0,2.185939 0,4.729167 L0,48.270833 C0,50.814061 2.871359,53 6.5255973,53 C10.1798356,53 13.0511945,50.814061 13.0511945,48.270833 L13.0511945,4.729167 C13.0511945,2.185939 10.1798356,0 6.5255973,0 Z M33.4744027,0 C29.8201644,0 26.9488055,2.185939 26.9488055,4.729167 L26.9488055,48.270833 C26.9488055,50.814061 29.8201644,53 33.4744027,53 C37.128641,53 40,50.814061 40,48.270833 L40,4.729167 C40,2.185939 37.128641,0 33.4744027,0 Z" id="Pause"></path>
        </g>
    </g>
</svg>