<?xml version="1.0" encoding="UTF-8"?>
<svg width="54px" height="67px" viewBox="0 0 54 67" version="1.1" xmlns="http://www.w3.org/2000/svg" xmlns:xlink="http://www.w3.org/1999/xlink">
    <!-- Generator: Sketch 52.6 (67491) - http://www.bohemiancoding.com/sketch -->
    <title>pause-selected</title>
    <desc>Created with Sketch.</desc>
    <defs>
        <filter x="-28.6%" y="-21.8%" width="157.1%" height="143.6%" filterUnits="objectBoundingBox" id="filter-1">
            <feOffset dx="0" dy="0" in="SourceAlpha" result="shadowOffsetOuter1"></feOffset>
            <feGaussianBlur stdDeviation="3" in="shadowOffsetOuter1" result="shadowBlurOuter1"></feGaussianBlur>
            <feColorMatrix values="0 0 0 0 0.926575506   0 0 0 0 0.482836174   0 0 0 0 1  0 0 0 1 0" type="matrix" in="shadowBlurOuter1" result="shadowMatrixOuter1"></feColorMatrix>
            <feMerge>
                <feMergeNode in="shadowMatrixOuter1"></feMergeNode>
                <feMergeNode in="SourceGraphic"></feMergeNode>
            </feMerge>
        </filter>
        <linearGradient x1="0%" y1="50%" x2="100%" y2="50%" id="linearGradient-2">
            <stop stop-color="#AF25CD" offset="0%"></stop>
            <stop stop-color="#FF6797" offset="100%"></stop>
        </linearGradient>
    </defs>
    <g id="Page-1" stroke="none" stroke-width="1" fill="none" fill-rule="evenodd">
        <g id="pause-selected" filter="url(#filter-1)" transform="translate(6.000000, 6.000000)" fill-rule="nonzero">
            <g id="path-2-link" fill="#000000">
                <path d="M7.5255973,0 C11.6818699,0 15.0511945,2.565035 15.0511945,5.729167 L15.0511945,49.270833 C15.0511945,52.434965 11.6818699,55 7.5255973,55 C3.3693247,55 0,52.434965 0,49.270833 L0,5.729167 C0,2.565035 3.3693247,0 7.5255973,0 Z M34.4744027,0 C38.6306753,0 42,2.565035 42,5.729167 L42,49.270833 C42,52.434965 38.6306753,55 34.4744027,55 C30.3181301,55 26.9488055,52.434965 26.9488055,49.270833 L26.9488055,5.729167 C26.9488055,2.565035 30.3181301,0 34.4744027,0 Z" id="path-2"></path>
            </g>
            <path d="M7.5255973,1 C3.871359,1 1,3.185939 1,5.729167 L1,49.270833 C1,51.814061 3.871359,54 7.5255973,54 C11.1798356,54 14.0511945,51.814061 14.0511945,49.270833 L14.0511945,5.729167 C14.0511945,3.185939 11.1798356,1 7.5255973,1 Z M34.4744027,1 C30.8201644,1 27.9488055,3.185939 27.9488055,5.729167 L27.9488055,49.270833 C27.9488055,51.814061 30.8201644,54 34.4744027,54 C38.128641,54 41,51.814061 41,49.270833 L41,5.729167 C41,3.185939 38.128641,1 34.4744027,1 Z" id="Shape" stroke="url(#linearGradient-2)" stroke-width="2" fill="#2C3031"></path>
        </g>
    </g>
</svg>