<?xml version="1.0" encoding="UTF-8"?>
<svg width="89px" height="80px" viewBox="0 0 89 80" version="1.1" xmlns="http://www.w3.org/2000/svg" xmlns:xlink="http://www.w3.org/1999/xlink">
    <!-- Generator: Sketch 51.3 (57544) - http://www.bohemiancoding.com/sketch -->
    <title>Play</title>
    <desc>Created with Sketch.</desc>
    <defs>
        <linearGradient x1="0%" y1="50%" x2="100%" y2="50%" id="linearGradient-1">
            <stop stop-color="#FFB476" offset="0%"></stop>
            <stop stop-color="#FF6797" offset="100%"></stop>
        </linearGradient>
        <path d="M75.5537298,33.239438 L16.4113315,59.4886474 C14.0601177,60.5321882 11.0424358,59.9276626 9.67115035,58.1384017 C9.23160412,57.5648794 9,56.9128415 9,56.2489041 L9,3.75048514 C9,1.67914939 11.2065196,0 13.9283995,0 C14.8008598,0 15.6576831,0.176249472 16.4113315,0.51074175 L75.5537298,26.7599512 C77.9049436,27.803492 78.6993325,30.0999314 77.328047,31.8891923 C76.8995995,32.448233 76.2883484,32.9133917 75.5537298,33.239438 Z" id="path-2"></path>
        <filter x="-21.7%" y="-25.0%" width="143.5%" height="150.0%" filterUnits="objectBoundingBox" id="filter-3">
            <feOffset dx="0" dy="0" in="SourceAlpha" result="shadowOffsetOuter1"></feOffset>
            <feGaussianBlur stdDeviation="5" in="shadowOffsetOuter1" result="shadowBlurOuter1"></feGaussianBlur>
            <feComposite in="shadowBlurOuter1" in2="SourceAlpha" operator="out" result="shadowBlurOuter1"></feComposite>
            <feColorMatrix values="0 0 0 0 1   0 0 0 0 0.411764706   0 0 0 0 0.588235294  0 0 0 1 0" type="matrix" in="shadowBlurOuter1"></feColorMatrix>
        </filter>
    </defs>
    <g id="Page-1" stroke="none" stroke-width="1" fill="none" fill-rule="evenodd">
        <g id="Desktop-HD" transform="translate(-1116.000000, -4655.000000)">
            <g id="Group-61" transform="translate(0.000000, 4473.000000)">
                <g id="Group-45" transform="translate(999.000000, 64.000000)">
                    <g id="t_cont_grey_O_outline">
                        <g id="Group-59" transform="translate(118.000000, 128.000000)">
                            <g id="Play">
                                <use fill="black" fill-opacity="1" filter="url(#filter-3)" xlink:href="#path-2"></use>
                                <path stroke="url(#linearGradient-1)" stroke-width="2" d="M75.1480599,32.3254184 C75.7347062,32.0650467 76.2113643,31.7023125 76.5343376,31.2808952 C77.4852964,30.040079 76.9422748,28.4702984 75.1480599,27.6739708 L16.0056616,1.42476139 C15.381658,1.14780945 14.6630936,1 13.9283995,1 C11.7084999,1 10,2.30015911 10,3.75048514 L10,56.2489041 C10,56.6876608 10.1561677,57.1273215 10.4648598,57.5301047 C11.5411191,58.9344137 14.0586905,59.4387533 16.0056616,58.5746278 L75.1480599,32.3254184 Z" stroke-linejoin="square" fill="#102B3F" fill-rule="evenodd"></path>
                            </g>
                        </g>
                    </g>
                </g>
            </g>
        </g>
    </g>
</svg>