<svg xmlns="http://www.w3.org/2000/svg" width="25" height="20.833"><path d="M 16.219 13.711 C 15.284 13.711 14.499 12.96 14.499 12.035 C 14.499 11.109 15.284 10.333 16.219 10.333 C 17.153 10.333 17.911 11.109 17.911 12.035 C 17.911 12.96 17.153 13.711 16.219 13.711 Z M 16.616 16.966 C 15.745 17.827 14.403 18.246 12.512 18.246 C 12.509 18.246 12.503 18.245 12.499 18.245 C 12.495 18.245 12.491 18.246 12.486 18.246 C 10.595 18.246 9.254 17.827 8.384 16.966 C 8.117 16.701 8.118 16.273 8.384 16.009 C 8.651 15.745 9.083 15.745 9.35 16.009 C 9.95 16.603 10.976 16.893 12.486 16.893 C 12.491 16.893 12.495 16.894 12.499 16.894 C 12.504 16.894 12.509 16.893 12.512 16.893 C 14.023 16.893 15.049 16.603 15.65 16.009 C 15.917 15.744 16.349 15.744 16.616 16.009 C 16.882 16.274 16.882 16.702 16.616 16.966 Z M 7.089 12.035 C 7.089 11.11 7.872 10.333 8.806 10.333 C 9.741 10.333 10.498 11.109 10.498 12.035 C 10.498 12.96 9.74 13.711 8.806 13.711 C 7.873 13.711 7.089 12.96 7.089 12.035 Z M 20.831 1.353 C 21.464 1.353 21.979 1.863 21.979 2.49 C 21.979 3.117 21.464 3.627 20.831 3.627 C 20.198 3.627 19.684 3.116 19.684 2.49 C 19.684 1.863 20.198 1.353 20.831 1.353 Z M 25 10.193 C 25 8.551 23.652 7.216 21.995 7.216 C 21.278 7.216 20.62 7.466 20.102 7.884 C 18.27 6.743 15.945 6.055 13.453 5.91 L 14.753 1.837 L 18.326 2.671 C 18.42 3.96 19.446 4.98 20.831 4.98 C 22.216 4.98 23.344 3.862 23.344 2.49 C 23.344 1.117 22.216 0 20.831 0 C 19.863 0 19.02 0.547 18.601 1.345 L 14.449 0.376 C 14.102 0.295 13.75 0.493 13.642 0.831 L 12.028 5.886 C 9.343 5.951 6.819 6.64 4.852 7.848 C 4.342 7.453 3.701 7.216 3.005 7.216 C 1.348 7.216 0 8.551 0 10.193 C 0 11.208 0.516 12.105 1.301 12.642 C 1.268 12.878 1.251 13.116 1.251 13.357 C 1.251 15.409 2.545 17.376 4.641 18.732 C 6.736 20.087 9.509 20.833 12.449 20.833 C 15.389 20.833 18.072 20.145 20.258 18.732 C 22.444 17.318 23.648 15.409 23.648 13.357 C 23.648 13.138 23.633 12.92 23.605 12.704 C 24.443 12.175 25 11.247 25 10.193 Z" fill="rgba(102, 106, 115, 1.00)"></path></svg>