<svg xmlns="http://www.w3.org/2000/svg" width="25" height="20.833"><path d="M 25 2.466 C 24.081 2.885 23.092 3.168 22.055 3.294 C 23.114 2.644 23.927 1.613 24.31 0.385 C 23.318 0.987 22.222 1.425 21.051 1.66 C 20.118 0.638 18.784 0 17.308 0 C 14.477 0 12.181 2.355 12.181 5.259 C 12.181 5.671 12.225 6.072 12.313 6.457 C 8.05 6.237 4.272 4.146 1.74 0.96 C 1.299 1.739 1.046 2.644 1.046 3.607 C 1.046 5.431 1.952 7.041 3.328 7.984 C 2.489 7.959 1.696 7.719 1.004 7.328 L 1.004 7.393 C 1.004 9.942 2.772 12.068 5.12 12.55 C 4.69 12.673 4.098 12.735 3.768 12.735 C 3.438 12.735 3.115 12.703 2.803 12.641 C 3.456 14.73 5.349 16.251 7.594 16.292 C 5.839 17.703 3.626 18.545 1.224 18.545 C 0.81 18.545 0.401 18.521 0 18.472 C 2.27 19.962 4.967 20.833 7.862 20.833 C 17.298 20.833 22.456 12.821 22.456 5.87 C 22.456 5.641 22.451 5.413 22.442 5.188 C 23.445 4.447 24.315 3.521 25 2.466 L 17.308 9.124" fill="rgba(102, 106, 115, 1.00)"></path></svg>