<?xml version="1.0" encoding="UTF-8"?>
<svg width="15px" height="16px" viewBox="0 0 15 16" version="1.1" xmlns="http://www.w3.org/2000/svg" xmlns:xlink="http://www.w3.org/1999/xlink">
    <!-- Generator: Sketch 51.3 (57544) - http://www.bohemiancoding.com/sketch -->
    <title>Combined Shape</title>
    <desc>Created with Sketch.</desc>
    <defs></defs>
    <g id="Page-1" stroke="none" stroke-width="1" fill="none" fill-rule="evenodd">
        <path d="M8.20710678,8 L14.5710678,14.363961 C14.76633,14.5592232 14.76633,14.8758057 14.5710678,15.0710678 C14.3758057,15.26633 14.0592232,15.26633 13.863961,15.0710678 L7.5,8.70710678 L1.13603897,15.0710678 C0.940776823,15.26633 0.624194334,15.26633 0.428932188,15.0710678 C0.233670042,14.8758057 0.233670042,14.5592232 0.428932188,14.363961 L6.79289322,8 L0.428932188,1.63603897 C0.233670042,1.44077682 0.233670042,1.12419433 0.428932188,0.928932188 C0.624194334,0.733670042 0.940776823,0.733670042 1.13603897,0.928932188 L7.5,7.29289322 L13.863961,0.928932188 C14.0592232,0.733670042 14.3758057,0.733670042 14.5710678,0.928932188 C14.76633,1.12419433 14.76633,1.44077682 14.5710678,1.63603897 L8.20710678,8 Z" id="Combined-Shape" fill="#FFFFFF" fill-rule="nonzero"></path>
    </g>
</svg>