<svg xmlns="http://www.w3.org/2000/svg" viewBox="0 0 1502 654"><defs><style>.cls-1{fill:#fff;}.cls-2{fill:#5acc6d;}.cls-3{fill:#373d3c;}.cls-4{fill:#adeaa4;}.cls-5{fill:none;stroke:#373d3c;stroke-miterlimit:10;stroke-width:4.29px;}</style></defs><title>Asset 3</title><g id="Layer_2" data-name="Layer 2"><g id="Layer_1-2" data-name="Layer 1"><rect class="cls-1" width="1502" height="654"/><path class="cls-2" d="M695.06,215.93v150H676.94a15.67,15.67,0,0,1-6.74-1.29,16.42,16.42,0,0,1-5.41-4.47L594.06,270.7q.42,4,.57,7.78c.1,2.5.16,4.85.16,7v80.4H564.11v-150h18.32a29,29,0,0,1,3.81.21,10,10,0,0,1,2.78.77,9.43,9.43,0,0,1,2.37,1.6,26.55,26.55,0,0,1,2.57,2.78l71.35,90.08q-.52-4.32-.73-8.39t-.2-7.67V215.93Z"/><path class="cls-2" d="M769.38,242.7v35h47.15v25.74H769.38v35.72H831v26.77H734.38v-150H831V242.7Z"/><path class="cls-2" d="M991.34,365.93h-34.8a8.66,8.66,0,0,1-5.5-1.65,12.39,12.39,0,0,1-3.35-3.91l-30.06-52.5a21.29,21.29,0,0,1-1.85,3.91l-28,48.59a22.47,22.47,0,0,1-3.39,3.81,7.29,7.29,0,0,1-5,1.75H846.8l48.28-77.21-46.43-72.79h34.8a10.82,10.82,0,0,1,5,.88,7.78,7.78,0,0,1,2.84,2.93l29.85,50.55a22.22,22.22,0,0,1,1.18-2.57c.45-.83,1-1.68,1.5-2.58L950,220.26a10.68,10.68,0,0,1,3-3.3,7.25,7.25,0,0,1,4-1h33.35l-47,71.35Z"/><path class="cls-2" d="M1077.61,338.44a32.11,32.11,0,0,0,12.51-2.31,25.39,25.39,0,0,0,9.31-6.64,29.41,29.41,0,0,0,5.82-10.56,46,46,0,0,0,2-14.15V215.93h34.8v88.85a69.43,69.43,0,0,1-4.48,25.32A56.85,56.85,0,0,1,1124.76,350a57.72,57.72,0,0,1-20.28,13,80.41,80.41,0,0,1-53.84,0,57.63,57.63,0,0,1-20.28-13,56.18,56.18,0,0,1-12.77-19.87,70.06,70.06,0,0,1-4.43-25.32V215.93H1048v88.75a46,46,0,0,0,2,14.15,29.83,29.83,0,0,0,5.81,10.6,25.12,25.12,0,0,0,9.32,6.7A32.07,32.07,0,0,0,1077.61,338.44Z"/><path class="cls-2" d="M1262.4,246.41a13.12,13.12,0,0,1-3.24,3.7,7.23,7.23,0,0,1-4.38,1.24,10.7,10.7,0,0,1-5.09-1.49c-1.82-1-3.88-2.11-6.18-3.35a51.42,51.42,0,0,0-7.88-3.35,31.64,31.64,0,0,0-10.09-1.49q-9.78,0-14.56,4.17a14.19,14.19,0,0,0-4.79,11.27,10.4,10.4,0,0,0,2.88,7.52,24.75,24.75,0,0,0,7.57,5.15,80.8,80.8,0,0,0,10.71,4q6,1.8,12.3,4A111,111,0,0,1,1252,283a41.21,41.21,0,0,1,10.71,7.62,35.64,35.64,0,0,1,7.56,11.27,40.14,40.14,0,0,1,2.89,16,52.19,52.19,0,0,1-3.61,19.46,45.38,45.38,0,0,1-10.45,15.8,48.5,48.5,0,0,1-16.88,10.61,63.22,63.22,0,0,1-22.8,3.86,73.16,73.16,0,0,1-14.26-1.44,84.56,84.56,0,0,1-14-4.07,81.68,81.68,0,0,1-12.77-6.23,54.2,54.2,0,0,1-10.4-8l10.3-16.27a10.32,10.32,0,0,1,3.24-2.93,8.47,8.47,0,0,1,4.38-1.18,11.71,11.71,0,0,1,6.22,1.95q3.15,2,7.11,4.33a57.29,57.29,0,0,0,9.11,4.32,34,34,0,0,0,12.15,2q9.46,0,14.72-4.17t5.25-13.23a12.53,12.53,0,0,0-2.88-8.55,22.45,22.45,0,0,0-7.57-5.45,70,70,0,0,0-10.66-3.81q-6-1.65-12.25-3.66a88.36,88.36,0,0,1-12.25-4.94,38.51,38.51,0,0,1-10.65-7.72,36,36,0,0,1-7.57-11.94q-2.88-7.15-2.88-17.66a41.85,41.85,0,0,1,3.4-16.47,42.53,42.53,0,0,1,10-14.31,49.29,49.29,0,0,1,16.16-10,59.86,59.86,0,0,1,21.93-3.75,82.37,82.37,0,0,1,13.44,1.08,70.38,70.38,0,0,1,12.4,3.19,69.16,69.16,0,0,1,11,5,51.15,51.15,0,0,1,9.11,6.64Z"/><path class="cls-3" d="M596.43,397.69H585V431h-9.47V397.69H564v-7.51h32.43Z"/><path class="cls-3" d="M618.41,397.46V407h12.82v7H618.41v9.72h16.74V431H608.89v-40.8h26.26v7.28Z"/><path class="cls-3" d="M675.3,420.42a1.74,1.74,0,0,1,.67.13,1.84,1.84,0,0,1,.65.43l3.75,3.95a15.53,15.53,0,0,1-6.17,4.86,21.66,21.66,0,0,1-8.78,1.64,20.8,20.8,0,0,1-8.33-1.59,18,18,0,0,1-6.25-4.36,19.45,19.45,0,0,1-3.93-6.61,24.54,24.54,0,0,1-1.37-8.3,23,23,0,0,1,1.48-8.39,19.4,19.4,0,0,1,4.17-6.59,18.92,18.92,0,0,1,6.44-4.32,21.73,21.73,0,0,1,8.26-1.54,22.1,22.1,0,0,1,4.33.41,20.66,20.66,0,0,1,3.79,1.12,17.59,17.59,0,0,1,3.25,1.72,16.35,16.35,0,0,1,2.63,2.19l-3.19,4.28a3.79,3.79,0,0,1-.73.71,1.85,1.85,0,0,1-1.17.33,2.05,2.05,0,0,1-.95-.23q-.45-.22-1-.54l-1.1-.7a7.62,7.62,0,0,0-1.43-.7,11.22,11.22,0,0,0-1.93-.55,13.17,13.17,0,0,0-2.59-.22,10.42,10.42,0,0,0-4.3.86,9.36,9.36,0,0,0-3.36,2.54A11.7,11.7,0,0,0,656,405a18.09,18.09,0,0,0-.77,5.54,16.8,16.8,0,0,0,.85,5.57,12.26,12.26,0,0,0,2.32,4.1,9.81,9.81,0,0,0,3.43,2.53,10.26,10.26,0,0,0,4.2.87,21.24,21.24,0,0,0,2.36-.12,11.53,11.53,0,0,0,2-.42,8.07,8.07,0,0,0,1.74-.79,10.77,10.77,0,0,0,1.65-1.24,3.78,3.78,0,0,1,.73-.47A1.91,1.91,0,0,1,675.3,420.42Z"/><path class="cls-3" d="M727.8,390.18V431h-9.52V413.73H701.71V431h-9.52v-40.8h9.52v17.05h16.57V390.18Z"/><path class="cls-3" d="M779,390.18V431h-4.93a4.38,4.38,0,0,1-1.84-.35,4.67,4.67,0,0,1-1.47-1.22l-19.23-24.33c.07.73.12,1.43.15,2.11s0,1.32,0,1.92V431h-8.34v-40.8h5a7.57,7.57,0,0,1,1,.06,2.58,2.58,0,0,1,.76.21,2.76,2.76,0,0,1,.64.43,6.89,6.89,0,0,1,.7.76l19.4,24.5c-.09-.79-.15-1.55-.19-2.28s-.06-1.44-.06-2.09V390.18Z"/><path class="cls-3" d="M834.59,410.57a21.86,21.86,0,0,1-1.52,8.23,19.87,19.87,0,0,1-4.3,6.62,19.56,19.56,0,0,1-6.68,4.41,24.29,24.29,0,0,1-17.34,0,19.46,19.46,0,0,1-11-11,22.93,22.93,0,0,1,0-16.47,19.46,19.46,0,0,1,4.31-6.6,19.81,19.81,0,0,1,6.71-4.4,22.86,22.86,0,0,1,8.68-1.6,22.56,22.56,0,0,1,8.66,1.61,20.16,20.16,0,0,1,6.68,4.41,19.73,19.73,0,0,1,4.3,6.61A21.8,21.8,0,0,1,834.59,410.57Zm-9.68,0a17.7,17.7,0,0,0-.79-5.45,11.43,11.43,0,0,0-2.25-4.1,9.76,9.76,0,0,0-3.6-2.58,12.32,12.32,0,0,0-4.84-.89,12.54,12.54,0,0,0-4.89.89,9.71,9.71,0,0,0-3.61,2.58,11.6,11.6,0,0,0-2.26,4.1,19.5,19.5,0,0,0,0,10.92,11.69,11.69,0,0,0,2.26,4.1,9.55,9.55,0,0,0,3.61,2.56,12.73,12.73,0,0,0,4.89.89,12.5,12.5,0,0,0,4.84-.89,9.6,9.6,0,0,0,3.6-2.56,11.52,11.52,0,0,0,2.25-4.1A17.83,17.83,0,0,0,824.91,410.57Z"/><path class="cls-3" d="M872.42,423.42V431H847.84v-40.8h9.46v33.24Z"/><path class="cls-3" d="M923.94,410.57a22.06,22.06,0,0,1-1.52,8.23,20,20,0,0,1-4.3,6.62,19.66,19.66,0,0,1-6.68,4.41,24.32,24.32,0,0,1-17.35,0,19.48,19.48,0,0,1-11-11,22.93,22.93,0,0,1,0-16.47,19.32,19.32,0,0,1,4.31-6.6,19.77,19.77,0,0,1,6.7-4.4,22.93,22.93,0,0,1,8.68-1.6,22.58,22.58,0,0,1,8.67,1.61,20.26,20.26,0,0,1,6.68,4.41,19.88,19.88,0,0,1,4.3,6.61A22,22,0,0,1,923.94,410.57Zm-9.69,0a17.71,17.71,0,0,0-.78-5.45,11.3,11.3,0,0,0-2.26-4.1,9.64,9.64,0,0,0-3.59-2.58,13.74,13.74,0,0,0-9.73,0,9.63,9.63,0,0,0-3.61,2.58,11.3,11.3,0,0,0-2.26,4.1A19.5,19.5,0,0,0,892,416a11.38,11.38,0,0,0,2.26,4.1,9.48,9.48,0,0,0,3.61,2.56,13.74,13.74,0,0,0,9.73,0,9.48,9.48,0,0,0,3.59-2.56,11.38,11.38,0,0,0,2.26-4.1A17.84,17.84,0,0,0,914.25,410.57Z"/><path class="cls-3" d="M956.79,409.84h14.5v17.22a21.45,21.45,0,0,1-6.68,3.33,26.25,26.25,0,0,1-7.4,1,25.32,25.32,0,0,1-9.17-1.59,21.23,21.23,0,0,1-7.08-4.36,19.11,19.11,0,0,1-4.53-6.61,21.42,21.42,0,0,1-1.6-8.3,22.56,22.56,0,0,1,1.52-8.39,18.6,18.6,0,0,1,4.32-6.59,19.73,19.73,0,0,1,6.81-4.32,24.71,24.71,0,0,1,8.91-1.54,26,26,0,0,1,4.79.42,24.11,24.11,0,0,1,4.13,1.15,19,19,0,0,1,6.26,3.92l-2.74,4.17a2.64,2.64,0,0,1-1.67,1.21,2.93,2.93,0,0,1-2.2-.51c-.75-.44-1.45-.83-2.11-1.16a14.49,14.49,0,0,0-2-.8,13.47,13.47,0,0,0-2.19-.44,20,20,0,0,0-2.57-.14,11.83,11.83,0,0,0-4.79.93,10.33,10.33,0,0,0-3.63,2.65,12,12,0,0,0-2.31,4.1,16.63,16.63,0,0,0-.81,5.34,17.07,17.07,0,0,0,.9,5.76,11.89,11.89,0,0,0,2.53,4.26,10.85,10.85,0,0,0,3.92,2.65,13.69,13.69,0,0,0,5.06.91,13.35,13.35,0,0,0,3.09-.34,16.45,16.45,0,0,0,2.7-.9v-6.18h-4a2,2,0,0,1-1.4-.48,1.57,1.57,0,0,1-.5-1.2Z"/><path class="cls-3" d="M1003.66,415.47V431h-9.47V415.47l-14.78-25.29h8.34a3,3,0,0,1,2,.58,4.72,4.72,0,0,1,1.19,1.47l5.77,11.87c.48.93.92,1.8,1.31,2.62s.74,1.6,1,2.39c.28-.8.6-1.61,1-2.42s.79-1.68,1.28-2.59l5.71-11.87a4.58,4.58,0,0,1,.48-.73,3.13,3.13,0,0,1,.65-.66,3.66,3.66,0,0,1,.87-.48,3.14,3.14,0,0,1,1.08-.18h8.4Z"/><path class="cls-3" d="M1067.13,409.84h14.51v17.22a21.56,21.56,0,0,1-6.68,3.33,26.27,26.27,0,0,1-7.41,1,25.32,25.32,0,0,1-9.17-1.59,21.19,21.19,0,0,1-7.07-4.36,19.11,19.11,0,0,1-4.53-6.61,21.24,21.24,0,0,1-1.6-8.3,22.56,22.56,0,0,1,1.51-8.39,18.76,18.76,0,0,1,4.33-6.59,19.59,19.59,0,0,1,6.8-4.32,24.73,24.73,0,0,1,8.92-1.54,26,26,0,0,1,4.79.42,24.11,24.11,0,0,1,4.13,1.15,19,19,0,0,1,3.46,1.74,19.48,19.48,0,0,1,2.8,2.18l-2.75,4.17a2.62,2.62,0,0,1-1.66,1.21,2.92,2.92,0,0,1-2.2-.51c-.75-.44-1.45-.83-2.12-1.16a14,14,0,0,0-2-.8,13.35,13.35,0,0,0-2.18-.44,20.17,20.17,0,0,0-2.58-.14,11.78,11.78,0,0,0-4.78.93,10.33,10.33,0,0,0-3.63,2.65,12,12,0,0,0-2.31,4.1,16.63,16.63,0,0,0-.81,5.34,17.33,17.33,0,0,0,.89,5.76,12.05,12.05,0,0,0,2.54,4.26,10.85,10.85,0,0,0,3.92,2.65,13.63,13.63,0,0,0,5,.91,13.44,13.44,0,0,0,3.1-.34,16.45,16.45,0,0,0,2.7-.9v-6.18h-4a1.93,1.93,0,0,1-1.4-.48,1.58,1.58,0,0,1-.51-1.2Z"/><path class="cls-3" d="M1129,431h-8.57a3.63,3.63,0,0,1-3.41-1.79l-6.78-11.85a2.75,2.75,0,0,0-2.74-1.45h-2.41V431h-9.47v-40.8h13.28a27.49,27.49,0,0,1,7.54.91,14.17,14.17,0,0,1,5.1,2.54,9.67,9.67,0,0,1,2.87,3.83,13.51,13.51,0,0,1,.36,8.57,11.55,11.55,0,0,1-1.57,3.26,12,12,0,0,1-2.56,2.68,14.1,14.1,0,0,1-3.51,1.93,8.21,8.21,0,0,1,1.73,1.19,8,8,0,0,1,1.46,1.69Zm-20.1-21.62a9.7,9.7,0,0,0,3.29-.49,6,6,0,0,0,2.22-1.36,5,5,0,0,0,1.26-2,7.8,7.8,0,0,0,.39-2.5,5.24,5.24,0,0,0-1.75-4.2c-1.16-1-3-1.51-5.41-1.51h-3.81v12.09Z"/><path class="cls-3" d="M1179.47,410.57a21.87,21.87,0,0,1-1.53,8.23,19.87,19.87,0,0,1-4.3,6.62,19.52,19.52,0,0,1-6.67,4.41,24.32,24.32,0,0,1-17.35,0,19.46,19.46,0,0,1-11-11,23.07,23.07,0,0,1,0-16.47,19.61,19.61,0,0,1,4.31-6.6,19.91,19.91,0,0,1,6.71-4.4,22.89,22.89,0,0,1,8.68-1.6,22.65,22.65,0,0,1,8.67,1.61,20.12,20.12,0,0,1,6.67,4.41,19.73,19.73,0,0,1,4.3,6.61A21.8,21.8,0,0,1,1179.47,410.57Zm-9.69,0a17.71,17.71,0,0,0-.78-5.45,11.6,11.6,0,0,0-2.26-4.1,9.76,9.76,0,0,0-3.6-2.58,12.32,12.32,0,0,0-4.84-.89,12.54,12.54,0,0,0-4.89.89,9.79,9.79,0,0,0-3.61,2.58,11.43,11.43,0,0,0-2.25,4.1,19.26,19.26,0,0,0,0,10.92,11.52,11.52,0,0,0,2.25,4.1,9.63,9.63,0,0,0,3.61,2.56,12.73,12.73,0,0,0,4.89.89,12.5,12.5,0,0,0,4.84-.89,9.6,9.6,0,0,0,3.6-2.56A11.69,11.69,0,0,0,1169,416,17.84,17.84,0,0,0,1169.78,410.57Z"/><path class="cls-3" d="M1209.74,423.5a8.73,8.73,0,0,0,3.4-.63,6.88,6.88,0,0,0,2.53-1.8,8.06,8.06,0,0,0,1.58-2.87,12.39,12.39,0,0,0,.55-3.85V390.18h9.46v24.17a18.87,18.87,0,0,1-1.21,6.88,15.62,15.62,0,0,1-3.49,5.41,15.86,15.86,0,0,1-5.52,3.53,21.89,21.89,0,0,1-14.64,0,16,16,0,0,1-5.52-3.53,15.29,15.29,0,0,1-3.47-5.41,19.08,19.08,0,0,1-1.2-6.88V390.18h9.46v24.14a12.39,12.39,0,0,0,.55,3.85,8,8,0,0,0,1.58,2.88,6.9,6.9,0,0,0,2.53,1.82A8.75,8.75,0,0,0,1209.74,423.5Z"/><path class="cls-3" d="M1256.72,390.18a23.86,23.86,0,0,1,7.41,1,14.08,14.08,0,0,1,5.09,2.82,10.82,10.82,0,0,1,3,4.22,14.27,14.27,0,0,1,1,5.27,15.57,15.57,0,0,1-1,5.6,11.3,11.3,0,0,1-3,4.37,14.13,14.13,0,0,1-5.11,2.84,23.43,23.43,0,0,1-7.32,1h-4.93V431h-9.46v-40.8Zm0,20c2.46,0,4.24-.59,5.32-1.76a7,7,0,0,0,1.62-4.93,7.41,7.41,0,0,0-.42-2.55,5.19,5.19,0,0,0-1.27-2,5.77,5.77,0,0,0-2.16-1.28,9.47,9.47,0,0,0-3.09-.44h-4.93V410.2Z"/><circle class="cls-3" cx="369.75" cy="327.06" r="140.95"/><path class="cls-2" d="M428.2,322.17c0,55.26-55.21,100.07-57.51,100.07s-57.51-44.81-57.51-100.07S368.39,222.1,370.69,222.1C370.69,222.1,428.2,266.9,428.2,322.17Z"/><path class="cls-4" d="M370.69,222.1s57.51,44.8,57.51,100.07S373,422.24,370.69,422.24"/><path class="cls-2" d="M345,328.48c32.82,32.82,26.64,92.22,25.27,93.59S325.69,439,282,397.81c-33.81-31.82-31.9-93.24-30.54-94.6C251.44,303.21,312.21,295.66,345,328.48Z"/><path class="cls-4" d="M251.44,303.21s60.77-7.55,93.59,25.27,26.64,92.22,25.27,93.59"/><path class="cls-4" d="M395.85,328.48C363,361.3,369.21,420.7,370.58,422.07s48.53,16,88.82-25.12c32.47-33.17,31.41-92.38,30-93.74C489.44,303.21,428.68,295.66,395.85,328.48Z"/><path class="cls-2" d="M489.44,303.21s-60.76-7.55-93.59,25.27-26.64,92.22-25.27,93.59"/><circle class="cls-1" cx="369.8" cy="296.26" r="14.16"/><path class="cls-3" d="M369.8,312.56a16.3,16.3,0,1,1,16.3-16.3A16.32,16.32,0,0,1,369.8,312.56Zm0-28.32a12,12,0,1,0,12,12A12,12,0,0,0,369.8,284.24Z"/><circle class="cls-1" cx="369.8" cy="423.96" r="14.16"/><path class="cls-3" d="M369.8,440.26A16.3,16.3,0,1,1,386.1,424,16.32,16.32,0,0,1,369.8,440.26Zm0-28.31a12,12,0,1,0,12,12A12,12,0,0,0,369.8,412Z"/><circle class="cls-1" cx="429.8" cy="362.25" r="14.16"/><path class="cls-3" d="M429.8,378.55a16.3,16.3,0,1,1,16.3-16.3A16.32,16.32,0,0,1,429.8,378.55Zm0-28.31a12,12,0,1,0,12,12A12,12,0,0,0,429.8,350.24Z"/><circle class="cls-1" cx="308.94" cy="362.25" r="14.16"/><path class="cls-3" d="M309,378.55a16.3,16.3,0,1,1,16.29-16.3A16.32,16.32,0,0,1,309,378.55Zm0-28.31a12,12,0,1,0,12,12A12,12,0,0,0,309,350.24Z"/><line class="cls-1" x1="369.83" y1="310.81" x2="369.83" y2="409.38"/><rect class="cls-3" x="367.69" y="310.81" width="4.29" height="98.57"/><line class="cls-1" x1="320.26" y1="372.67" x2="360.4" y2="413.66"/><rect class="cls-3" x="338.19" y="364.48" width="4.29" height="57.38" transform="translate(-177.91 350.33) rotate(-44.39)"/><line class="cls-1" x1="420.4" y1="372.67" x2="380.26" y2="413.66"/><rect class="cls-3" x="371.64" y="391.02" width="57.38" height="4.29" transform="translate(-160.67 404.2) rotate(-45.61)"/><path class="cls-5" d="M370,378.38s14.43-65.85,74.57-76"/><path class="cls-5" d="M370,378.38s-14.43-65.85-74.57-76"/></g></g></svg>