<svg xmlns="http://www.w3.org/2000/svg" viewBox="0 0 450 450"><defs><style>.cls-1{fill:#fff;}.cls-2{fill:#373d3c;}.cls-3{fill:#5acc6d;}.cls-4{fill:#adeaa4;}.cls-5{fill:none;stroke:#373d3c;stroke-miterlimit:10;stroke-width:4.29px;}</style></defs><title>Asset 4</title><g id="Layer_2" data-name="Layer 2"><g id="Layer_1-2" data-name="Layer 1"><rect class="cls-1" width="450" height="450"/><circle class="cls-2" cx="225" cy="224.5" r="140.95"/><path class="cls-3" d="M283.45,219.61c0,55.27-55.21,100.07-57.51,100.07s-57.51-44.8-57.51-100.07,55.21-100.06,57.51-100.06C225.94,119.55,283.45,164.35,283.45,219.61Z"/><path class="cls-4" d="M225.94,119.55s57.51,44.8,57.51,100.06-55.21,100.07-57.51,100.07"/><path class="cls-3" d="M200.28,225.92c32.83,32.83,26.65,92.23,25.28,93.59s-44.62,16.88-88.33-24.26c-33.8-31.81-31.9-93.23-30.53-94.6C106.7,200.65,167.46,193.1,200.28,225.92Z"/><path class="cls-4" d="M106.7,200.65s60.76-7.55,93.58,25.27,26.65,92.23,25.28,93.59"/><path class="cls-4" d="M251.11,225.92c-32.82,32.83-26.64,92.23-25.28,93.59s48.54,16,88.82-25.12c32.48-33.16,31.41-92.37,30.05-93.74C344.7,200.65,283.93,193.1,251.11,225.92Z"/><path class="cls-3" d="M344.7,200.65s-60.77-7.55-93.59,25.27-26.64,92.23-25.28,93.59"/><circle class="cls-1" cx="225.05" cy="193.7" r="14.16"/><path class="cls-2" d="M225.05,210a16.3,16.3,0,1,1,16.3-16.3A16.32,16.32,0,0,1,225.05,210Zm0-28.31a12,12,0,1,0,12,12A12,12,0,0,0,225.05,181.69Z"/><circle class="cls-1" cx="225.05" cy="321.41" r="14.16"/><path class="cls-2" d="M225.05,337.71a16.3,16.3,0,1,1,16.3-16.3A16.32,16.32,0,0,1,225.05,337.71Zm0-28.32a12,12,0,1,0,12,12A12,12,0,0,0,225.05,309.39Z"/><circle class="cls-1" cx="285.05" cy="259.7" r="14.16"/><path class="cls-2" d="M285.05,276a16.3,16.3,0,1,1,16.3-16.3A16.32,16.32,0,0,1,285.05,276Zm0-28.32a12,12,0,1,0,12,12A12,12,0,0,0,285.05,247.68Z"/><circle class="cls-1" cx="164.2" cy="259.7" r="14.16"/><path class="cls-2" d="M164.2,276a16.3,16.3,0,1,1,16.3-16.3A16.32,16.32,0,0,1,164.2,276Zm0-28.32a12,12,0,1,0,12,12A12,12,0,0,0,164.2,247.68Z"/><line class="cls-1" x1="225.08" y1="208.26" x2="225.08" y2="306.82"/><rect class="cls-2" x="222.94" y="208.26" width="4.29" height="98.57"/><line class="cls-1" x1="175.51" y1="270.11" x2="215.66" y2="311.11"/><rect class="cls-2" x="193.44" y="261.92" width="4.29" height="57.38" transform="translate(-147.48 219.79) rotate(-44.39)"/><line class="cls-1" x1="275.65" y1="270.11" x2="235.51" y2="311.11"/><rect class="cls-2" x="226.89" y="288.47" width="57.38" height="4.29" transform="translate(-130.87 269.95) rotate(-45.61)"/><path class="cls-5" d="M225.23,275.82s14.42-65.85,74.56-76"/><path class="cls-5" d="M225.23,275.82s-14.43-65.85-74.57-76"/></g></g></svg>